<?xml version="1.0" encoding="iso-8859-1"?>
<!-- Generator: Adobe Illustrator 19.0.0, SVG Export Plug-In . SVG Version: 6.00 Build 0)  -->
<svg version="1.1" id="Capa_1" xmlns="http://www.w3.org/2000/svg" xmlns:xlink="http://www.w3.org/1999/xlink" x="0px" y="0px"
	 viewBox="0 0 512 512" style="enable-background:new 0 0 512 512;" xml:space="preserve">
<g>
	<g>
		<path d="M383.141,107.307L273.591,4.676C270.386,1.672,266.159,0,261.766,0H56.505C40.608,0,27.676,12.933,27.676,28.829v398.414
			c0,15.896,12.933,28.829,28.829,28.829h188.541v-34.595H62.27V34.595h192.657l99.09,92.829v134.342h34.595V119.928
			C388.613,115.148,386.629,110.576,383.141,107.307z"/>
	</g>
</g>
<g>
	<g>
		<path d="M348.829,241.009c-74.713,0-135.495,60.783-135.495,135.495S274.116,512,348.829,512s135.496-60.783,135.496-135.495
			S423.542,241.009,348.829,241.009z M348.829,477.405c-55.634,0-100.901-45.261-100.901-100.901s45.267-100.901,100.901-100.901
			c55.634,0,100.901,45.267,100.901,100.901S404.463,477.405,348.829,477.405z"/>
	</g>
</g>
<g>
	<g>
		<path d="M348.829,306.739c-9.554,0-17.297,7.743-17.297,17.297V429.55c0,9.554,7.743,17.297,17.297,17.297
			c9.554,0,17.297-7.743,17.297-17.297V324.036C366.126,314.482,358.383,306.739,348.829,306.739z"/>
	</g>
</g>
<g>
	<g>
		<path d="M401.874,359.207H296.355c-9.554,0-17.297,7.743-17.297,17.297s7.743,17.297,17.297,17.297h105.519
			c9.554,0,17.297-7.743,17.297-17.297C419.171,366.951,411.428,359.207,401.874,359.207z"/>
	</g>
</g>
<g>
	<g>
		<path d="M279.057,102.631V17.297h-34.595v102.631c0,9.554,7.743,17.297,17.297,17.297h109.55v-34.595H279.057z"/>
	</g>
</g>
<g>
</g>
<g>
</g>
<g>
</g>
<g>
</g>
<g>
</g>
<g>
</g>
<g>
</g>
<g>
</g>
<g>
</g>
<g>
</g>
<g>
</g>
<g>
</g>
<g>
</g>
<g>
</g>
<g>
</g>
</svg>
