<?xml version="1.0" encoding="iso-8859-1"?>
<!-- Generator: Adobe Illustrator 19.0.0, SVG Export Plug-In . SVG Version: 6.00 Build 0)  -->
<svg version="1.1" id="Capa_1" xmlns="http://www.w3.org/2000/svg" xmlns:xlink="http://www.w3.org/1999/xlink" x="0px" y="0px"
	 viewBox="0 0 512.004 512.004" style="enable-background:new 0 0 512.004 512.004;" xml:space="preserve">
<g>
	<g>
		<path d="M506.475,168.447c-4.57-5.399-11.281-8.495-18.41-8.495H23.939c-7.123,0-13.828,3.096-18.398,8.489
			c-4.265,5.035-6.192,11.585-5.345,18.088l27.4,285.944c0.024,0.221,0.048,0.441,0.078,0.656
			c2.41,18.04,17.73,31.642,35.639,31.642h385.38c18.828,0,34.529-14.419,35.716-32.298l27.4-285.938
			C512.655,180.033,510.734,173.482,506.475,168.447z M448.787,469.014c-0.018-0.03-0.107-0.048-0.095-0.036l-385.063,0.054
			c-0.155-0.072-0.382-0.34-0.453-0.549L37.033,195.752H474.97L448.787,469.014z"/>
	</g>
</g>
<g>
	<g>
		<path d="M466.779,91.21c-4.534-5.22-11.126-8.215-18.094-8.215H63.903c-6.962,0-13.584,3.108-18.171,8.525
			c-4.611,5.453-6.604,12.552-5.482,19.251l10.738,69.798l35.382-5.441l-8.668-56.339h357.192l-8.662,56.339l35.376,5.441
			l10.762-70.001C473.371,103.518,471.337,96.46,466.779,91.21z"/>
	</g>
</g>
<g>
	<g>
		<path d="M413.709,15.459c-4.534-5.226-11.132-8.227-18.112-8.227H117.003c-6.962,0-13.584,3.108-18.171,8.525
			c-4.617,5.453-6.604,12.552-5.476,19.299l10.738,68.605l35.364-5.536l-8.626-55.099h250.813l-9.074,54.949l35.316,5.834
			l11.394-68.975C420.295,27.772,418.261,20.715,413.709,15.459z"/>
	</g>
</g>
<g>
	<g>
		<path d="M331.169,272.703H180.835c-9.885,0-17.897,8.012-17.897,17.897c0,9.885,8.012,17.897,17.897,17.897h150.334
			c9.885,0,17.897-8.012,17.897-17.897C349.065,280.715,341.054,272.703,331.169,272.703z"/>
	</g>
</g>
<g>
</g>
<g>
</g>
<g>
</g>
<g>
</g>
<g>
</g>
<g>
</g>
<g>
</g>
<g>
</g>
<g>
</g>
<g>
</g>
<g>
</g>
<g>
</g>
<g>
</g>
<g>
</g>
<g>
</g>
</svg>
