<?xml version="1.0" encoding="iso-8859-1"?>
<!-- Generator: Adobe Illustrator 19.0.0, SVG Export Plug-In . SVG Version: 6.00 Build 0)  -->
<svg version="1.1" id="Capa_1" xmlns="http://www.w3.org/2000/svg" xmlns:xlink="http://www.w3.org/1999/xlink" x="0px" y="0px"
	 viewBox="0 0 512 512" style="enable-background:new 0 0 512 512;" xml:space="preserve">
<g>
	<g>
		<path d="M495.268,349.699H162.301V16.732C162.301,7.49,154.81,0,145.569,0c-9.242,0-16.732,7.49-16.732,16.732v349.699
			c0,9.242,7.49,16.732,16.732,16.732h349.699c9.242,0,16.732-7.49,16.732-16.732S504.51,349.699,495.268,349.699z"/>
	</g>
</g>
<g>
	<g>
		<path d="M366.431,349.699c-9.242,0-16.732,7.49-16.732,16.732v128.837c0,9.242,7.49,16.732,16.732,16.732
			c9.242,0,16.732-7.49,16.732-16.732V366.431C383.163,357.19,375.673,349.699,366.431,349.699z"/>
	</g>
</g>
<g>
	<g>
		<path d="M366.431,128.837H196.322c-9.242,0-16.732,7.49-16.732,16.732c0,9.242,7.49,16.732,16.732,16.732h153.377v155.608
			c0,9.242,7.49,16.732,16.732,16.732c9.242,0,16.732-7.49,16.732-16.732v-172.34C383.163,136.327,375.673,128.837,366.431,128.837z
			"/>
	</g>
</g>
<g>
	<g>
		<path d="M146.126,128.837H16.732C7.49,128.837,0,136.327,0,145.569c0,9.242,7.49,16.732,16.732,16.732h129.394
			c9.242,0,16.732-7.49,16.732-16.732C162.858,136.327,155.368,128.837,146.126,128.837z"/>
	</g>
</g>
<g>
	<g>
		<path d="M442.4,66.811c-6.537-6.537-17.122-6.537-23.659,0L134.297,351.255c-6.537,6.531-6.537,17.128,0,23.659
			c3.263,3.268,7.546,4.902,11.83,4.902c4.283,0,8.567-1.634,11.83-4.902L442.4,90.47C448.937,83.939,448.937,73.342,442.4,66.811z"
			/>
	</g>
</g>
<g>
</g>
<g>
</g>
<g>
</g>
<g>
</g>
<g>
</g>
<g>
</g>
<g>
</g>
<g>
</g>
<g>
</g>
<g>
</g>
<g>
</g>
<g>
</g>
<g>
</g>
<g>
</g>
<g>
</g>
</svg>
