<?xml version="1.0" encoding="iso-8859-1"?>
<!-- Generator: Adobe Illustrator 19.0.0, SVG Export Plug-In . SVG Version: 6.00 Build 0)  -->
<svg version="1.1" id="Capa_1" xmlns="http://www.w3.org/2000/svg" xmlns:xlink="http://www.w3.org/1999/xlink" x="0px" y="0px"
	 viewBox="0 0 512 512" style="enable-background:new 0 0 512 512;" xml:space="preserve">
<g>
	<g>
		<path d="M493.758,234.717h-86.347c-10.076,0-18.242,8.166-18.242,18.242c0,10.076,8.166,18.242,18.242,18.242h86.347
			c10.076,0,18.242-8.166,18.242-18.242C512,242.884,503.834,234.717,493.758,234.717z"/>
	</g>
</g>
<g>
	<g>
		<path d="M275.458,234.717H18.242C8.166,234.717,0,242.884,0,252.96c0,10.076,8.166,18.242,18.242,18.242h257.216
			c10.076,0,18.242-8.166,18.242-18.242C293.701,242.884,285.534,234.717,275.458,234.717z"/>
	</g>
</g>
<g>
	<g>
		<path d="M341.131,169.045c-46.275,0-83.914,37.646-83.914,83.914c0,46.275,37.646,83.915,83.914,83.915
			c46.268,0,83.914-37.64,83.914-83.915C425.045,206.691,387.405,169.045,341.131,169.045z M341.131,300.39
			c-26.153,0-47.43-21.277-47.43-47.43c0-26.153,21.277-47.43,47.43-47.43c26.153,0,47.436,21.277,47.436,47.43
			C388.567,279.113,367.29,300.39,341.131,300.39z"/>
	</g>
</g>
<g>
	<g>
		<path d="M104.589,385.52H18.242C8.166,385.52,0,393.687,0,403.763s8.166,18.242,18.242,18.242h86.347
			c10.076,0,18.242-8.166,18.242-18.242S114.665,385.52,104.589,385.52z"/>
	</g>
</g>
<g>
	<g>
		<path d="M493.758,385.52H236.542c-10.076,0-18.242,8.167-18.242,18.242s8.166,18.242,18.242,18.242h257.216
			c10.076,0,18.242-8.166,18.242-18.242S503.834,385.52,493.758,385.52z"/>
	</g>
</g>
<g>
	<g>
		<path d="M170.869,319.848c-46.269,0-83.914,37.64-83.914,83.914s37.646,83.915,83.914,83.915s83.914-37.646,83.914-83.914
			S217.138,319.848,170.869,319.848z M170.869,451.199c-26.153,0-47.43-21.277-47.43-47.43c0-26.159,21.277-47.436,47.43-47.436
			c26.153,0,47.43,21.277,47.43,47.436C218.299,429.922,197.023,451.199,170.869,451.199z"/>
	</g>
</g>
<g>
	<g>
		<path d="M104.589,89.995H18.242C8.166,89.995,0,98.162,0,108.238s8.166,18.242,18.242,18.242h86.347
			c10.076,0,18.242-8.166,18.242-18.242S114.665,89.995,104.589,89.995z"/>
	</g>
</g>
<g>
	<g>
		<path d="M493.758,89.995H236.542c-10.076,0-18.242,8.167-18.242,18.242s8.166,18.242,18.242,18.242h257.216
			c10.076,0,18.242-8.166,18.242-18.242S503.834,89.995,493.758,89.995z"/>
	</g>
</g>
<g>
	<g>
		<path d="M170.869,24.323c-46.269,0-83.914,37.646-83.914,83.914c0,46.268,37.646,83.914,83.914,83.914s83.914-37.64,83.914-83.914
			C254.784,61.963,217.138,24.323,170.869,24.323z M170.869,155.667c-26.153,0-47.43-21.277-47.43-47.43
			c0-26.153,21.277-47.43,47.43-47.43c26.153,0,47.43,21.277,47.43,47.43C218.299,134.391,197.023,155.667,170.869,155.667z"/>
	</g>
</g>
<g>
</g>
<g>
</g>
<g>
</g>
<g>
</g>
<g>
</g>
<g>
</g>
<g>
</g>
<g>
</g>
<g>
</g>
<g>
</g>
<g>
</g>
<g>
</g>
<g>
</g>
<g>
</g>
<g>
</g>
</svg>
