<?xml version="1.0" encoding="iso-8859-1"?>
<!-- Generator: Adobe Illustrator 19.0.0, SVG Export Plug-In . SVG Version: 6.00 Build 0)  -->
<svg version="1.1" id="Layer_1" xmlns="http://www.w3.org/2000/svg" xmlns:xlink="http://www.w3.org/1999/xlink" x="0px" y="0px"
	 viewBox="0 0 512.039 512.039" style="enable-background:new 0 0 512.039 512.039;" xml:space="preserve">
<g>
	<g>
		<path d="M512.019,85.333c0-54.488-113.104-85.333-256-85.333s-256,30.845-256,85.333c0,12.847,6.294,24.379,17.777,34.503
			l174.223,228.697v142.133c0,17.58,20.07,27.614,34.133,17.067l85.333-64c5.372-4.029,8.533-10.352,8.533-17.067v-78.133
			l174.223-228.697C505.726,109.712,512.019,98.181,512.019,85.333z M256.019,42.667c116.314,0,213.333,26.459,213.333,42.667
			c0,0.362-0.065,0.73-0.161,1.102c-1.531,0.739-3.048,1.687-4.528,2.871c-12.562,10.053-37.284,19.045-69.723,25.826
			c-36.193,7.175-82.771,12.475-133.267,12.846c-0.109,0.001-0.218,0.002-0.328,0.003c-1.771,0.012-3.546,0.019-5.325,0.019
			c-1.78,0-3.555-0.007-5.325-0.019c-0.109-0.001-0.218-0.002-0.328-0.003c-50.496-0.371-97.074-5.671-133.267-12.846
			c-32.44-6.781-57.161-15.773-69.723-25.826c-1.481-1.185-2.997-2.133-4.528-2.871c-0.096-0.371-0.161-0.74-0.161-1.102
			C42.686,69.125,139.706,42.667,256.019,42.667z M277.353,416l-42.667,32v-85.333h42.667V416z M288.119,320h-64.2L98.172,154.935
			c41.876,9.971,94.385,15.369,151.984,15.712c1.95,0.013,3.904,0.02,5.863,0.02c1.959,0,3.913-0.007,5.863-0.02
			c57.599-0.343,110.109-5.74,151.984-15.712L288.119,320z"/>
	</g>
</g>
<g>
</g>
<g>
</g>
<g>
</g>
<g>
</g>
<g>
</g>
<g>
</g>
<g>
</g>
<g>
</g>
<g>
</g>
<g>
</g>
<g>
</g>
<g>
</g>
<g>
</g>
<g>
</g>
<g>
</g>
</svg>
