<?xml version="1.0" encoding="iso-8859-1"?>
<!-- Generator: Adobe Illustrator 19.0.0, SVG Export Plug-In . SVG Version: 6.00 Build 0)  -->
<svg version="1.1" id="Capa_1" xmlns="http://www.w3.org/2000/svg" xmlns:xlink="http://www.w3.org/1999/xlink" x="0px" y="0px"
	 viewBox="0 0 511.994 511.994" style="enable-background:new 0 0 511.994 511.994;" xml:space="preserve">
<g>
	<g>
		<path d="M498.895,169.761c-8.947-9.262-21.069-14.359-34.119-14.359H47.209c-13.044,0-25.166,5.103-34.119,14.359
			c-8.857,9.155-13.505,21.221-13.061,34.31l12.353,231.252c0.888,24.767,22.059,44.915,47.197,44.915h392.277
			c24.672,0,45.382-19.468,47.169-44.584l12.943-231.921C512.394,190.988,507.752,178.921,498.895,169.761z M465.383,433.519
			c-0.523,7.284-6.463,12.999-13.527,12.999H59.579c-7.076,0-13.258-5.682-13.51-12.701L33.721,202.61
			c-0.118-3.535,1.163-6.873,3.614-9.408c2.54-2.63,6.053-4.08,9.88-4.08v0.006h417.561c3.827,0,7.34,1.45,9.886,4.08
			c2.45,2.529,3.732,5.873,3.631,9.031L465.383,433.519z"/>
	</g>
</g>
<g>
	<g>
		<path d="M441.734,70.534H256.521l-44.724-31.152c-5.536-4.867-12.982-7.626-20.71-7.626H69.133c-21.693,0-39.34,17.9-39.34,39.902
			v100.598h33.72V71.658c0-3.468,2.467-6.182,5.62-6.182h121.246c0.377,0.326,0.776,0.624,1.186,0.91l50.018,34.844
			c2.833,1.973,6.193,3.029,9.638,3.029h190.513c3.153,0,5.62,2.714,5.62,6.182v61.82h33.72v-61.826
			C481.074,88.434,463.422,70.534,441.734,70.534z"/>
	</g>
</g>
<g>
</g>
<g>
</g>
<g>
</g>
<g>
</g>
<g>
</g>
<g>
</g>
<g>
</g>
<g>
</g>
<g>
</g>
<g>
</g>
<g>
</g>
<g>
</g>
<g>
</g>
<g>
</g>
<g>
</g>
</svg>
