<?xml version="1.0" encoding="iso-8859-1"?>
<!-- Generator: Adobe Illustrator 19.0.0, SVG Export Plug-In . SVG Version: 6.00 Build 0)  -->
<svg version="1.1" id="Capa_1" xmlns="http://www.w3.org/2000/svg" xmlns:xlink="http://www.w3.org/1999/xlink" x="0px" y="0px"
	 viewBox="0 0 512 512" style="enable-background:new 0 0 512 512;" xml:space="preserve">
<g>
	<g>
		<path d="M495.484,118.641h-80.929v33.032h64.413v278.572H108.456v-52.852H75.424v69.368c0,9.122,7.394,16.516,16.516,16.516
			h403.544c9.122,0,16.516-7.394,16.516-16.516V135.157C512,126.035,504.606,118.641,495.484,118.641z"/>
	</g>
</g>
<g>
	<g>
		<path d="M430.52,373.16V65.239c0-9.122-7.394-16.516-16.516-16.516H16.516C7.394,48.723,0,56.116,0,65.239v312.155
			c0,9.122,7.394,16.516,16.516,16.516h398.039c9.122,0,16.516-7.388,16.516-16.511C431.071,375.935,430.878,374.509,430.52,373.16z
			 M397.488,360.877H33.032V81.755h364.456V360.877z"/>
	</g>
</g>
<g>
	<g>
		<path d="M264.258,102.125c-27.015,0-48.998,21.983-48.998,48.998s21.983,48.998,48.998,48.998s48.998-21.983,48.998-48.998
			S291.273,102.125,264.258,102.125z M264.258,167.088c-8.803,0-15.966-7.162-15.966-15.966s7.162-15.966,15.966-15.966
			c8.809,0,15.966,7.162,15.966,15.966S273.067,167.088,264.258,167.088z"/>
	</g>
</g>
<g>
	<g>
		<path d="M288.333,308.576l-96.895-140.943c-3.078-4.481-8.17-7.157-13.609-7.157c-0.011,0-0.017,0-0.022,0
			c-5.45,0.005-10.543,2.698-13.615,7.196L67.848,308.609c-3.457,5.059-3.832,11.616-0.974,17.034
			c2.857,5.417,8.478,8.809,14.606,8.809h193.239c6.138,0,11.765-3.397,14.628-8.831
			C292.198,320.193,291.813,313.63,288.333,308.576z M112.772,301.419l65.09-95.216l65.459,95.216H112.772z"/>
	</g>
</g>
<g>
	<g>
		<path d="M373.49,307.607l-64.413-80.384c-3.138-3.909-7.878-6.188-12.888-6.188h-0.006c-5.015,0.006-9.761,2.285-12.894,6.199
			l-41.841,52.301l25.798,20.634l28.953-36.192l30.004,37.442h-94.428v33.032h128.826c6.348,0,12.139-3.639,14.886-9.365
			C378.241,319.361,377.465,312.562,373.49,307.607z"/>
	</g>
</g>
<g>
</g>
<g>
</g>
<g>
</g>
<g>
</g>
<g>
</g>
<g>
</g>
<g>
</g>
<g>
</g>
<g>
</g>
<g>
</g>
<g>
</g>
<g>
</g>
<g>
</g>
<g>
</g>
<g>
</g>
</svg>
