<?xml version="1.0" encoding="iso-8859-1"?>
<!-- Generator: Adobe Illustrator 19.0.0, SVG Export Plug-In . SVG Version: 6.00 Build 0)  -->
<svg version="1.1" id="Capa_1" xmlns="http://www.w3.org/2000/svg" xmlns:xlink="http://www.w3.org/1999/xlink" x="0px" y="0px"
	 viewBox="0 0 511.999 511.999" style="enable-background:new 0 0 511.999 511.999;" xml:space="preserve">
<g>
	<g>
		<path d="M499.811,137.003L263.922,35.812c-5.066-2.171-10.789-2.171-15.849,0L12.184,137.003
			c-7.398,3.17-12.183,10.448-12.176,18.496c0.013,8.048,4.825,15.313,12.223,18.469L248.12,274.488
			c2.52,1.072,5.2,1.608,7.881,1.608c2.681,0,5.368-0.536,7.874-1.608l235.889-100.521c7.405-3.15,12.217-10.421,12.223-18.469
			C511.995,147.457,507.21,140.172,499.811,137.003z M256.001,234.146L71.25,155.418l184.751-79.257l184.751,79.257L256.001,234.146
			z"/>
	</g>
</g>
<g>
	<g>
		<path d="M510.366,348.593c-4.376-10.206-16.217-14.931-26.397-10.548l-227.968,97.793L28.033,338.045
			c-10.22-4.396-22.021,0.349-26.397,10.548c-4.383,10.2,0.342,22.021,10.548,26.397l235.889,101.198
			c2.533,1.086,5.234,1.628,7.928,1.628s5.395-0.543,7.928-1.628l235.889-101.198C510.018,370.613,514.742,358.792,510.366,348.593z
			"/>
	</g>
</g>
<g>
	<g>
		<path d="M510.386,248.112c-4.363-10.206-16.17-14.958-26.377-10.608l-228.008,97.163L28,237.504
			c-10.22-4.356-22.027,0.402-26.377,10.608c-4.356,10.22,0.395,22.028,10.608,26.377L248.12,375.009
			c2.52,1.072,5.2,1.608,7.881,1.608c2.681,0,5.368-0.536,7.881-1.608l235.889-100.521
			C509.984,270.139,514.735,258.331,510.386,248.112z"/>
	</g>
</g>
<g>
</g>
<g>
</g>
<g>
</g>
<g>
</g>
<g>
</g>
<g>
</g>
<g>
</g>
<g>
</g>
<g>
</g>
<g>
</g>
<g>
</g>
<g>
</g>
<g>
</g>
<g>
</g>
<g>
</g>
</svg>
