<?xml version="1.0" encoding="iso-8859-1"?>
<!-- Generator: Adobe Illustrator 19.0.0, SVG Export Plug-In . SVG Version: 6.00 Build 0)  -->
<svg version="1.1" id="Layer_1" xmlns="http://www.w3.org/2000/svg" xmlns:xlink="http://www.w3.org/1999/xlink" x="0px" y="0px"
	 viewBox="0 0 512 512" style="enable-background:new 0 0 512 512;" xml:space="preserve">
<g>
	<g>
		<path d="M423.872,106.667H277.333V21.333C277.333,9.551,267.782,0,256,0s-21.333,9.551-21.333,21.333v85.333h-128
			C47.759,106.667,0,154.426,0,213.333V384c0,11.782,9.551,21.333,21.333,21.333H192v85.333c0,11.782,9.551,21.333,21.333,21.333
			h85.333c11.782,0,21.333-9.551,21.333-21.333v-85.333h170.667c11.782,0,21.333-9.551,21.333-21.333V194.795
			C512,146.127,472.539,106.667,423.872,106.667z M42.667,213.333c0-35.343,28.657-64,64-64s64,28.657,64,64v149.333h-128V213.333z
			 M277.333,469.333h-42.667v-64h42.667V469.333z M469.333,362.667H298.667h-85.333V213.333c0-1.345-0.033-2.683-0.083-4.016
			c-0.01-0.267-0.019-0.534-0.03-0.8c-0.057-1.289-0.136-2.573-0.239-3.85c-0.019-0.234-0.042-0.466-0.062-0.699
			c-0.106-1.214-0.229-2.423-0.375-3.625c-0.017-0.137-0.03-0.276-0.047-0.413c-0.16-1.276-0.348-2.543-0.553-3.805
			c-0.044-0.27-0.088-0.539-0.134-0.808c-0.213-1.251-0.443-2.496-0.699-3.731c-0.035-0.17-0.075-0.338-0.111-0.508
			c-0.245-1.153-0.509-2.298-0.79-3.437c-0.05-0.202-0.097-0.406-0.148-0.608c-0.307-1.211-0.637-2.412-0.985-3.606
			c-0.074-0.253-0.15-0.505-0.225-0.757c-0.364-1.213-0.742-2.42-1.147-3.615c-0.022-0.064-0.045-0.126-0.067-0.19
			c-0.394-1.155-0.812-2.3-1.245-3.437c-0.087-0.228-0.172-0.457-0.26-0.685c-0.445-1.145-0.908-2.281-1.391-3.407
			c-0.094-0.22-0.192-0.439-0.288-0.658c-0.478-1.094-0.97-2.18-1.483-3.254c-0.038-0.08-0.074-0.162-0.113-0.242
			c-0.539-1.122-1.103-2.23-1.68-3.33c-0.121-0.231-0.242-0.462-0.365-0.692c-0.576-1.078-1.166-2.146-1.777-3.201
			c-0.097-0.168-0.198-0.334-0.296-0.501c-0.577-0.984-1.168-1.957-1.776-2.92c-0.096-0.152-0.189-0.306-0.286-0.458
			c-0.655-1.028-1.33-2.042-2.02-3.045c-0.148-0.216-0.298-0.431-0.448-0.646c-0.703-1.008-1.418-2.006-2.155-2.989
			c-0.017-0.023-0.033-0.046-0.05-0.069h231.866c25.103,0,45.461,20.358,45.461,45.461V362.667z"/>
	</g>
</g>
<g>
</g>
<g>
</g>
<g>
</g>
<g>
</g>
<g>
</g>
<g>
</g>
<g>
</g>
<g>
</g>
<g>
</g>
<g>
</g>
<g>
</g>
<g>
</g>
<g>
</g>
<g>
</g>
<g>
</g>
</svg>
