<?xml version="1.0" encoding="iso-8859-1"?>
<!-- Generator: Adobe Illustrator 19.0.0, SVG Export Plug-In . SVG Version: 6.00 Build 0)  -->
<svg version="1.1" id="Capa_1" xmlns="http://www.w3.org/2000/svg" xmlns:xlink="http://www.w3.org/1999/xlink" x="0px" y="0px"
	 viewBox="0 0 512 512" style="enable-background:new 0 0 512 512;" xml:space="preserve">
<g>
	<g>
		<path d="M421.995,16.813c-5.21-3.016-11.635-3.027-16.857-0.028c-41.174,23.636-160.346,84.969-216.655,84.969
			c-9.323,0-16.879,7.556-16.879,16.879v174.98c0,9.323,7.556,16.879,16.879,16.879c72.119,0,215.029,84.013,216.464,84.857
			c2.644,1.564,5.621,2.352,8.591,2.352c2.886,0,5.767-0.743,8.361-2.222c5.266-2.999,8.518-8.597,8.518-14.657V31.424
			C430.418,25.404,427.211,19.834,421.995,16.813z M396.659,351.953c-42.614-23.169-129.378-66.768-191.297-74.15V134.342
			c59.881-7.703,148.221-51.47,191.297-74.398V351.953z"/>
	</g>
</g>
<g>
	<g>
		<path d="M200.451,420.105c-6.465-10.094-24.908-53.968-24.908-120.871h-33.758c0,72.642,19.771,122.739,30.54,139.54
			c1.817,2.644,2.161,5.525,1.007,7.956c-0.501,0.343-1.159,0.737-1.964,1.137c-0.568,0.287-1.12,0.596-1.649,0.945
			c-4.372,2.841-20.818,12.277-49.355,14.752c-0.068-0.242-0.141-0.478-0.214-0.72L65.013,291.807L32.88,302.171l55.026,170.687
			c4.141,14.702,17.11,24.599,31.429,24.599c1.356,0,2.729-0.09,4.107-0.276c24.452-2.144,47.65-9.255,63.904-19.569
			c4.242-2.217,7.883-4.839,10.831-7.787c0.602-0.608,1.159-1.26,1.665-1.947C210.336,453.571,210.455,434.638,200.451,420.105z"/>
	</g>
</g>
<g>
	<g>
		<path d="M189.046,135.512v-33.758H33.758C14.831,101.754,0,116.585,0,135.512v141.222c0,18.927,14.831,33.758,33.758,33.758
			h155.288v-33.758H33.758V135.512H189.046z"/>
	</g>
</g>
<g>
	<g>
		<path d="M440.545,123.134h-27.007v33.758h27.007c20.784,0,37.697,16.913,37.697,37.697s-16.913,37.697-37.697,37.697h-27.007
			v33.758h27.007c39.401,0,71.455-32.053,71.455-71.455S479.947,123.134,440.545,123.134z"/>
	</g>
</g>
<g>
</g>
<g>
</g>
<g>
</g>
<g>
</g>
<g>
</g>
<g>
</g>
<g>
</g>
<g>
</g>
<g>
</g>
<g>
</g>
<g>
</g>
<g>
</g>
<g>
</g>
<g>
</g>
<g>
</g>
</svg>
