<svg height="512pt" viewBox="0 -10 512.001 512" width="512pt" xmlns="http://www.w3.org/2000/svg"><path d="m123.027344 423.164062c42.761718-28.898437 100.644531-98.691406 100.644531-186.238281 0-61.667969-50.167969-111.835937-111.835937-111.835937-61.667969 0-111.835938 50.167968-111.835938 111.835937 0 78.117188 48.996094 151.335938 100.644531 186.238281 6.761719 4.566407 15.617188 4.5625 22.382813 0zm-83.027344-186.238281c0-39.609375 32.226562-71.835937 71.835938-71.835937 39.609374 0 71.835937 32.226562 71.835937 71.835937 0 56.910157-29.582031 108.015625-71.855469 144.253907-22.667968-19.417969-71.816406-70.082032-71.816406-144.253907zm349.441406 8.976563h-18.777344c-45.523437 0-82.558593-37.03125-82.558593-82.550782 0-45.515624 37.035156-82.546874 82.558593-82.546874h23.113282c8.292968 23.730468 30.890625 40.804687 57.414062 40.804687 33.53125 0 60.808594-27.277344 60.808594-60.804687 0-33.527344-27.277344-60.804688-60.808594-60.804688-26.523437 0-49.121094 17.074219-57.414062 40.804688h-23.113282c-67.578124 0-122.558593 54.976562-122.558593 122.550781 0 67.570312 54.976562 122.546875 122.558593 122.546875h18.777344c45.523438 0 82.558594 37.03125 82.558594 82.550781 0 45.515625-37.035156 82.546875-82.558594 82.546875h-277.605468c-11.046876 0-20 8.953125-20 20s8.953124 20 20 20h277.605468c67.578125 0 122.558594-54.976562 122.558594-122.546875 0-67.574219-54.980469-122.550781-122.558594-122.550781zm61.75-205.902344c11.472656 0 20.808594 9.332031 20.808594 20.804688 0 11.472656-9.335938 20.804687-20.808594 20.804687s-20.808594-9.332031-20.808594-20.804687c0-11.472657 9.335938-20.804688 20.808594-20.804688zm0 0"/></svg>