<?xml version="1.0" encoding="iso-8859-1"?>
<!-- Generator: Adobe Illustrator 19.0.0, SVG Export Plug-In . SVG Version: 6.00 Build 0)  -->
<svg version="1.1" id="Capa_1" xmlns="http://www.w3.org/2000/svg" xmlns:xlink="http://www.w3.org/1999/xlink" x="0px" y="0px"
	 viewBox="0 0 512 512" style="enable-background:new 0 0 512 512;" xml:space="preserve">
<g>
	<g>
		<path d="M479.458,97.898H32.542C14.297,97.898,0,112.195,0,130.441v251.119c0,18.245,14.297,32.542,32.542,32.542h446.915
			c18.251,0,32.542-14.297,32.542-32.542V130.441C512,112.195,497.703,97.898,479.458,97.898z M479.458,381.559H32.542
			l-0.249-251.097c0,0,0.076-0.022,0.249-0.022h446.915V381.559z"/>
	</g>
</g>
<g>
	<g>
		<path d="M93.831,114.17v18.441c0,31.702-25.79,57.492-57.492,57.492H17.898v32.542h18.441c49.643,0,90.034-40.385,90.034-90.034
			V114.17H93.831z"/>
	</g>
</g>
<g>
	<g>
		<path d="M475.661,190.102c-31.702,0-57.497-25.79-57.497-57.492V114.17h-32.542v18.441c0,49.643,40.396,90.034,90.039,90.034
			h18.441v-32.542H475.661z"/>
	</g>
</g>
<g>
	<g>
		<path d="M475.666,289.904c-49.649,0-90.039,40.391-90.039,90.034v18.441h32.537v-18.441c0-31.702,25.795-57.492,57.497-57.492
			h18.441v-32.542H475.666z"/>
	</g>
</g>
<g>
	<g>
		<path d="M36.339,289.904H17.898v32.542h18.441c31.702,0,57.492,25.79,57.492,57.492v18.441h32.542v-18.441
			C126.373,330.289,85.982,289.904,36.339,289.904z"/>
	</g>
</g>
<g>
	<g>
		<path d="M256,150.508c-58.316,0-105.763,47.447-105.763,105.763S197.684,362.034,256,362.034s105.763-47.447,105.763-105.763
			S314.316,150.508,256,150.508z M256,329.492c-40.374,0-73.22-32.846-73.22-73.22c0-40.374,32.846-73.22,73.22-73.22
			c40.38,0,73.22,32.852,73.22,73.22C329.22,296.645,296.374,329.492,256,329.492z"/>
	</g>
</g>
<g>
</g>
<g>
</g>
<g>
</g>
<g>
</g>
<g>
</g>
<g>
</g>
<g>
</g>
<g>
</g>
<g>
</g>
<g>
</g>
<g>
</g>
<g>
</g>
<g>
</g>
<g>
</g>
<g>
</g>
</svg>
