<?xml version="1.0" encoding="iso-8859-1"?>
<!-- Generator: Adobe Illustrator 19.0.0, SVG Export Plug-In . SVG Version: 6.00 Build 0)  -->
<svg version="1.1" id="Capa_1" xmlns="http://www.w3.org/2000/svg" xmlns:xlink="http://www.w3.org/1999/xlink" x="0px" y="0px"
	 viewBox="0 0 512 512" style="enable-background:new 0 0 512 512;" xml:space="preserve">
<g>
	<g>
		<path d="M511.883,251.049C509.239,112.168,395.437,0,255.932,0C185.583,0,117.595,29.383,69.409,80.619
			C20.642,132.479-3.802,200.315,0.567,271.596C8.271,401.914,127.151,512,260.168,512h2.421c37.044,0,67.189-30.133,67.189-67.177
			s-30.139-67.177-67.183-67.177c-13.012,0-23.603-10.591-23.603-23.603c0-4.642,1.446-9.175,4.212-13.532
			c4.775-7.154,14.204-10.397,24.335-8.515c0.992,0.424,2.021,0.763,3.074,1.005c9.659,2.233,17.775,9.453,21.89,19.724
			c12.322,28.747,40.488,47.315,71.759,47.315c79.56,0,144.625-63.237,147.56-142.083c0.073-0.642,0.109-1.295,0.109-1.955v-3.631
			C511.932,251.927,511.914,251.485,511.883,251.049z M364.257,363.726c-16.722,0-31.791-9.931-38.212-24.898
			c-8.067-20.177-24.813-35.235-45.081-40.663c-1.035-0.472-2.112-0.841-3.22-1.108c-25.751-6.234-51.17,2.929-64.968,23.633
			c-6.7,10.537-10.101,21.757-10.101,33.353c0,33.038,26.877,59.915,59.915,59.915c17.315,0,30.871,13.557,30.871,30.865
			c0,17.309-13.563,30.865-30.871,30.865h-2.421c-114.462,0-216.741-94.448-223.349-206.271
			c-3.758-61.228,17.206-119.436,59.043-163.919c41.959-44.615,98.805-69.187,160.07-69.187c120.429,0,218.532,97.407,219.67,217.57
			C474.803,314.589,425.158,363.726,364.257,363.726z"/>
	</g>
</g>
<g>
	<g>
		<path d="M270.457,68.388c-24.026,0-43.574,19.548-43.574,43.574s19.548,43.574,43.574,43.574s43.574-19.548,43.574-43.574
			C314.031,87.936,294.483,68.388,270.457,68.388z M270.457,119.225c-4,0-7.262-3.262-7.262-7.262c0-4,3.262-7.262,7.262-7.262
			c4.006,0,7.262,3.262,7.262,7.262C277.719,115.963,274.463,119.225,270.457,119.225z"/>
	</g>
</g>
<g>
	<g>
		<path d="M156.074,106.515c-27.367,0-49.626,22.265-49.626,49.626s22.265,49.626,49.626,49.626
			c27.367,0,49.627-22.259,49.627-49.626S183.441,106.515,156.074,106.515z M156.074,169.456c-7.341,0-13.314-5.973-13.314-13.314
			s5.973-13.314,13.314-13.314c7.347,0,13.314,5.973,13.314,13.314C169.388,163.483,163.415,169.456,156.074,169.456z"/>
	</g>
</g>
<g>
	<g>
		<path d="M124.603,226.95c-31.035,0-56.284,25.249-56.284,56.284c0,31.035,25.249,56.284,56.284,56.284
			c31.035,0,56.284-25.249,56.284-56.284C180.887,252.199,155.638,226.95,124.603,226.95z M124.603,303.206
			c-11.015,0-19.972-8.957-19.972-19.972c0-11.015,8.957-19.972,19.972-19.972c11.015,0,19.972,8.957,19.972,19.972
			C144.575,294.249,135.612,303.206,124.603,303.206z"/>
	</g>
</g>
<g>
	<g>
		<path d="M365.473,119.225c-20.359,0-36.917,16.564-36.917,36.917c0,20.359,16.564,36.917,36.917,36.917
			c20.365,0,36.923-16.558,36.923-36.917S385.832,119.225,365.473,119.225z M364.868,156.142c0-0.333,0.272-0.605,0.605-0.605
			c0.339,0,0.611,0.272,0.605,0.605C366.084,156.802,364.874,156.82,364.868,156.142z"/>
	</g>
</g>
<g>
</g>
<g>
</g>
<g>
</g>
<g>
</g>
<g>
</g>
<g>
</g>
<g>
</g>
<g>
</g>
<g>
</g>
<g>
</g>
<g>
</g>
<g>
</g>
<g>
</g>
<g>
</g>
<g>
</g>
</svg>
