<?xml version="1.0" encoding="iso-8859-1"?>
<!-- Generator: Adobe Illustrator 19.0.0, SVG Export Plug-In . SVG Version: 6.00 Build 0)  -->
<svg version="1.1" id="Capa_1" xmlns="http://www.w3.org/2000/svg" xmlns:xlink="http://www.w3.org/1999/xlink" x="0px" y="0px"
	 viewBox="0 0 512 512" style="enable-background:new 0 0 512 512;" xml:space="preserve">
<g>
	<g>
		<path d="M449.308,407.309l-26.453-72.679c-14.747-40.513-59.465-61.37-99.982-46.623c-12.711,4.627-23.742,12.302-32.338,22.274
			l-13.25-36.404l89.796-246.713c3.777-10.379-1.574-21.856-11.953-25.634c-10.38-3.775-21.856,1.575-25.635,11.954L256.001,215.4
			L182.393,13.166c-3.777-10.378-15.255-15.734-25.635-11.954c-10.379,3.778-15.73,15.255-11.953,25.634l89.912,247.03
			l-13.25,36.404c-8.596-9.972-19.628-17.648-32.339-22.274c-40.513-14.744-85.234,6.105-99.982,46.623l-26.453,72.679
			c-14.711,40.418,6.203,85.271,46.622,99.982c40.42,14.711,85.272-6.205,99.983-46.622L256,332.354l46.703,128.314
			c14.712,40.419,59.563,61.334,99.983,46.622C443.105,492.579,464.02,447.728,449.308,407.309z M198.162,374.309l-26.452,72.679
			c-7.168,19.693-29.02,29.883-48.714,22.715c-19.693-7.167-29.884-29.02-22.716-48.714l26.453-72.679
			c7.183-19.738,28.972-29.9,48.712-22.715C195.184,332.779,205.348,354.568,198.162,374.309z M389.005,469.703
			c-19.692,7.168-41.545-3.022-48.714-22.715l-26.452-72.679c-7.185-19.738,2.974-41.528,22.716-48.714
			c19.818-7.213,41.556,3.052,48.712,22.715l26.453,72.679C418.888,440.683,408.698,462.536,389.005,469.703z"/>
	</g>
</g>
<g>
</g>
<g>
</g>
<g>
</g>
<g>
</g>
<g>
</g>
<g>
</g>
<g>
</g>
<g>
</g>
<g>
</g>
<g>
</g>
<g>
</g>
<g>
</g>
<g>
</g>
<g>
</g>
<g>
</g>
</svg>
