<?xml version="1.0" encoding="iso-8859-1"?>
<!-- Generator: Adobe Illustrator 19.0.0, SVG Export Plug-In . SVG Version: 6.00 Build 0)  -->
<svg xmlns="http://www.w3.org/2000/svg" xmlns:xlink="http://www.w3.org/1999/xlink" version="1.1" id="Layer_1" x="0px" y="0px" viewBox="0 0 511.998 511.998" style="enable-background:new 0 0 511.998 511.998;" xml:space="preserve" width="512" height="512">
<path d="M98.645,511.998c-6.055,0-12.204-0.983-18.247-3.012c-22.912-7.692-37.988-28.297-38.407-52.495  c-0.002-0.115-0.003-0.231-0.003-0.346V56.402c0.105-21.556,12.093-40.837,31.285-50.418c19.134-9.553,41.671-7.56,58.813,5.201  c0.054,0.04,0.108,0.081,0.162,0.122l184.942,140.596c8.793,6.685,10.502,19.232,3.817,28.025  c-6.684,8.793-19.23,10.503-28.025,3.817L108.136,43.221c-7.246-5.346-14.296-2.796-16.997-1.448  c-2.736,1.366-9.106,5.535-9.15,14.727v399.443c0.258,10.646,8.584,14.265,11.14,15.123c2.543,0.853,11.285,2.974,17.916-5.189  l103.783-144.578c3.757-5.234,9.805-8.337,16.248-8.337h182.86c10.567-0.295,14.229-8.794,15.103-11.403  c0.882-2.636,3.098-11.727-5.273-18.391l-44.781-34.043c-8.793-6.685-10.502-19.232-3.817-28.025  c6.684-8.792,19.231-10.503,28.025-3.817l44.925,34.153c0.083,0.063,0.167,0.127,0.249,0.192  c19.033,14.948,26.335,39.531,18.604,62.628c-7.71,23.034-28.281,38.226-52.407,38.702c-0.132,0.002-0.263,0.004-0.395,0.004  h-172.83L143.25,489.605c-0.166,0.23-0.335,0.457-0.51,0.679C131.734,504.317,115.561,511.997,98.645,511.998z"/>















</svg>
