<?xml version="1.0" encoding="iso-8859-1"?>
<!-- Generator: Adobe Illustrator 19.0.0, SVG Export Plug-In . SVG Version: 6.00 Build 0)  -->
<svg xmlns="http://www.w3.org/2000/svg" xmlns:xlink="http://www.w3.org/1999/xlink" version="1.1" id="Layer_1" x="0px" y="0px" viewBox="0 0 512.098 512.098" style="enable-background:new 0 0 512.098 512.098;" xml:space="preserve" width="512" height="512">
<path d="M512.098,95.011c0,11.046-8.954,20-20,20h-55v55c0,11.046-8.954,20-20,20s-20-8.954-20-20v-55h-55c-11.046,0-20-8.954-20-20  s8.954-20,20-20h55v-55c0-11.046,8.954-20,20-20s20,8.954,20,20v55h55C503.144,75.011,512.098,83.965,512.098,95.011z   M406.376,251.714c-0.083-0.065-0.166-0.129-0.25-0.192l-44.925-34.153c-8.791-6.684-21.341-4.976-28.025,3.818  c-6.685,8.793-4.976,21.341,3.818,28.026l44.78,34.042c8.372,6.665,6.156,15.756,5.273,18.393  c-0.873,2.608-4.535,11.107-15.103,11.402h-182.86c-6.442,0-12.49,3.104-16.247,8.337L69.057,465.964  c-6.632,8.163-15.374,6.044-17.917,5.19c-2.556-0.858-10.882-4.477-11.14-15.123V56.588c0.045-9.191,6.414-13.361,9.15-14.727  c2.699-1.349,9.751-3.898,16.998,1.45l184.846,140.522c8.79,6.684,21.339,4.976,28.025-3.817c6.685-8.793,4.976-21.341-3.818-28.026  L90.259,11.395c-0.054-0.041-0.107-0.082-0.161-0.122C72.956-1.487,50.421-3.481,31.284,6.073C12.092,15.653,0.104,34.935,0,56.491  v399.743c0,0.115,0.001,0.23,0.003,0.346c0.419,24.198,15.494,44.804,38.406,52.495c6.043,2.028,12.192,3.013,18.247,3.013  c16.916-0.001,33.089-7.681,44.095-21.714c0.175-0.224,0.345-0.45,0.51-0.68l98.087-136.644h172.83c0.132,0,0.264-0.001,0.396-0.004  c24.126-0.477,44.696-15.668,52.406-38.702C432.711,291.246,425.408,266.662,406.376,251.714z"/>















</svg>
