<?xml version="1.0" encoding="iso-8859-1"?>
<!-- Generator: Adobe Illustrator 19.0.0, SVG Export Plug-In . SVG Version: 6.00 Build 0)  -->
<svg xmlns="http://www.w3.org/2000/svg" xmlns:xlink="http://www.w3.org/1999/xlink" version="1.1" id="Layer_1" x="0px" y="0px" viewBox="0 0 512.098 512.098" style="enable-background:new 0 0 512.098 512.098;" xml:space="preserve" width="512" height="512">
<path d="M492.098,114.972h-150c-11.046,0-20-8.954-20-20s8.954-20,20-20h150c11.046,0,20,8.954,20,20  S503.144,114.972,492.098,114.972z M100.751,490.335c0.175-0.224,0.345-0.45,0.51-0.68l98.087-136.644h172.83  c0.132,0,0.264-0.001,0.395-0.004c24.126-0.477,44.697-15.669,52.407-38.703c7.731-23.098,0.429-47.681-18.604-62.628  c-0.083-0.065-0.166-0.13-0.25-0.193l-44.925-34.152c-8.793-6.684-21.34-4.977-28.025,3.818c-6.685,8.793-4.975,21.341,3.818,28.025  l44.777,34.039c8.376,6.665,6.16,15.758,5.277,18.395c-0.874,2.609-4.536,11.108-15.103,11.403h-182.86  c-6.442,0-12.49,3.104-16.248,8.337L69.055,465.926c-6.63,8.162-15.372,6.043-17.916,5.189c-2.556-0.858-10.882-4.477-11.14-15.123  V56.551c0.044-9.192,6.414-13.362,9.15-14.728c2.7-1.348,9.75-3.896,16.997,1.448l184.847,140.524  c8.792,6.684,21.34,4.976,28.025-3.818c6.685-8.793,4.976-21.341-3.817-28.025L90.26,11.356c-0.054-0.04-0.107-0.081-0.162-0.121  C72.957-1.527,50.419-3.519,31.285,6.034C12.093,15.615,0.105,34.897,0,56.453v399.742c0,0.115,0.001,0.23,0.003,0.346  c0.419,24.198,15.495,44.804,38.407,52.495c6.043,2.028,12.192,3.013,18.247,3.013C73.572,512.048,89.745,504.368,100.751,490.335z"/>















</svg>
