<svg height="512pt" viewBox="-104 0 512 512" width="512pt" xmlns="http://www.w3.org/2000/svg"><path d="m283 512h-75.113281c-41.933594 0-77.214844-11.949219-102.035157-34.5625-27.769531-25.300781-41.851562-62.195312-41.851562-109.65625v-120.78125h-44c-11.046875 0-20-8.953125-20-20v-75c0-9.109375 6.15625-17.070312 14.976562-19.359375 76.714844-19.910156 87.253907-92.238281 88.65625-113.929687.679688-10.523438 9.410157-18.710938 19.957032-18.710938h73.410156c11.046875 0 20 8.953125 20 20v100h66c11.046875 0 20 8.953125 20 20v87c0 11.046875-8.953125 20-20 20h-86c-11.046875 0-20-8.953125-20-20s8.953125-20 20-20h66v-47h-66c-11.046875 0-20-8.953125-20-20v-100h-35.625c-8.433594 50.261719-38.546875 104.144531-101.375 126.742188v40.257812h44c11.046875 0 20 8.953125 20 20v140.78125c0 86.136719 56.492188 104.21875 103.886719 104.21875h55.113281v-53h-17.917969c-43.902343 0-68.082031-25.855469-68.082031-72.800781v-18.199219c0-11.046875 8.953125-20 20-20s20 8.953125 20 20v18.199219c0 30.449219 11.640625 32.800781 28.082031 32.800781h37.917969c11.046875 0 20 8.953125 20 20v93c0 11.046875-8.953125 20-20 20zm0 0"/></svg>