<svg height="511pt" viewBox="0 -71 511.99921 511" width="511pt" xmlns="http://www.w3.org/2000/svg"><path d="m255.980469 370.492188c-.042969 0-.089844 0-.136719 0-15.449219-.105469-152.027344-1.351563-190.722656-11.816407-27.042969-7.269531-48.390625-28.59375-55.679688-55.640625-10.125-38.011718-9.4804685-111.195312-9.410156-117.039062-.0664062-5.816406-.71875-79.605469 9.378906-117.929688.011719-.035156.019532-.074218.03125-.109375 7.207032-26.738281 29.035156-48.722656 55.613282-56.011719.066406-.019531.136718-.035156.203124-.054687 38.257813-10.054687 175.105469-11.285156 190.585938-11.390625h.277344c15.488281.105469 152.429687 1.351562 190.769531 11.832031 26.992187 7.257813 48.339844 28.578125 55.628906 55.625 10.492188 38.277344 9.511719 112.269531 9.410157 118.480469.015624 1.375.066406 6.988281-.023438 15.273438-.121094 10.972656-9.050781 19.785156-19.996094 19.785156-.074218 0-.144531 0-.21875-.003906-11.046875-.117188-19.902344-9.167969-19.785156-20.210938.097656-8.859375.023438-14.574219.023438-14.632812-.003907-.207032 0-.417969 0-.628907.367187-20.445312-.351563-79.636719-8.007813-107.570312-3.617187-13.410157-14.144531-23.921875-27.5-27.511719-28.269531-7.730469-139.691406-10.152344-180.441406-10.4375-40.738281.285156-152.03125 2.644531-180.457031 10.050781-13.097657 3.632813-23.863282 14.519531-27.453126 27.773438-8.890624 33.828125-8.050781 106.679687-8.042968 107.410156v.527344c-.265625 20.203125.667968 78.710937 8.046875 106.421875 3.578125 13.269531 14.105469 23.78125 27.457031 27.375 28.550781 7.722656 139.789062 10.148437 180.445312 10.433594 40.761719-.285157 152.164063-2.644532 180.503907-10.0625 13.324219-3.605469 23.828125-14.105469 27.417969-27.417969 2.875-10.664063 13.851562-16.980469 24.515624-14.101563 10.664063 2.875 16.980469 13.847656 14.105469 24.515625-7.292969 27.042969-28.636719 48.367188-55.710937 55.648438-.035156.007812-.074219.019531-.109375.027343-38.253907 10.054688-175.105469 11.285157-190.582031 11.390626-.042969 0-.089844 0-.136719 0zm-22.640625-110.523438 102.160156-58.972656c5.875-3.394532 9.5-9.6875 9.5-16.5s-3.625-13.105469-9.5-16.5l-102.160156-58.972656c-5.855469-3.378907-13.058594-3.367188-18.898438.035156-5.84375 3.398437-9.441406 9.671875-9.441406 16.460937v117.949219c0 6.789062 3.597656 13.0625 9.441406 16.464844 2.929688 1.707031 6.203125 2.5625 9.476563 2.5625 3.253906 0 6.503906-.84375 9.421875-2.527344zm0 0"/></svg>