<?xml version="1.0" encoding="iso-8859-1"?>
<!-- Generator: Adobe Illustrator 19.0.0, SVG Export Plug-In . SVG Version: 6.00 Build 0)  -->
<svg version="1.1" id="Layer_1" xmlns="http://www.w3.org/2000/svg" xmlns:xlink="http://www.w3.org/1999/xlink" x="0px" y="0px"
	 viewBox="0 0 460.8 460.8" style="enable-background:new 0 0 460.8 460.8;" xml:space="preserve">
<g>
	<g>
		<path d="M307.2,0H102.4C74.122,0,51.2,22.922,51.2,51.2v358.4c0,28.278,22.922,51.2,51.2,51.2h256c28.278,0,51.2-22.922,51.2-51.2
			V102.4L307.2,0z M294.4,41.508l73.692,73.692H307.2c-7.055,0-12.8-5.745-12.8-12.8V41.508z M371.2,409.6
			c0,7.055-5.745,12.8-12.8,12.8h-256c-7.055,0-12.8-5.745-12.8-12.8V51.2c0-7.055,5.745-12.8,12.8-12.8h76.8V64h25.6V38.4H256v64
			c0,28.278,22.922,51.2,51.2,51.2h64V409.6z"/>
	</g>
</g>
<g>
	<g>
		<rect x="179.2" y="89.6" width="25.6" height="25.6"/>
	</g>
</g>
<g>
	<g>
		<rect x="153.6" y="64" width="25.6" height="25.6"/>
	</g>
</g>
<g>
	<g>
		<rect x="153.6" y="115.2" width="25.6" height="25.6"/>
	</g>
</g>
<g>
	<g>
		<rect x="179.2" y="140.8" width="25.6" height="25.6"/>
	</g>
</g>
<g>
	<g>
		<rect x="153.6" y="166.4" width="25.6" height="25.6"/>
	</g>
</g>
<g>
	<g>
		<rect x="153.6" y="217.6" width="51.2" height="76.8"/>
	</g>
</g>
<g>
</g>
<g>
</g>
<g>
</g>
<g>
</g>
<g>
</g>
<g>
</g>
<g>
</g>
<g>
</g>
<g>
</g>
<g>
</g>
<g>
</g>
<g>
</g>
<g>
</g>
<g>
</g>
<g>
</g>
</svg>
