<?xml version="1.0" encoding="iso-8859-1"?>
<!-- Generator: Adobe Illustrator 19.0.0, SVG Export Plug-In . SVG Version: 6.00 Build 0)  -->
<svg version="1.1" id="Capa_1" xmlns="http://www.w3.org/2000/svg" xmlns:xlink="http://www.w3.org/1999/xlink" x="0px" y="0px"
	 viewBox="0 0 512 512" style="enable-background:new 0 0 512 512;" xml:space="preserve">
<g>
	<g>
		<path d="M256,0C114.842,0,0,114.842,0,256s114.842,256,256,256s256-114.842,256-256S397.158,0,256,0z M256,472.916
			c-119.61,0-216.916-97.313-216.916-216.916C39.084,136.39,136.39,39.084,256,39.084c119.603,0,216.916,97.306,216.916,216.916
			S375.603,472.916,256,472.916z"/>
	</g>
</g>
<g>
	<g>
		<path d="M320.625,292.986l-45.083-45.083v-92.87c0-10.794-8.748-19.542-19.542-19.542s-19.542,8.748-19.542,19.542V256
			c0,5.185,2.058,10.149,5.726,13.816l50.809,50.809c3.817,3.817,8.813,5.726,13.816,5.726c4.996,0,9.999-1.909,13.816-5.732
			C328.26,312.991,328.26,300.614,320.625,292.986z"/>
	</g>
</g>
<g>
</g>
<g>
</g>
<g>
</g>
<g>
</g>
<g>
</g>
<g>
</g>
<g>
</g>
<g>
</g>
<g>
</g>
<g>
</g>
<g>
</g>
<g>
</g>
<g>
</g>
<g>
</g>
<g>
</g>
</svg>
