<?xml version="1.0" encoding="iso-8859-1"?>
<!-- Generator: Adobe Illustrator 19.0.0, SVG Export Plug-In . SVG Version: 6.00 Build 0)  -->
<svg version="1.1" id="Layer_1" xmlns="http://www.w3.org/2000/svg" xmlns:xlink="http://www.w3.org/1999/xlink" x="0px" y="0px"
	 viewBox="0 0 512 512" style="enable-background:new 0 0 512 512;" xml:space="preserve">
<g>
	<g>
		<path d="M305.095,4.723c-0.311-0.06-0.621-0.119-0.932-0.179c-3.778-0.719-7.584-1.357-11.418-1.908
			c-0.725-0.104-1.451-0.206-2.177-0.305c-1.018-0.137-2.035-0.274-3.057-0.4c-1.496-0.184-2.995-0.356-4.497-0.514
			c-0.861-0.09-1.725-0.17-2.589-0.251c-1.122-0.107-2.245-0.207-3.37-0.299c-0.778-0.063-1.556-0.126-2.336-0.183
			c-1.745-0.127-3.491-0.241-5.242-0.332c-0.464-0.024-0.93-0.039-1.394-0.061c-1.487-0.069-2.977-0.126-4.468-0.17
			c-0.637-0.019-1.274-0.036-1.912-0.05c-1.726-0.038-3.454-0.062-5.185-0.066C256.344,0.006,256.173,0,256,0
			c-0.236,0-0.47,0.008-0.705,0.009c-1.69,0.005-3.378,0.027-5.064,0.064c-0.749,0.017-1.497,0.041-2.244,0.064
			c-1.223,0.038-2.445,0.084-3.665,0.139c-0.802,0.036-1.605,0.071-2.405,0.114c-1.313,0.072-2.624,0.158-3.934,0.249
			c-1.265,0.088-2.527,0.187-3.786,0.294c-1.078,0.091-2.157,0.182-3.232,0.287c-1.049,0.102-2.094,0.215-3.138,0.33
			c-0.782,0.086-1.564,0.175-2.345,0.268c-1.145,0.136-2.288,0.275-3.429,0.426c-0.483,0.064-0.965,0.136-1.448,0.203
			c-4.319,0.597-8.602,1.302-12.849,2.112c-0.221,0.042-0.441,0.084-0.661,0.127C89.108,27.515,0,131.345,0,256
			c0,141.382,114.618,256,256,256s256-114.618,256-256C512,131.412,422.988,27.625,305.095,4.723z M272.351,133.084
			c1.205,4.129,3.63,7.797,6.957,10.523c16.032,13.138,29.568,28.991,39.956,46.809c2.111,3.621,5.241,6.54,9.001,8.392l3.934,1.939
			c-2.682,10.868,3.713,22.553,15.034,25.643c2.824,3.358,5.666,7.533,9.135,13.281c1.2,1.989,5.334,9.023,5.842,9.876
			c8.938,15.008,15.833,23.794,26.197,30.061c-0.098,2.982-0.944,7.408-2.572,12.929c-1.022,3.465-2.295,7.213-3.943,11.685
			c-0.19,0.516-2.393,6.31-4.186,11.122c-9.378,7.674-16.145,15.888-25.765,29.634c-6.148,8.785-7.076,10.083-9.79,13.543
			c-4.126,5.261-8.177,9.604-12.868,13.641c-6.133,5.269-11.76,9.596-17.251,13.212c16.101-35.42,17.661-61.961-5.128-80.826
			c-19.404-16.073-26.103-37.969-18.548-56.525c6.228-15.187,0.584-31.084-11.562-40.466c-0.069-0.479-0.145-1.024-0.228-1.642
			c-0.727-5.411-0.933-6.8-1.545-9.767c-1.488-7.217-3.834-13.506-7.823-19.36c-1.16-1.703-2.561-3.229-4.159-4.53
			c-1.139-0.932-1.139-0.932-2.592-2.131c-1.475-1.217-1.475-1.217-2.806-2.306c-1.257-1.023-2.626-1.9-4.082-2.614
			c-5.006-2.453-10.133-4.278-15.629-5.674c-4.966-1.261-8.78-1.921-16.628-3.06c-9.982-1.449-13.909-2.257-18.563-4.04
			c-13.107-5.028-26.594-22.949-41.358-53.953c-2.357-4.949-7.651-16.834-12.229-27.116c15.994-9.287,33.086-16.434,50.919-21.273
			c0.167-0.045,0.334-0.091,0.501-0.136c3.057-0.822,6.137-1.573,9.235-2.258c0.456-0.101,0.913-0.201,1.37-0.298
			c1.217-0.261,2.437-0.51,3.66-0.749c0.849-0.166,1.698-0.333,2.551-0.489c0.809-0.148,1.62-0.286,2.431-0.425
			c0.707-0.121,1.414-0.238,2.123-0.352c0.754-0.121,1.508-0.244,2.265-0.357c1.276-0.191,2.556-0.369,3.839-0.537
			c0.68-0.089,1.361-0.171,2.042-0.254c0.933-0.113,1.869-0.22,2.806-0.321c0.592-0.064,1.183-0.132,1.776-0.191
			c1.387-0.138,2.779-0.26,4.173-0.371c0.583-0.047,1.167-0.088,1.751-0.13c1.154-0.082,2.31-0.156,3.469-0.22
			c0.414-0.023,0.827-0.051,1.241-0.072c1.482-0.073,2.969-0.127,4.459-0.169c0.515-0.015,1.031-0.027,1.546-0.038
			c1.396-0.03,2.794-0.05,4.195-0.053c0.169,0,0.337-0.004,0.506-0.004c0.383,0,0.764,0.01,1.146,0.013
			c1.3,0.007,2.599,0.019,3.894,0.049c0.733,0.017,1.464,0.047,2.196,0.072c0.966,0.032,1.933,0.065,2.896,0.11
			c0.806,0.038,1.61,0.085,2.414,0.132c0.88,0.051,1.759,0.105,2.636,0.167c0.843,0.059,1.685,0.124,2.527,0.193
			c0.823,0.068,1.644,0.142,2.464,0.219c0.878,0.083,1.757,0.166,2.633,0.259c0.751,0.08,1.5,0.169,2.249,0.257
			c0.933,0.109,1.867,0.216,2.797,0.337c0.573,0.075,1.142,0.16,1.713,0.24c3.85,0.535,7.676,1.17,11.474,1.911
			c0.315,0.061,0.632,0.119,0.947,0.182c1.21,0.242,2.416,0.499,3.62,0.762c0.366,0.08,0.732,0.157,1.097,0.239
			c1.218,0.272,2.432,0.557,3.643,0.85c0.318,0.077,0.636,0.154,0.954,0.233c1.27,0.314,2.536,0.638,3.799,0.975
			c0.2,0.053,0.399,0.108,0.598,0.162c5.824,1.573,11.571,3.389,17.228,5.45c-19.187,11.306-34.386,25.725-50.735,47.001
			C271.564,111.081,269.276,122.549,272.351,133.084z M256,469.333c-117.818,0-213.333-95.515-213.333-213.333
			c0-63.205,27.498-119.981,71.172-159.046c3.567,7.989,7.09,15.821,9.018,19.872c19.257,40.437,37.892,65.199,64.604,75.447
			c8.533,3.271,14.683,4.535,27.708,6.426c6.404,0.93,9.193,1.412,12.258,2.191c1.917,0.487,3.644,1.041,5.261,1.698
			c0.191,0.631,0.368,1.333,0.543,2.181c0.328,1.593,0.471,2.551,1.046,6.83c1.856,13.818,3.956,21.21,12.134,27.11
			c-10.871,34.936,2.185,72.949,33.279,98.705c0.956,0.791,1.517,4.427-0.592,13.072c-2.522,10.338-8.303,23.282-16.861,38.6
			c-15.061,26.958,11.421,58.493,40.57,48.208c19.423-6.871,35.724-16.829,54.291-32.778c6.954-5.985,12.876-12.333,18.626-19.664
			c3.401-4.336,4.48-5.846,11.172-15.408c8.703-12.435,13.488-17.993,20.99-23.521c3.619-2.714,6.409-6.3,7.989-10.724
			c0.925-2.707,5.532-14.814,6.053-16.226c1.947-5.286,3.507-9.875,4.832-14.372c8.218-27.88,6.935-49.412-15.34-60.981
			c-3.068-1.592-6.565-5.851-12.553-15.905c-0.392-0.658-4.614-7.843-5.969-10.089c-3.85-6.38-7.331-11.603-11.043-16.293
			c5.072-10.349,0.961-23.21-9.75-28.488l-19.381-9.55c-9.703-15.531-21.358-29.767-34.667-42.374
			c17.028-20.48,32.28-30.99,58.741-40.764c55.886,38.466,92.535,102.871,92.535,175.843
			C469.333,373.818,373.818,469.333,256,469.333z"/>
	</g>
</g>
<g>
</g>
<g>
</g>
<g>
</g>
<g>
</g>
<g>
</g>
<g>
</g>
<g>
</g>
<g>
</g>
<g>
</g>
<g>
</g>
<g>
</g>
<g>
</g>
<g>
</g>
<g>
</g>
<g>
</g>
</svg>
