<?xml version="1.0" encoding="iso-8859-1"?>
<!-- Generator: Adobe Illustrator 19.0.0, SVG Export Plug-In . SVG Version: 6.00 Build 0)  -->
<svg version="1.1" id="Layer_1" xmlns="http://www.w3.org/2000/svg" xmlns:xlink="http://www.w3.org/1999/xlink" x="0px" y="0px"
	 viewBox="0 0 460.8 460.8" style="enable-background:new 0 0 460.8 460.8;" xml:space="preserve">
<g>
	<g>
		<path d="M256,76.8l-51.2-51.2H0v409.6h460.8V76.8H256z M38.4,64h150.492l25.6,25.6H38.4V64z M256,384
			c0,6.984-2.76,13.512-7.777,18.376c-5.012,4.864-11.684,7.398-18.621,7.214c-13.676-0.415-24.801-12.61-24.801-27.197v-7.613
			c0-10.563,2.673-21.54,8.177-33.536c3.072-6.697,4.623-13.839,4.623-21.238c0-7.055,5.74-12.8,12.8-12.8s12.8,5.745,12.8,12.8
			c0,7.398,1.557,14.546,4.623,21.238c5.504,11.996,8.177,22.968,8.177,33.536V384z M422.4,396.8H279.936
			c1.06-4.132,1.664-8.412,1.664-12.8v-9.221c0-14.126-3.533-29-10.506-44.206c-1.526-3.323-2.294-6.881-2.294-10.573
			c0-21.176-17.224-38.4-38.4-38.4S192,298.824,192,320c0,3.692-0.768,7.25-2.294,10.573c-6.973,15.206-10.506,30.075-10.506,44.206
			v7.613c0,4.982,0.727,9.81,2.012,14.408H38.4V115.2h192v25.6H256v-25.6h166.4V396.8z"/>
	</g>
</g>
<g>
	<g>
		<rect x="230.4" y="166.4" width="25.6" height="25.6"/>
	</g>
</g>
<g>
	<g>
		<rect x="204.8" y="140.8" width="25.6" height="25.6"/>
	</g>
</g>
<g>
	<g>
		<rect x="204.8" y="192" width="25.6" height="25.6"/>
	</g>
</g>
<g>
	<g>
		<rect x="230.4" y="217.6" width="25.6" height="25.6"/>
	</g>
</g>
<g>
	<g>
		<rect x="204.8" y="243.2" width="25.6" height="25.6"/>
	</g>
</g>
<g>
	<g>
		<path d="M230.4,358.4c-7.071,0-12.8,5.729-12.8,12.8V384c0,7.071,5.729,12.8,12.8,12.8s12.8-5.729,12.8-12.8v-12.8
			C243.2,364.129,237.471,358.4,230.4,358.4z"/>
	</g>
</g>
<g>
</g>
<g>
</g>
<g>
</g>
<g>
</g>
<g>
</g>
<g>
</g>
<g>
</g>
<g>
</g>
<g>
</g>
<g>
</g>
<g>
</g>
<g>
</g>
<g>
</g>
<g>
</g>
<g>
</g>
</svg>
