<?xml version="1.0" encoding="utf-8"?>
<!-- Generator: Adobe Illustrator 23.0.2, SVG Export Plug-In . SVG Version: 6.00 Build 0)  -->
<svg version="1.1" id="Layer_1" xmlns="http://www.w3.org/2000/svg" xmlns:xlink="http://www.w3.org/1999/xlink" x="0px" y="0px"
	 viewBox="0 0 1263.3 1046.4" style="enable-background:new 0 0 1263.3 1046.4;" xml:space="preserve">
<style type="text/css">
	.st0{fill:#F7C5A4;}
	.st1{fill:#4E5983;}
</style>
<g>
	<path class="st0" d="M509.9,577c0,0.2,0,0.4,0,0.6c0,0.1,0,0.1,0,0.2c0,0,0,0,0,0.1s0,0.2-0.1,0.3c0,0.1-0.1,0.3-0.1,0.4
		c0,0.1-0.1,0.3-0.1,0.4c0,0.1-0.1,0.3-0.2,0.4c-0.1,0.2-0.3,0.5-0.5,0.7c-0.3,0.5-0.8,0.9-1.4,1.3c-0.3,0.2-0.6,0.4-0.9,0.6
		c-0.5,0.3-1.1,0.5-1.7,0.7c1.2,2,2.3,3.9,3.4,5.8c0.1,0.1,0.1,0.2,0.2,0.3c0.4,0.7,0.7,1.3,1.1,2c-0.2,0.2-0.3,0.4-0.5,0.5l0,0
		c-0.8-0.2-1.5-0.4-2.4-0.6c-0.1,0-0.2,0-0.3-0.1c-0.3-0.1-0.7-0.2-1-0.3l0,0c-0.5-0.1-1-0.3-1.6-0.4h-0.1c1.1,2.4,1.8,3.9,2.6,5.8
		c-0.6,0-1.2,0.2-1.5,0.2l0,0h-0.1c-0.1,0-0.1,0-0.2-0.1c-1.9-1.5-3.8-3.1-4.4-5.7c-1.5-6.9,0-13.9,7.3-17.5l0,0l0,0
		c0.9,0.9,1.6,1.8,2,2.8l0.1,0.1c0,0.1,0.1,0.2,0.1,0.3c0.1,0.2,0.1,0.4,0.2,0.6C509.8,576.6,509.8,576.8,509.9,577z"/>
	<path class="st0" d="M516.5,589.6c-1.4,2.6-2.8,5.7-1.3,9c0.2,0.3,0,0.8-0.1,1.5c-2.9-1.5-1.6-4.3-2.2-6.3
		c-0.6-2.1-0.1-4.6,0.3-6.9c0.4-2.3,1.1-4.4,1.9-7.5c0.8,1.6,1.5,2.4,1.8,3.4c0,0.1,0.1,0.3,0.1,0.4c0,0.1,0,0.1,0.1,0.2
		C517.7,585.4,517.8,587.3,516.5,589.6z"/>
	<path class="st0" d="M543.4,545.6h-1.6c-0.2,0-0.4,0-0.6,0.1c-0.6,0.1-1.2,0.3-1.7,0.6l0,0h-0.1c-1,0.5-1.8,1.1-2.5,1.8l-0.1,0.1
		l-0.1,0.1l0,0c-0.2,0.2-0.3,0.3-0.5,0.5c-0.1,0.1-0.2,0.2-0.3,0.3c-1.3,1.3-2.6,2-4.1,2.1h-0.6c-0.8,0-1.6-0.2-2.4-0.6
		c-0.4-0.2-0.8-0.3-1.2-0.3h-0.8c-0.7,0.1-1.4,0.3-1.9,0.8c-0.1,0.1-0.2,0.1-0.2,0.2c-0.2,0.2-0.4,0.4-0.6,0.6
		c-0.4,0.4-0.8,0.8-1.2,1.2L522,554l-0.1,0.1c-0.6,0.6-1.1,0.9-1.7,1h-0.4c-0.6,0-1.1-0.3-1.7-0.9c-1-1-2.2-1.9-3.4-2.7
		c-0.9-0.6-1.8-1.1-2.7-1.2c0,0-0.1,0-0.2,0c-0.2,0-0.4,0.1-0.6,0.2c0,0,0,0-0.1,0c-0.9,2.2-1.7,3.9-2.3,5.4c0,0,0,0,0,0.1
		c1.1,1.7,2.5,3.2,3.1,5c0.8,2.2,2,3.8,3.8,5c0.9,0.6,1.6,1.2,3.1,2.1l0,0c0,0,0.1,0,0.1,0.1c-2.2,0.2-3.5,0.3-5.4,0.5h-0.1
		c0,0,0,0-0.1,0c1.1,1.2,1.7,1.9,2.4,2.5c3,2.8,4.8,6.2,5,10.3c0,0.1,0,0.2,0,0.3s0,0.2,0,0.3c0,0.2,0,0.4,0,0.6c0,0.2,0,0.4,0,0.5
		c0,0.5,0.1,0.9,0.1,1.4c0,0.2,0,0.4,0,0.6c0,0.2,0,0.5,0,0.7c0,0.1,0,0.2,0,0.4c0,0.1,0,0.3,0,0.4c0.1,1.9,1.2,2.8,2.7,3.5
		c0.9,0.4,1.7,0.3,2.1-0.3c0,0,0-0.1,0.1-0.1c0-0.1,0.1-0.1,0.1-0.2v-0.1c0.1-0.4,0.2-0.7,0.3-1.1c0,0,0,0,0-0.1
		c0.2-0.6,0.6-1.1,1-1.6l0.1-0.1c1-1,2.4-1.6,3.8-2.4c0.1,0,0.1-0.1,0.2-0.2c0.1-0.1,0.2-0.2,0.3-0.3c0.2-0.2,0.3-0.4,0.4-0.6
		c0.1-0.2,0.1-0.4,0.1-0.5c-0.1-1.2-1.2-1.2-2.1-1c-1,0.2-2,0.5-3,0.6c-0.7,0.1-1.5,0-2.3,0c-0.2-0.7-0.4-1.3-0.4-1.8
		c-0.2-2.8-0.7-5.7-0.4-8.4c0.4-3.5-0.5-6.4-2.9-8.8c-0.1-0.1,0-0.3,0.1-0.9c0,0,0,0,0.1,0c0.9,0.7,1.8,1.1,2.3,1.8
		c1.7,1.8,3.6,2.3,5.9,0.9c1-0.6,2-0.7,3.1,0.1c1.9,1.3,3.6,1.4,5,0.1c0.1,0,0.1-0.1,0.2-0.2l0.1-0.1c0,0,0,0,0-0.1l0,0l0,0l0,0
		v-0.1c0,0,0-0.1,0.1-0.1l0,0l0.1-0.1c0.1-0.1,0.1-0.1,0.1-0.2l0,0c0-0.1,0.1-0.1,0.1-0.2c0,0,0-0.1,0.1-0.1
		c0.8-1.3,1.4-2.8,2.3-4.6h0.2c0.1,0,0.1,0,0.2,0c1.6,0,3.1-0.3,4.5-1c0.1-0.1,0.3-0.1,0.4-0.2c0.1,0,0.2-0.1,0.3-0.2
		c0.3-0.2,0.7-0.4,1-0.6c0.1-0.1,0.2-0.1,0.3-0.2l0,0c0.2-0.2,0.4-0.3,0.7-0.5c0.1,0,0.1-0.1,0.2-0.2c0.2-0.1,0.3-0.2,0.4-0.4
		l0.1-0.1c0.1-0.1,0.1-0.1,0.2-0.2c0.7-0.7,1.2-1.7,1.2-2.5C550.8,550,546.9,546.2,543.4,545.6z M531.6,560.1
		c-0.1,0-0.1,0.1-0.2,0.1c-1,0.5-2.2,0.7-3.3,1c-3.1,0.8-3.9,0.1-4.8-3.7c1.2-0.3,2.4-0.6,3.6-0.9c1.6-0.4,3.3-0.8,4.9-1.3
		c2.7-0.9,5.4-2,8.7-3.1C538.5,556.6,535.2,558.5,531.6,560.1z"/>
	<path class="st0" d="M566.2,905.7v0.8c0,0.1,0,0.2,0,0.3v0.1c0,0.1,0,0.2-0.1,0.3c0,0.2-0.1,0.3-0.2,0.5c0,0.1-0.1,0.1-0.1,0.2
		l-0.2,0.3c-0.1,0.2-0.2,0.4-0.4,0.5c-1.8,2.2-3.7,4.5-6.1,6.1c-3.3,2.3-7,2.2-10.3-0.3c-1.6-1.2-3.1-2.6-4.4-4.1
		c-5.2-6.1-9.7-12.8-13.5-19.9c-0.1-0.2-0.2-0.3-0.3-0.4c0,0,0-0.1-0.1-0.1c-0.1-0.1-0.1-0.2-0.2-0.4c0,0,0-0.1-0.1-0.1
		c0-0.1-0.1-0.1-0.1-0.2c-0.1-0.2-0.3-0.5-0.5-0.8v0.1c0,0.4,0,0.9,0,1.3c0,0.3,0,0.5,0.1,0.8c0,0.3,0.1,0.6,0.1,1
		c0.1,0.5,0.1,1,0.2,1.5c0,0.3,0.1,0.5,0.2,0.8c0.2,0.8,0.3,1.6,0.6,2.4c0,0,0,0,0,0.1c0.1,0.4,0.2,0.8,0.3,1.2s0.2,0.8,0.3,1.2
		c0.3,0.8,0.5,1.6,0.8,2.5c0.2,0.4,0.3,0.9,0.5,1.3c0.3,0.8,0.6,1.6,1,2.5c0.3,0.8,0.6,1.5,1,2.3c1.6,3.8,3.6,7.8,5.9,12.2v0.1
		c-0.3,0.1-0.5,0.1-0.7,0.1s-0.4-0.1-0.6-0.3l0,0c-0.4-0.3-0.7-0.8-1.1-1.1c-5.9-6.2-10.7-13.2-14.3-20.9c-1.6-3.5-3-7.2-4.6-10.8
		c-0.6-1.3-1.4-2.5-2.3-3.6c-2.9-3.4-5.7-6.9-7.4-11.1c-0.9-2.2-2.6-4.1-3.6-6.4c-0.9-1.9-1.3-4-1.9-6c-0.5-1.7-0.8-3.5-1.4-5.1
		c-0.8-2.3-0.5-4.3,1.3-5.8c1.5-1.3,3.2-2.5,5-3.3c5.1-2.1,9.1-5.6,13.1-9.2c0.2-0.2,0.3-0.5,0.5-1.1c-0.1,0-0.1,0-0.2,0l0,0
		c-1.8,0-3.6,0.5-5.1-0.3c-0.4-0.2-0.8-0.5-1.2-1c2.2-5.3,6.3-8.8,11.4-11.1c0.8-0.4,2-0.3,2.8,0.1h0.1c0.8,0.4,1.5,0.8,2.3,1.2
		c0.4,0.2,0.7,0.4,1.1,0.6c0.4,0.2,0.7,0.4,1.1,0.6c0.3,0.2,0.6,0.4,0.9,0.5c2.9,1.8,5.8,3.7,8.3,5.9c0.2,0.2,0.4,0.4,0.6,0.5
		c1.3,1.2,2.5,2.5,3.6,3.9c1.7,2.2,3,4.7,4,7.3c0.4,1,0.6,2,0.6,3c0,0.3,0,0.6,0,0.9c0,0.2,0,0.4,0,0.6c-0.3,2.8-1.9,5.3-3.7,7.7
		c-1.6,2.1-3.8,3.8-5.8,5.5c-3.9,3.4-7.7,6.8-9.5,11.9c-0.4,1.1-0.6,2.1-0.8,3.1c0,0.2,0,0.4-0.1,0.6c0,0.3,0,0.6,0,0.9
		c0,0.2,0,0.3,0,0.5c0.1,0.8,0.3,1.6,0.7,2.3c0.1,0.1,0.1,0.3,0.2,0.4c0,0.1,0.1,0.2,0.1,0.2c0.1,0.1,0.1,0.1,0.2,0.2
		c0.1,0.1,0.1,0.2,0.2,0.3c0.6,0.8,1.4,1.6,2.5,2.3c0.1,0,0.1,0.1,0.2,0.1c1.6-2.3,2.1-4.8,1.8-7.5c-0.2-1.5,0.1-2.5,1.6-3.3
		c7.6-4.2,13.6-10.1,18.9-16.8c0.2-0.3,0.3-0.4,0.6-0.7l0.1-0.1c0.1,0.3,0.3,0.7,0.3,1c0,0.1,0,0.3,0.1,0.4c0,0.3,0,0.5,0,0.8
		c-0.1,2-1,4.6-2.6,7.2c-0.1,0.2-0.2,0.4-0.3,0.6c-0.1,0.2-0.2,0.4-0.4,0.6c-0.2,0.2-0.3,0.5-0.5,0.7c-0.3,0.4-0.6,0.9-0.9,1.3
		c-0.2,0.2-0.4,0.5-0.5,0.7c-0.2,0.3-0.4,0.6-0.6,0.8c-0.4,0.5-0.8,0.9-1.1,1.4c-0.4,0.5-0.8,1-1.3,1.4l-1.4,1.4
		c-0.5,0.5-0.9,0.9-1.4,1.3c-0.5,0.5-1.1,0.9-1.6,1.4c-0.3,0.3-0.7,0.5-1,0.8s-0.7,0.5-1,0.7s-0.6,0.5-0.9,0.7h-0.1
		c0.8,0.7,1.6,1.3,2.5,1.9c0.2,0.2,0.4,0.3,0.6,0.5c0.2,0.2,0.4,0.3,0.6,0.5c0.2,0.2,0.4,0.3,0.6,0.5c0.2,0.2,0.4,0.3,0.5,0.5
		c5.9,6.5,10.8,13.7,15.6,21c0.1,0.2,0.2,0.3,0.3,0.5s0.2,0.3,0.2,0.5c0.1,0.2,0.2,0.4,0.2,0.7C566.1,905.4,566.2,905.5,566.2,905.7
		z"/>
	<path class="st0" d="M799.9,502.6L799.9,502.6c-0.8,2.2-1.3,4-2,5.7c-0.2,0.6-0.7,1.2-0.9,1.8c-1.4,3.2-3.5,5.4-6.7,6.5
		c-0.5,0.2-1,0.3-1.6,0.4c-0.4,0.1-0.7,0.1-1.1,0.2c-0.4,0.1-0.8,0.2-1.3,0.3c-1.5,0.4-3,0.9-4.4,1.5c-0.3,0.1-0.7,0.3-1,0.4
		c-0.4,0.2-0.8,0.4-1.2,0.6c-2.8,1.4-5.4,3.1-7.8,5.1c-0.2,0.1-0.4,0.3-0.7,0.3c-0.3,0.1-0.5,0.2-0.8,0.3c0.2,0.3,0.5,0.6,0.7,0.9
		c0.1,0,0.2,0,0.3,0c2-0.4,4-1.1,6-1.3c0.4,0,0.7-0.1,1.1-0.1c0.3,0,0.5,0,0.8,0c0.4,0,0.9,0,1.3,0h4c-0.4,0.6-0.6,1.1-0.9,1.4
		c-0.1,0.1-0.2,0.3-0.3,0.4c0,0,0,0.1-0.1,0.1c-0.1,0.1-0.1,0.1-0.2,0.2c-0.7,0.8-1.5,1.5-2.2,2.3c-1,1.1-2,2.2-3.1,3.3
		c-0.3,0.3-0.6,0.6-0.9,0.9c-0.5,0.5-1.1,1-1.7,1.5c-0.3,0.3-0.6,0.5-0.8,0.7c-0.3,0.2-0.6,0.5-0.9,0.7c-0.4,0.3-0.9,0.6-1.3,0.9
		c-0.4,0.3-0.9,0.6-1.4,0.9c-0.5,0.3-0.9,0.6-1.4,0.8c-0.5,0.3-1,0.5-1.4,0.8c-2,1-4,1.9-6,2.8c-9.4,4.1-18.4,8.8-26,15.7
		c-0.9,0.8-1.7,1.6-2.2,2.9h0.1c0.1,0,0.2-0.1,0.4-0.1c2.8-0.9,5.5-1.9,8.7-3v0.1c-0.5,1.2-0.5,1.9-0.9,2.3
		c-6.4,7.6-14.4,12.6-24,15.1c-0.4,0.1-0.9,0.3-1.3,0.3h-0.5c-1.8-0.1-2.7-1.1-2.4-3c0.2-1.6,1-3.1,1.6-4.9c0,0,0,0,0-0.1
		c-0.8,0.2-1.4,0.1-1.8,0.4c-8.8,4.5-16.3,10.4-22.2,18.5c-0.6,0.8-1.2,1.6-1.9,2.4c-1.9,2.2-4.2,4.3-6.4,6.4
		c-1.4,1.3-3.3,2.3-5.2,2.9c-1.1,0.4-2.1,0.5-2.9,0.3c-0.1,0-0.2,0-0.3-0.1c-0.2,0-0.4-0.1-0.5-0.2c-0.2-0.1-0.4-0.2-0.6-0.3
		c0,0,0,0-0.1,0l-0.1-0.1c-1.4-1-2-2.9-1.4-5.1c0.1-0.2,0.1-0.4,0.2-0.7c0.6-2.1,1.7-4,2.7-6c0.4-0.8,0.9-1.5,1.6-2.4
		c0.1-0.2,0.3-0.4,0.4-0.5c0.1-0.1,0.1-0.2,0.2-0.3c-3.7,1.8-6.8,3.5-10,4.9c-2.3,1-4.8,1.9-7.2,2.7c-0.7,0.2-1.4,0-2.6,0
		c-0.1,0-0.2,0-0.3,0h-0.4c0.9-1.5,1.3-2.7,2.2-3.4c4.4-4.1,8.9-8.2,13.4-12.2c0.8-0.8,1.8-1.3,2.4-2.5c0-0.1,0.1-0.1,0.1-0.2
		c0,0-0.1,0-0.2,0h-0.4c-0.1,0-0.1,0-0.2,0c-0.2,0-0.4,0-0.5,0.1c-2.1,1-4.2,1.9-6.3,2.6c-0.7,0.2-1.3,0.4-2,0.6
		c-3.7,1.1-7.6,1.9-11.5,2.7c-0.1,0-0.2,0-0.3,0.1c-0.4,0.1-0.8,0.1-1.2,0.2c-0.5,0.1-1.1,0.2-1.6,0.2h-2.8c-0.5,0-1.1-0.1-1.6-0.1
		s-0.9-0.2-1.3-0.3c-0.1,0-0.1,0-0.1-0.1l0,0h-0.1h-0.1l0,0c-1.9-1-2.5-3.3-1.1-5.4c0.5-0.8,1.3-1.5,2.1-2.1
		c1.8-1.2,3.7-2.2,5.6-2.9c0.4-0.2,0.8-0.3,1.3-0.4c0.2-0.1,0.5-0.1,0.7-0.2c1.4-0.4,2.9-0.6,4.4-0.7h4.5c0-0.3,0-0.5,0.1-0.7
		c0,0,0,0,0-0.1l0,0c-4.4-1.9-9-1.7-13.6-1.4c-1.5,0.1-2.9,0.3-4.3,0.7c-0.3,0.1-0.6,0.2-0.8,0.2c-2.6,0.8-5,1.9-7.4,3.4
		c-0.1,0-0.2,0.1-0.2,0.2c-0.1,0.1-0.1,0.1-0.2,0.1c0,0-0.1,0-0.1,0.1l-0.5-0.5c0.7-0.9,1.3-1.9,2-2.8c5.5-6.8,12.3-11,20.2-13
		c0.2-0.1,0.5-0.1,0.7-0.2c3.2-0.8,6.5-1.2,9.9-1.3c4.2-0.2,8.3,0.2,12.3,1l0,0c5.6,1.1,11.1,3.1,16.5,5.5c3.3,1.5,7,2.4,10.5,3.5
		c0.3,0.1,0.6,0.1,0.9,0.1c0.6,0,1.2-0.1,1.8-0.1v-0.1c0-0.2,0.1-0.4,0.1-0.6c-0.2-0.1-0.4-0.2-0.6-0.4c-0.1-0.1-0.3-0.2-0.4-0.2
		c-0.2-0.1-0.4-0.2-0.7-0.3c-0.8-0.3-1.6-0.5-2.4-0.9c0,0,0,0-0.1,0s-0.2-0.1-0.3-0.2c-0.1,0-0.2-0.1-0.3-0.2l0,0
		c-2.9-1.6-3-3.2-0.5-5.7c4.2-4,9.1-7.3,14.2-10.1c0.4-0.3,0.7-0.5,1.1-1.1c0,0,0,0,0-0.1l0,0l0.1-0.1c-0.7,0-1.4-0.3-2.1-0.1
		c-0.8,0.2-1.5,0.3-2.3,0.5c-0.9,0.2-1.8,0.4-2.7,0.6c-1.8,0.4-3.6,0.9-5.3,1.3c-0.1,0-0.3,0.1-0.4,0.1c-4.8,1.3-9.3,3.2-13.3,6.2
		c-0.3,0.2-0.5,0.4-0.8,0.6c-0.2,0.1-0.3,0.2-0.5,0.2c-0.2,0.1-0.4,0.1-0.6,0.1c-0.1,0-0.1,0-0.1,0h-0.1l0,0c-0.1,0-0.1,0-0.2-0.1
		c-0.5-0.2-0.8-0.8-0.9-1.8c-0.2-3.8,1.1-7.1,4.3-9.3c2.4-1.6,5-2.9,7.6-4.2c6.8-3.5,13.8-6.4,21.4-7.6c0.7-0.1,1.4-0.2,2.2-0.2h2.5
		c0.3,0,0.7,0.1,1,0.1c1,0.1,1.9,0.3,2.7,0.7c2,0.8,3.4,2.3,4,4.9c0.1,0.4,0.4,0.7,0.8,1.5c0-0.1,0.1-0.1,0.1-0.2
		c0-0.1,0.1-0.2,0.1-0.2c0.9-1.8,1.4-3.5,2.4-4.9c3-4.7,7.1-8.4,11.7-11.4c7.1-4.5,14.7-8,22.7-10.6c5.2-1.7,10.5-3.1,15.8-4.4
		c2.2-0.5,4.5-0.7,7.1-0.9c0,0,0,0,0.1,0s0.3,0,0.4,0.1l0,0h0.1c0,0,0,0,0.1,0s0,0,0.1,0c0.6,0.1,1,0.1,1.5,0
		C799.5,502.6,799.7,502.6,799.9,502.6z"/>
	<path class="st1" d="M937,1044.1c-2.3-1.3-4.7-2.4-7-3.7c-6.6-3.7-13-7.6-19.7-11c-7.2-3.7-14.4-7.3-20.5-12.7
		c-2.1-1.8-4.3-3.6-6.7-5c-3.3-1.9-7.1-2.2-10.8-2.9c-1.8-0.3-3.3-0.7-4.6-2.2c0.4-1.5,1.2-3.1,1.2-4.7c0.1-5.2,0.7-10.3-0.7-15.4
		c-0.7-2.6-1.2-5.2-1.8-7.8c-1-4.2-1.6-8.6-3.2-12.5c-1.5-3.6-1.5-7.9-4.7-10.8c-0.2-0.2-0.3-0.7-0.2-1c0.5-3.1-1-5.9-1.6-8.8
		c-1.3-6.8-4.9-11.9-11.6-14.7c-3-1.2-5.7-2.9-7.5-6.1c-2.5-4.6-6.3-8.1-10.4-11.3c-1.9-1.5-3.2-3.2-4.3-5.3
		c-1.4-2.8-2.9-5.6-4.7-8.1c-4.1-5.8-9-10.8-14.9-14.8c-2.6-1.8-5.6-3.2-8.5-4.4c-4.1-1.7-8.3-3-12.3-4.4c-0.6-2.1-1.1-4.1-1.6-6.1
		c-1-4.3-1.6-8.7-3-12.9c-1.9-5.4-4.3-10.6-4.3-16.5c0-0.1-0.1-0.2-0.1-0.3c-0.9-5-0.8-10-2.1-14.9c-0.9-3.3-0.9-6.9-1.7-10.2
		c-1-3.9-2.6-7.7-3.6-11.6c-1.8-6.7-4.1-13.3-6.9-19.7c-5.7-13-12.2-25.5-20.6-37c-1-1.5-2.1-3-2.6-4.7c-2.5-7.9-6.1-15.2-10.3-22.3
		c-4.8-8.1-10.1-15.7-16.2-22.9c-2-2.2-4-4.6-4.7-7.6c-0.6-2.3-1-4.7-1.7-7c-1.6-5.2-3.4-10.3-5.1-15.4c-2.6-7.8-5.4-15.6-9.1-23
		c-2-4-5.3-7.5-4.9-12.5c0-0.1-0.2-0.2-0.2-0.3c-0.2-1.5-0.7-3-0.7-4.5c0.1-6.6,1.2-13.2-0.2-19.6c2.1-1.1,4.2-1.9,5.8-3.2
		c4.3-3.7,8.4-7.6,11.7-12.3c0.4-0.6,1-1.2,1.7-1.4c2.3-0.7,4.7-1.2,7.1-1.7c2.2-0.5,4.5-0.8,6.7-1.5c3.4-1.1,6.8-2.3,10.1-3.8
		c3.7-1.7,7.6-3.2,10.7-5.7c5.4-4.3,9.9-9.7,13.2-15.9c0.1-0.3,0.3-0.5,0.4-0.8c-8.7,6.6-18.1,12.3-28.2,17
		c-10,4.7-20.7,8.5-31.8,11.1c-0.1,0-0.1,0-0.2,0c-0.5,0.6-1,1.2-1.5,1.7c-1.6,1.7-3.3,3.3-5,4.9c-1.4,1.3-3.3,2.3-5.2,2.9
		c-1.2,0.4-2.2,0.4-3.1,0.2c-0.1,0-0.2,0-0.3-0.1c-0.5-0.1-1-0.3-1.4-0.6c0,0,0,0-0.1,0l-0.1-0.1c-1.4-1-2-2.9-1.4-5.1
		c0.1-0.2,0.1-0.4,0.2-0.7c0.6-2.1,1.7-4,2.7-6c0.4-0.8,0.9-1.5,1.6-2.4c-3.2,1.6-6,3.1-8.9,4.4c-2.3,1.1-4.8,1.9-7.2,2.7
		c-0.8,0.2-1.7,0-3.3,0c0,0,0-0.1,0.1-0.1h-0.3c0-0.1,0.1-0.1,0.1-0.2h-0.4c0.9-1.5,1.3-2.7,2.2-3.4c4.4-4.1,8.9-8.2,13.4-12.2
		c0.8-0.8,1.8-1.3,2.4-2.5h-0.1c-0.1,0-0.1,0-0.2,0s-0.3,0.1-0.4,0.1c-2.1,1-4.3,1.9-6.4,2.6c-0.7,0.2-1.3,0.4-2,0.6
		c-3.7,1.1-7.6,1.9-11.5,2.7c-0.1,0-0.2,0-0.3,0.1c-0.4,0.1-0.7,0.1-1.1,0.2c-0.6,0.1-1.1,0.2-1.7,0.2h-2.8c-0.5,0-1.1-0.1-1.6-0.1
		c-0.5-0.1-1-0.2-1.5-0.4c0.5,0.3,1,0.4,1.7,0.5c0.5,0,1,0.1,1.5,0.1c-0.5,0-1.1,0-1.6-0.1c-0.1,0-0.3,0-0.4,0
		c-0.2,0-0.4-0.1-0.6-0.1c0,0-0.1,0-0.2,0h-0.1c-0.2-0.1-0.3-0.1-0.4-0.2c-0.1-0.1-0.3-0.1-0.4-0.2h-0.1l0,0c-1.9-1-2.5-3.3-1.1-5.4
		c0.5-0.8,1.3-1.5,2.1-2.1c1.8-1.2,3.7-2.2,5.6-2.9c0.4-0.2,0.8-0.3,1.3-0.4c0.2-0.1,0.5-0.1,0.7-0.2c1.4-0.4,2.9-0.6,4.4-0.7h4.5
		c0-0.3,0-0.5,0.1-0.7c-4.2-1.7-8.7-1.5-13.1-1.2c-1.1,0.1-2.1,0.2-3.2,0.4c1.1-0.3,2.3-0.5,3.5-0.5c1.1-0.1,2.2-0.1,3.3-0.2
		c-1.3,0-2.5,0.1-3.8,0.2c-1.5,0.1-2.9,0.3-4.3,0.7c-0.3,0.1-0.6,0.2-0.8,0.2c-2.7,0.8-5.2,2.1-7.5,3.6l0,0
		c-0.1,0.1-0.2,0.1-0.3,0.2l-0.1-0.1l-0.3-0.3c0,0-0.1,0-0.1,0.1l-0.5-0.5c0.7-0.9,1.3-1.9,2-2.8c5.5-6.8,12.3-11,20.2-13
		c0.2-0.1,0.5-0.1,0.7-0.2c3.2-0.8,6.5-1.2,9.9-1.3c4.2-0.2,8.3,0.2,12.3,1l0,0c5.9,1.1,11.6,3.1,17.3,5.6c3.4,1.5,7,2.4,10.5,3.5
		h0.1c0.6,0,1.2-0.1,1.8-0.1v-0.1c0-0.2,0.1-0.4,0.1-0.6c-0.2-0.1-0.4-0.2-0.6-0.4c-0.2-0.1-0.3-0.2-0.5-0.2
		c-0.9-0.4-1.9-0.6-2.8-1.1c-0.3-0.1-0.5-0.3-0.8-0.5l0,0c-2.9-1.6-3-3.2-0.5-5.7c4.2-4,9.1-7.3,14.2-10.1c0.4-0.3,0.7-0.5,1.1-1.1
		c-0.5-0.1-1-0.2-1.5,0c-0.1,0-0.1,0-0.2,0c-0.7,0.2-1.4,0.3-2.1,0.5c0.7-0.2,1.4-0.4,2.1-0.5c0.2,0,0.4-0.1,0.6-0.1
		c0.2,0,0.4,0,0.5,0c-0.4-0.1-0.7-0.1-1,0c-0.8,0.2-1.5,0.3-2.3,0.5c-0.9,0.2-1.8,0.4-2.7,0.6c-1.8,0.4-3.5,0.9-5.3,1.3
		c-4.8,1.3-9.3,3.2-13.3,6.2c-0.3,0.2-0.5,0.4-0.8,0.6s-0.6,0.3-0.9,0.3c-0.2,0.1-0.4,0.1-0.6,0.1c-0.1,0-0.2,0-0.3,0
		c0.3,0.2,0.6,0.2,1.1,0.1c-0.7,0.3-1.3,0.2-1.6-0.4c-0.5-0.2-0.8-0.8-0.9-1.8c-0.2-3.8,1.1-7.1,4.3-9.3c2.4-1.6,5-2.9,7.6-4.2
		c6.8-3.5,13.8-6.4,21.4-7.6c0.7-0.1,1.4-0.2,2.2-0.2h2.5c0.3,0,0.7,0.1,1,0.1c1,0.1,1.9,0.3,2.7,0.7c2.3,0.8,4,2.3,4.6,5.1
		c0.1,0.3,0.2,0.5,0.4,0.9c0.9-1.8,1.4-3.5,2.4-4.9c3-4.7,7.1-8.4,11.7-11.4c7.1-4.5,14.7-8,22.7-10.6c5.2-1.7,10.5-3.1,15.8-4.4
		c2.2-0.5,4.5-0.7,7.1-0.9c0,0,0,0,0.1,0s0.3,0,0.4,0.1l0,0h0.1c0,0,0,0,0.1,0s0,0,0.1,0c0.6,0.1,1,0.1,1.5,0c0.2,0,0.4,0,0.6-0.1
		l0,0c0.1,0,0.1,0,0.2,0h0.1c-0.8,2.2-1.4,4-2,5.7c-0.2,0.6-0.6,1.2-0.9,1.8c-1.4,3.3-3.5,5.5-6.8,6.5c-0.2,0.1-0.4,0.1-0.6,0.2
		c-0.3,0.1-0.5,0.1-0.8,0.2c-0.4,0.1-0.8,0.2-1.2,0.2c-0.4,0.1-0.8,0.2-1.3,0.3c-1.5,0.4-3,0.9-4.4,1.5c-0.3,0.1-0.7,0.3-1,0.4
		c-0.4,0.2-0.8,0.4-1.2,0.6c-2.7,1.4-5.3,3.1-7.7,5.1c-0.3,0.1-0.5,0.3-0.8,0.3c-0.3,0.1-0.5,0.2-0.8,0.3c0.2,0.3,0.5,0.6,0.7,0.9
		c2-0.4,4-1.1,6-1.3c0.4,0,0.7-0.1,1.1-0.1c0.3,0,0.5,0,0.8,0c0.4,0,0.9,0,1.3,0h4.3c-0.4,0.6-0.6,1.1-0.9,1.4
		c-0.1,0.1-0.2,0.3-0.3,0.4c0,0,0,0.1-0.1,0.1c-0.1,0.1-0.1,0.1-0.2,0.2c-0.7,0.8-1.5,1.5-2.2,2.3c-1,1.1-2,2.2-3.1,3.3
		c-0.3,0.3-0.6,0.6-0.9,0.9c-0.5,0.5-1.1,1-1.7,1.5c-0.3,0.3-0.6,0.5-0.8,0.7c-0.3,0.2-0.6,0.5-0.9,0.7c-0.4,0.3-0.9,0.6-1.3,0.9
		c-0.4,0.3-0.9,0.6-1.4,0.9c-0.5,0.3-0.9,0.6-1.4,0.8c-0.5,0.3-1,0.5-1.4,0.8c-1.9,1-3.9,1.9-5.9,2.8c-9.4,4.1-18.4,8.7-26,15.7
		c-0.8,0.8-1.6,1.5-2.1,2.8c2.8-0.9,5.5-1.9,8.7-3v0.1c0.1,0,0.2-0.1,0.3-0.1h0.1c-0.5,1.3-0.5,2-0.9,2.4
		c-6.4,7.6-14.4,12.6-24,15.1c-0.4,0.1-0.9,0.3-1.3,0.3h-0.9c-1.8-0.1-2.7-1.1-2.4-3c0.2-1.6,1-3.1,1.6-4.9c-0.6,0.1-1,0.2-1.4,0.3
		c-8.8,4.6-16.4,10.5-22.2,18.6c-0.5,0.8-1.1,1.5-1.7,2.2c0.1,0,0.1,0,0.2,0c22.4-5.3,42.7-15,60-28.1c1.9-3.8,4.6-6.3,8.6-7.6
		c0.4-0.1,0.7-0.2,1.1-0.4c0.2-0.1,0.4-0.2,0.6-0.3c1.1-0.5,2.2-1.2,3.4-1.6c3.2-1.1,6.3-2.5,9.3-4.1c2.3-1.3,4.9-2.4,6.6-4.3
		c5.4-5.8,10.5-11.9,15.7-17.9c3.6-4.3,7.6-8.1,12.6-10.8c2.4-1.3,4.1-3.3,3.8-6.7c-0.4-6-2.8-10.7-7.5-14.4
		c-0.6-0.5-1.2-1.1-1.8-1.7c0.1-0.2,0.2-0.4,0.3-0.6c0.7,0.1,1.5,0,2,0.3c5.3,3.5,8.5,8.3,8.9,15.6c0.9-1.5,1.5-2.1,1.8-2.9
		c2.6-6.5,3.8-13.2,4.6-20.1c0.6-5.2-1-10.6-1.7-16c-0.3-1.9-0.6-3.8-1.4-5.5c-1.8-4-3.2-8.2-5.5-12v0.1c0-0.1-0.1-0.1-0.1-0.2
		c-0.5-0.9,0.2-2,0.3-3c0.4-4.8,0.6-9.6,0.6-14.5V179.9c0-91.9-70.4-161.5-163.1-161.5h-16c-92.7,0-163.1,69.6-163.1,161.5v252.7
		c0,29.6,7.3,56.9,20.3,80.2c1.2,2.1,2.3,4.1,3.6,6.1c2.4-3.7,4.6-7.1,6.8-10.6c3.9-6.1,8.9-11,15.2-14.6c1.1-0.7,2.2-1.3,3.6-1.4
		c1.8-0.1,3.4-1,5.2-0.1c0.4,0.3,1.4-0.3,2.1-0.5c3.1-0.7,6.2-1.5,9.4-1.9c2.2-0.2,4.5,0,6.7,0c3.7-0.1,7,1.4,9.8,3.4
		c4.7,3.3,7.9,7.9,9.3,14.1c-2.4-2.3-4.4-4.5-6.7-6.2c-2.5-1.8-5.2-3.3-8.8-3.7c2.6,3.5,5.8,6.3,6.7,10.9c-3.1-1.9-5.6-3.8-8.4-5.3
		c-6.8-3.7-6.9-3.7-8.3-3.1c1.8,1.7,3.8,3.4,5.5,5.4s3.4,4.1,3.7,7.3c-5.4-3.8-5.4-3.8-7-2.9c2.1,2.9,2.6,6.3,1.4,9.5
		c-1.2,3-1.5,6-1.2,9.1c0,0.1-0.4,0.2-0.7,0.4c-0.2-0.4-0.6-0.8-0.8-1.3c-1.2-2.7-1.5-5.6-1.1-8.5c0.6-4.4-1.5-7.6-4.9-10
		c-1.6-1.2-3.2-0.4-3.2,1.6c-0.1,4,0.2,8,2.3,11.6c0.2,0.4,0.2,1,0.4,2.3c-4-2.4-6-5.5-7.9-8.9c-3,2.3-3.3,5.5-4.3,8.4
		c-1.1,3-0.2,6.2,0.1,9.3c-5-4.8-6.8-10.7-6.5-17.9c-0.8,0.4-1.6,0.5-2,0.9c-3.6,4.1-6.4,8.7-6.9,14.4c-0.1,0.4-0.3,0.9-0.5,1.5
		c-0.1,0.3-0.2,0.7-0.3,1c-1.5-1.8-2.4-3.6-3-5.6c-0.5-0.7-0.9-1.3-1.4-2c-0.3-0.5-0.7-1-1-1.5c-0.2,0.3-0.3,0.6-0.5,1
		c-0.3,0.7-0.5,1.4-0.8,2.1c-0.4,1.1-0.8,2.1-1.2,3.2c-1.3,3.9-1.1,8-0.2,11.9c1,4.2,3.4,7.9,5.7,11.6c1.3,2.1,3.2,3.1,5.4,3.9
		c0.8,0.3,1.7,1.1,2,1.9c1.1,2.4,0.2,4.6-1.5,6.4c-2.8,3.1-5.8,6-8.5,9.1c-3.4,3.9-5.4,8.5-4.6,13.8c1,6.9,5.6,11.6,10.2,16.4
		c0.3,0.3,0.7,0.4,1.1,0.7c0.8,0.6,1.6,1.2,2.4,1.8c4.7,3.9,6.6,9.4,8.9,14.7c1.5,3.7,2.8,7.6,5.7,10.5c4.6,4.7,6.8,10.4,7.7,16.7
		c0.6,4.3,1.9,8.3,3.8,12c2.5,4.9,5.5,9.6,8.5,14.3c1.6,2.5,3.5,4.9,5.5,7.1c2.7,2.9,5.2,6,7.3,9.5c2.6,4.4,5.3,8.9,8.5,12.8
		c3.5,4.3,7.8,7.9,10.9,12.6c2.6,3.9,5.2,7.6,4.7,12.8c-0.5,4.9,0.3,9.7,2.4,14.2c-5.8,5.2-11.5,10.1-17.1,15.3
		c-6.1,5.7-12.3,11.5-18.1,17.5c-6,6.2-11.7,12.7-17.2,19.3c-4.4,5.4-8.6,11.1-12.4,17c-3.4,5.3-6.3,11-8.6,16.9
		c-1,2.4-1.2,5.2-3.4,7.1c-2.2,1.8-4.2,4-6.1,6.1c-3.2,3.5-5.4,7.3-4.2,12.4c0.4,1.6,0.1,3.5,0.1,5.5c1.3,1.3,2.7,2.9,4.4,4.2
		c2.1,1.6,1.2,4,1.8,5.9c2.1,6.6,5.4,12.4,10.3,17.3c0.9,0.9,1.7,1.8,2.3,2.9c2.6,5,4.9,10,7.5,14.9c3.2,6,5.4,12.5,10.3,17.5
		c0.5,0.4,0.7,1.4,0.6,2.1c-0.4,4.5,1.8,7.9,4.4,11.2c2.1,2.5,4.2,4.9,6,7.6c4.7,6.7,9.3,13.3,13.7,20.2c3.5,5.6,6.3,11.7,8.1,18.2
		c0.6,2.2,0.7,4.3-0.5,6.5c-1.4,2.6-3.5,4.4-5.8,5.9c-6.1,3.9-13.2,5.5-20,8c-6.6,2.4-13.2,4.7-18.2,10.1c-0.2,0.2-0.5,0.3-0.7,0.4
		c-1-0.3-1.8-0.6-2.6-0.9c-3.1-1.2-6.4-2.1-9.5-3.5c-2.7-1.2-5-1.2-7.6,0.1c-2.1,1.1-4.6,1.4-6.9,2c-0.9,0.3-1.9,0.6-2.9,0.7
		c-2,0.2-4.1,0.7-6,0.4c-2.9-0.5-5.8-1.3-8.5-2.7c-1.7-0.9-3.5-1.9-5.4-2.3c-4.6-0.9-9.2-1.6-13.9-1.5c-5.1,0-10,0.9-14.7,2.6
		c-1.7,0.7-3.1,2.2-5.2,1.8c-2.6-0.4-5.3,0.1-7.8-1.4c-0.7-0.4-1.7-0.2-2.6-0.2c-2.2,3.4-4.3,6.7-6.4,10c-1,1.6-1.9,3.5-3.3,4.5
		c-3.2,2.3-6.8,4.2-10.2,6.2c-7.5,4.5-15,8.9-22.4,13.4c-0.8,0.5-1.3,1.3-2.1,2.2h559.3C938.8,1045.3,937.9,1044.6,937,1044.1z
		 M815.3,475.8c1.2,1.6,1.2,1.6,0.7,9.8c-0.3,4-1.2,7.7-2.6,10.1c-1.5-1.7-2.9-3.3-4.1-4.7c1.4-2.5,3.1-4.7,4.1-7.2
		C814.4,481.2,814.7,478.4,815.3,475.8z M814,909.3c3.1,7.1,2.5,19.4-2.8,24.7c-2.2-1.1-4.5-2.2-6.5-3.1c2.2-3.7,4.5-7,6.1-10.6
		C812.3,916.8,813,913,814,909.3z M789.9,906.6c0.4,1.2,0.6,2.5,0.9,3.8c2.6-0.6,4.1-2.2,6.9-7.7c3.9-0.7,7.8,0.9,9.7,4.2
		c0.6,1,0.9,2.6,0.6,3.8c-1.8,7.5-6.3,12.4-13.6,14.9c-1.6,0.6-3.1,0.1-4.4-0.9c-0.4-0.3-0.9-0.6-1.3-1c-4.6-3.9-5.1-4-10.5-1.1
		c-0.4,0.2-0.8,0.3-1.2,0.5c-0.2-0.1-0.3-0.3-0.5-0.4c5.2-5.7,9.9-11.7,11.5-19.8C789.7,903.7,789.5,905.4,789.9,906.6z
		 M774.3,867.5c0.3-0.1,0.5-0.1,0.8-0.2c0.5,1.8,1.1,3.6,1.6,5.5c1.3,5.2,2.8,10.4,5.5,15c0.7,1.2,0.7,2.2-0.2,3.3
		c-1.1,1.4-2.1,3-3.5,5.1C774.5,886.5,773.2,877.1,774.3,867.5z M777,904.4c2.2-1.2,4.2-2.7,6.3-4.1c1,6.4-6.8,17.8-13.3,18.6
		c-0.1-2-0.2-3.7-0.2-5.7c-3.5-1.4-7.3-1.3-11.2-2c0.5-0.2,1-0.6,1.5-0.7C766,909.3,771.7,907.4,777,904.4z M763.8,837.4
		c1.4,6.9,2.8,14,1.2,21.2c-0.2,1,0.2,2.2,0.6,3.2c2.9,6.6,4,13.6,4.4,20.8c0.3,4.9-2.9,7.4-6,10.1c-0.4,0.3-1.4,0.3-1.9,0.1
		c-2.3-0.9-4.6-2-7.3-3.1c0.7-13,2.3-25.8,1.8-38.6c-0.1-3.3-0.5-6.5-0.8-9.7c-0.2-1.6-0.5-3.1-0.5-4.7c-0.2-8.4-1.8-16.6-4-24.7
		c-0.3-1.2-0.8-2.3-0.8-3.8c0.7,0.8,1.5,1.6,2,2.5C757.5,819,761.8,827.8,763.8,837.4z M737,757.2c7.8,10.8,13.3,22.3,16.7,34.8
		c-0.2,0.1-0.4,0.2-0.6,0.3c-2.1-2.5-4-5-6.1-7.4c-1.6-1.8-3.5-3.4-5.2-5.2c-0.6-0.6-1.3-1.5-1.4-2.4c-0.8-6.4-1.6-12.8-3.7-19
		C736.6,758.2,736.8,757.9,737,757.2z M718.3,730.7c5.2,10.4,9.2,21.3,12.1,32.6c1.4,5.4,2.7,10.8,4,16.2c0.4,2.1,0.7,4.2,1,6.3
		c0.7,4.9,1.5,9.9,2.1,14.9c0.9,7.5,1.6,14.9,2.2,22.4c0.3,3.7,0.5,7.4,0.5,11.1c-0.1,11.9-0.3,23.7-0.6,35.6c0,3-0.6,6-1,9.7
		c-2.3-0.8-4.1-1.1-5.6-2.1c-2.5-1.4-3.6-3.7-3.6-6.7c0.1-12.5,0.2-25.1,0-37.6c-0.2-10.3-0.1-20.8-1.5-31.1c-0.2-1.5,0-2.9-0.1-4.4
		c-0.4-5.5-0.6-11.1-1.1-16.7c-0.8-7.9-1.7-15.7-2.7-23.6c-0.5-3.5-1.3-7.1-2.2-10.5c-1.4-5.4-3.2-10.7-4.8-16c-0.1-0.4,0-0.9-0.1-2
		C717.6,729.8,718.1,730.2,718.3,730.7z M707.4,723.8c0.2,0,0.5-0.1,0.7-0.1c0.2,0.5,0.6,1,0.7,1.5c1.4,7.6,3,15.2,4,22.8
		c0.8,6,1.2,12.1,1.3,18.1c0.2,15,0.2,30,0,45c-0.1,7.4-0.6,14.7-1.2,22.1c-0.6,6.9-1.6,13.7-2.4,20.6c-0.6,4.8-1.2,9.7-1.7,14.6
		c-0.4,3.8-1.1,4.9-4.9,5.6c-1.8,0.4-3.7,0.1-5.8,0.1c1.6-11,3.3-21.7,4.5-32.3c1.3-10.8,2.3-21.6,3.1-32.4
		c0.9-10.8,0.3-21.6,0.8-32.4c-0.3-0.1-0.5-0.1-0.8-0.2c-2.3,3.1-4.5,6.1-6.8,9.2c-0.2-0.1-0.5-0.2-0.7-0.3
		c4.9-9.6,6.3-20.1,7.7-30.5C707.3,744.8,708.6,734.4,707.4,723.8z M656.7,850.7c-1-3.3-2.4-6.5-3.7-9.7s-2.8-6.4-4.3-9.5
		c-1.6-3.3-3.2-6.5-4.9-9.6c-1.6-3.1-3.4-6.1-5.2-9c-1.9-3-3.8-5.9-5.8-8.7s-4.1-5.5-6.3-8.2c-2.2-2.6-4.6-5.1-6.9-7.6
		c0.2-0.1,0.3-0.3,0.5-0.4c7.1,5.6,13.8,11.6,20.2,18.3c12.7,13.8,22.6,29.4,29.6,46.8c1.7,4.2,3,8.6,4.6,12.9
		c0.6,1.5,0.1,2.3-0.8,3.3c-3.8,4.2-8.7,5.6-14.2,5.3c-1.3-0.1-2.5-0.4-3.7-0.4c-1.9,0-2.8-1-3.1-2.8c-0.6-3.4-1.2-6.8-1.9-10.2
		c-1.2-5.8-2.5-11.5-5.8-16.6c-0.1-0.1-0.1-0.4-0.2-1c2.4,1.2,3.7,3.3,5.3,4.9c1.8,1.8,3.5,3.8,5.1,5.8c1.5,1.9,2.8,4,4.4,5.9
		C659.5,856.7,657.6,853.9,656.7,850.7z M617.7,807.3c0.4,0.5,0.8,0.8,1.1,1.3c5.4,9.7,8.7,20.3,11,31.1c1.9,9.1,2.8,18.3,3,27.6
		c0.1,2.1-0.3,2.5-2.4,2.8c-3.9,0.6-7.9-0.7-11.4-3.8C622,846.7,621.9,827,617.7,807.3z M649.6,802.2c0.6-0.2,1-0.5,1.5-0.5
		c5.3-0.6,9.3-2.9,10.6-8.5c0.1-0.3,0.4-0.5,0.8-1c2.5,3.6,2.1,9.2-0.7,11.4S653.9,806.6,649.6,802.2z M670.2,826.9
		c-1.2-1.9-2.2-3.3-3.2-4.8c-0.9-1.4-1.8-2.8-2.8-4.4c13.7-18.7,19.8-40.5,24.9-62.8c-8.9,13.5-22,22.5-34.4,32.5
		c-4.5-2.7-8.9-5.3-13.8-8.2c1.6-0.7,2.6-1.2,3.7-1.7c9.4-4,18.2-9.1,26-15.7c6.9-5.7,12.2-12.7,16.5-20.5c0.1-0.1,0-0.4-0.1-0.7
		c-0.3,0.1-0.6,0.1-0.8,0.3c-9.9,9.1-21.2,15.9-33.5,21.3c-1.8,0.7-3.7,1.1-5.5,1.5c-0.7,0.1-1.5-0.1-2.2-0.4
		c-4.7-1.8-8.9-6-11.3-11.1c25.6-3.1,47-14.6,65.5-32.9c1.3,18.8-1.2,36.6-5.9,54.1C688.5,792.3,681.1,810.2,670.2,826.9z
		 M647.9,721.8c2,0.2,3.9,0.5,5.9,0.7c7.1,0.8,14,0.1,20.9-1.6c1.3-0.3,2.5-0.5,3.8,0.3c1.1,0.7,2.4,0.9,3.7,1.3
		C678.3,729.7,655.4,729.8,647.9,721.8z M699.3,698c1.2,0.2,2.5,0.3,3.7,0.7c1.9,0.6,2.3,1.9,1.4,3.6c-1.1,2.1-5.7,5.7-8.2,6.5
		C697.3,705.3,698.3,701.8,699.3,698z M692.6,693.7c0,1,0.1,1.7-0.1,2.2c-3.8,9.8-10.5,16.3-20.8,19.1c-7.1,2-14.2,1.1-21.3,1.2
		c-0.4,0-0.7-0.2-1-0.3c0,0,0-0.2-0.1-0.7C665.6,712.3,680.6,706.4,692.6,693.7z M668.6,631.3c0.8-3.9,2.1-7.5,4.2-10.9
		c2-3.1,3.5-6.5,5.6-10.4c1.2,6.6,1.3,12.6-1.5,18.7h-2.2c-1.5,3.3-2,7.3-5.9,9.5C668,635.6,668.2,633.4,668.6,631.3z M670.4,648.9
		c4,0.7,6.1,5,4.2,8.3c-1.3,2.4-3.3,4.3-6.4,6.2C670.6,658.3,674.6,654.2,670.4,648.9z M684.2,674.4c5.1,7.1,2.9,14.8-4.7,17.4
		c-2.8,1-5.8,1.3-8.9,0.7c-1.9-0.4-3.9-0.6-5.9-1.3C672.6,687.2,679.5,682.4,684.2,674.4z M665.6,576c-3.8,1.1-7.6,1.9-11.5,2.7
		C657.9,577.9,661.7,577.1,665.6,576z M662.4,655.4c-0.8,4.3-2.5,8.2-5.1,12.3c2.2-0.1,3.9-0.2,6.1-0.3c-1.3,2.7-2.9,4.3-4.7,5.8
		c-5.1,4.2-11.1,6.5-17.5,8c-1.7,0.3-3.4,0.7-5.2,0.8C646.4,674.7,655.3,666,662.4,655.4z M720.3,347.5L720.3,347.5
		c-0.2-0.1-0.4-0.2-0.5-0.4L720.3,347.5z M635.1,114.4h12.8c37.6,0,64,28,64,65.5v252.7c0,21.9-8.9,40.5-23.8,52.2
		c-10.7,8.4-24.4,13.3-40.1,13.3h-12.8c-37.6,0-64-28-64-65.5V179.9h-0.1C571.1,142.3,597.5,114.4,635.1,114.4z M624.7,571.5
		c-9.1,0.5-17.5,1.8-25,6.4c-0.2-0.2-0.5-0.3-0.7-0.5c0.4-2.3,0.6-4.8,1.1-7.2c0.4-1.6,1.7-2.8,3.4-2.8c4.3-0.1,8.6-0.3,12.9,0.1
		c2.2,0.2,4.4,1.4,6.6,2.3C623.5,570,623.9,570.6,624.7,571.5z M579.2,569.7c-0.8-0.7-1.9-1.1-2.8-1.7c-1.1-0.7-2.3-1.3-3.3-2.2
		c-1.2-1.1-0.7-2.6,0.9-3c5-1.1,11.1,3.7,11.2,8.9c0,1.2,0.1,2.3-0.1,3.4c-0.4,2.9-2.9,4.5-5.6,3.6c-1.3-0.4-2.4-1.3-3.6-2
		c0.1-0.2,0.1-0.5,0.2-0.8c0.9-0.3,1.9-0.6,2.7-1.3C581,573.2,581.2,571.4,579.2,569.7z M579.4,549.5c0.4,0.2,0.6,0.6,1.1,1.2
		c-3.5,0.8-4.8-1.3-6-3.2c-0.5-0.8-0.8-1.8-1-2.8c-0.4-1.8-1.2-3.1-3-3.6c-0.4-0.2-0.9-0.4-1.1-0.7c-0.4-0.6-1-1.5-0.8-2
		s1-1.1,1.7-1.3c1.9-0.5,4.9,1,5.8,3c0.5,1.1,0.9,2.3,0.8,3.5C576.7,546.1,577.5,548,579.4,549.5z M565.3,520.7
		c1.4-0.1,2.5-0.9,2.6-2.2c0.1-1-0.4-2.1-0.9-3c-0.5-0.7-1.5-1-2.1-1.6c-0.3-0.4-0.7-1.4-0.5-1.7c0.4-0.5,1.3-1,1.9-0.9
		c2.5,0.6,4.5,2.3,5.2,4.7c0.5,1.8,0.4,4,0,5.9c-0.5,2.2-2.5,3.3-4.6,2.8c-2.2-0.6-3.8-1.9-5.3-4.5
		C563.4,520.5,564.3,520.7,565.3,520.7z M563.4,575.2c1.8-0.8,3.2,0.2,4.5,1.3c2.2,1.9,3.9,4.2,5.1,6.8c0.4,0.9,0.8,1.9,1.1,2.9
		c0,0.1,0.1,0.3,0.1,0.4c1,3.8,1.1,7.9,1.5,11.9c0,0.3-0.3,0.6-0.6,1.2c-1.4-3.3-2.7-6.2-3.9-9c-0.3,0-0.5,0.1-0.8,0.1
		c-1,3.3-0.1,7.3-3.6,10.4c-0.1-7.8-1-14.8-6-20.3c-0.5-0.6-1.1-1.2-1.8-1.8c0.2-0.5,0.5-1,0.9-1.4
		C560.8,576.6,562.1,575.9,563.4,575.2z M552.8,596.1c0-0.7-0.2-1.3-0.5-2.3c2.7,1,3.8,3.1,5.1,4.9c3.2,4.2,3,7.3-0.4,11.4
		c-2.6,3.1-7.2,2.9-9.4-0.4c-0.9-1.3-1.4-2.7-2.1-4c0.1-0.2,0.3-0.4,0.5-0.6c0.9,0.3,1.8,0.6,2.7,1c2.7,0.9,4.6,0,4.8-2.8
		C553.7,600.9,553.1,598.5,552.8,596.1z M560.4,557.9c0.2,0.7,0.3,1.4,0.1,2c-1.4,5.5-3.1,10.8-8.4,13.8c-0.3,0.2-0.6,0.3-0.9,0.5
		c-0.7,0.3-1.5,0.5-2.3,0.7c-3.6,0.5-8.4-0.6-10.3-3.1c0.6-0.3,1.1-0.7,1.7-0.9c0.4-0.2,0.8-0.3,1.2-0.4c0.6-0.2,1.3-0.5,1.9-0.8
		c0.3-0.2,0.6-0.3,1-0.5c3-1.5,6-3,8.8-4.8c2.1-1.4,2.5-3.8,2.2-6.3c-0.1-1-0.2-2-0.4-3.7c2,0.9,3.4,1.5,4.7,2.1
		C560.1,556.7,560.3,557.4,560.4,557.9z M541.1,614.5c-7.4-2.5-12.2-7.7-15.3-15.2c2-0.4,3.8-0.9,5.6-1c0.6-0.1,1.6,0.9,1.8,1.6
		C534.7,605.4,537.3,610.2,541.1,614.5z M549.7,523.5c0.4-0.5,1.4-1,1.9-0.9s1.1,1.3,1,1.8c-0.6,2.5,0.9,3.5,2.8,4.6
		c3.8,2.2,4.8,5.6,2.8,10.6c-0.4-1.2-0.7-1.8-1-2.3c-0.7-2.7-2.5-4.4-4.9-5.6c-2.3-1.2-3.8-3-3.6-5.8
		C548.8,525,549.2,524.1,549.7,523.5z M509.9,577.6c0,0.1,0,0.1,0,0.2c0,0,0,0,0,0.1s0,0.2-0.1,0.3c0,0.1-0.1,0.3-0.1,0.4
		c0,0.1-0.1,0.3-0.1,0.4c0,0.1-0.1,0.3-0.2,0.4c-0.1,0.3-0.3,0.5-0.5,0.7c-0.3,0.5-0.8,0.9-1.4,1.3c-0.3,0.2-0.6,0.4-0.9,0.6
		c-0.5,0.3-1.1,0.5-1.7,0.7c1.2,2,2.3,3.9,3.4,5.8c0.1,0.1,0.1,0.2,0.2,0.3c0.4,0.7,0.8,1.3,1.2,2c-0.2,0.1-0.3,0.3-0.5,0.5
		c0,0,0,0-0.1,0c-0.8-0.2-1.5-0.4-2.4-0.6c-0.1,0-0.2,0-0.3-0.1c-0.3-0.1-0.7-0.2-1-0.3l0,0c-0.5-0.1-1-0.3-1.6-0.4
		c1.1,2.4,1.8,3.9,2.6,5.8c-0.6,0.1-1.4,0.3-1.7,0.2c-0.1,0-0.1,0-0.2-0.1c-1.9-1.5-3.8-3.1-4.4-5.7c-1.5-6.9,0-13.9,7.3-17.5
		c0,0,0,0,0.1,0c0.9,0.9,1.6,1.8,1.9,2.8l0.1,0.1c0,0.1,0.1,0.2,0.1,0.3c0.1,0.2,0.1,0.4,0.2,0.6c0.1,0.3,0.1,0.5,0.2,0.7
		C509.9,577.2,509.9,577.4,509.9,577.6z M507.6,587.1c-0.9-1.5-1.7-2.9-2.6-4.4C505.9,584.2,506.7,585.6,507.6,587.1z M516.5,589.6
		c-1.4,2.6-2.8,5.7-1.3,9c0.2,0.3,0,0.8-0.1,1.5c-2.9-1.5-1.6-4.3-2.2-6.3c-0.6-2.1-0.1-4.6,0.3-6.9c0.3-2.3,1.1-4.5,1.9-7.6
		c0.9,1.6,1.5,2.5,1.8,3.4c0,0.2,0.1,0.3,0.1,0.5c0,0.1,0,0.1,0.1,0.2C517.7,585.4,517.8,587.3,516.5,589.6z M523.7,590.2
		c-1.5-0.7-2.6-1.6-2.7-3.5c0-0.1,0-0.3,0-0.4c0-0.1,0-0.3,0-0.4c0-0.2,0-0.5,0-0.7s0-0.4,0-0.6c0-0.5-0.1-0.9-0.1-1.4
		c0-0.2,0-0.3,0-0.5s0-0.4,0-0.6c0-0.1,0-0.2,0-0.3s0-0.2,0-0.3c-0.2-4.1-2-7.5-5-10.3c-0.7-0.6-1.3-1.3-2.4-2.5h0.1
		c0,0,0-0.1-0.1-0.1c2-0.2,3.3-0.3,5.5-0.5c-1.4-1-2.2-1.5-3.1-2.1c-1.8-1.2-3-2.8-3.8-5c-0.6-1.8-2-3.3-3.1-5c0,0,0,0,0-0.1l0,0
		c0.6-1.5,1.4-3.3,2.3-5.5c0.2-0.1,0.5-0.2,0.7-0.2c0.1,0,0.1,0,0.2,0c0.9,0,1.9,0.6,2.8,1.2c1.2,0.8,2.3,1.7,3.4,2.7
		c0.6,0.5,1.1,0.8,1.6,0.9h0.4c0.3-0.1,0.6-0.2,0.9-0.3c0.3-0.2,0.5-0.4,0.8-0.7l2.1-2.1c0.1-0.1,0.2-0.2,0.3-0.3s0.2-0.2,0.3-0.3
		s0.2-0.2,0.3-0.3s0.2-0.1,0.3-0.2c0.3-0.2,0.5-0.3,0.8-0.4h0.1h0.1c0.1,0,0.1,0,0.2,0c0.1,0,0.3,0,0.4-0.1h0.8
		c0.4,0,0.8,0.1,1.3,0.3c0.8,0.4,1.6,0.5,2.3,0.6h0.6c0.5,0,0.9-0.1,1.4-0.3c0.2-0.1,0.5-0.2,0.7-0.3c0.1,0,0.2-0.1,0.3-0.2
		c0.1,0,0.2-0.1,0.3-0.2c0.8-0.5,1.5-1.2,2.3-2c0.5-0.5,1-1,1.7-1.4c0.2-0.1,0.4-0.3,0.6-0.4c0.1-0.1,0.2-0.1,0.4-0.2
		c0.6-0.3,1.2-0.5,1.9-0.7c0.2-0.1,0.4-0.1,0.6-0.1h1.6c3.6,0.6,7.5,4.4,7.5,7.8c0,0.8-0.6,1.9-1.3,2.5c-0.1,0.1-0.1,0.1-0.2,0.2
		l-0.1,0.1c-0.1,0.1-0.3,0.2-0.4,0.3l0,0c-0.8,0.6-1.6,1.1-2.4,1.5c-0.1,0.1-0.2,0.1-0.3,0.2c-0.1,0.1-0.3,0.1-0.4,0.2
		c-1.4,0.6-2.9,1-4.5,1c-0.1,0-0.1,0-0.2,0c-0.9,1.8-1.5,3.3-2.4,4.5c0,0,0,0-0.1,0.1c-0.1,0.2-0.2,0.4-0.4,0.6
		c-0.1,0.1-0.1,0.2-0.2,0.3l0,0l-0.1,0.1l-0.1,0.1c-0.1,0.1-0.1,0.1-0.2,0.2c-1.5,1.3-3.1,1.3-5-0.1c-1.1-0.8-2.1-0.7-3.1-0.1
		c-2.3,1.4-4.2,0.9-5.9-0.9c-0.6-0.7-1.5-1.1-2.3-1.8c-0.1,0.2,0,0.4,0,0.5c2.4,2.5,3.3,5.3,2.9,8.8c-0.3,2.8,0.2,5.6,0.4,8.4
		c0,0.6,0.2,1.1,0.4,1.8c0.8,0,1.6,0.1,2.3,0c1-0.1,2-0.4,3-0.6c0.9-0.2,2-0.2,2.1,1c0,0.3,0,0.6-0.2,0.8c-0.1,0.2-0.3,0.5-0.5,0.7
		c-0.1,0.1-0.2,0.2-0.3,0.3s-0.2,0.1-0.2,0.2c-1.4,0.8-2.8,1.4-3.8,2.4l-0.1,0.1c-0.3,0.4-0.7,0.9-0.9,1.5c0,0,0,0,0,0.1
		c-0.1,0.2-0.1,0.5-0.2,0.8c0,0.2-0.1,0.3-0.1,0.4c0,0.1-0.1,0.2-0.2,0.3c0,0,0,0-0.1,0.1C525.4,590.5,524.6,590.6,523.7,590.2z
		 M525.8,609.4c0.7,0.7,1.3,1.4,2,2.1c4.6,4.7,9.8,8.5,16.2,10.3c5.6,1.6,11.1,1.1,16.4-1.1c6.1-2.5,11-6.6,15-11.6
		c2.4-3,4.5-6.3,6.6-9.4c2.3,4.1,2.8,15.6,0.8,27.8c1.2-1.2,2-2,2.8-2.9c8.4-8.7,17.5-16.4,28.7-21.2c7.5-3.2,15.3-4.7,23.5-2.8
		c2.9,0.7,3.4,1.1,3,4.1c-0.2,1.7-0.9,3.5-1.7,5c-2.4,4.3-4.9,8.6-8.4,12.1c-0.1,0.2-0.2,0.5-0.4,1.2c0.8-0.2,1.4-0.2,1.8-0.5
		c3.6-2.8,7.8-4.3,12-5.8c1.8-0.6,3.7-0.8,5.6-0.8c2.8,0,4,1.1,4,3.9c0.1,4.6,0.2,9.2-0.5,13.7c-1.3,9.2-3.9,18.1-8.2,26.4
		c-2.2,4-4.7,7.8-8,11.1c-8.4,8.2-20.1,7.8-28.7,2.1c-3.4-2.3-4.6-6.9-3.3-11.2c1.4-4.8,4.2-8.9,7.8-12.3c0.6-0.6,1.3-1.2,1.9-1.8
		c-0.1-0.2-0.2-0.5-0.3-0.7c-7.7,2.7-15.1,5.8-21.8,10.1c-0.4-2.2,0.9-7.1,3.1-10.3c2-3,4.2-5.9,6.7-8.4s5.7-4.4,8.5-6.8
		c-3.3,0.4-6.7,0.8-9.8,2.3c-2.6,1.3-5.2,3-7.7,4.6c-3.3,2.1-6.4,4.2-10.2,5.1c-4,1-7.4,0-10.3-2.6c-2.2-1.9-4.4-3.9-5.3-6.8
		c-0.1-0.3-0.3-0.6-0.8-0.8c-1.3,3,0,6.1-0.7,9.4c-5.4-4.4-10.9-8.3-15-13.9c-0.2,0.1-0.5,0.3-0.7,0.4c0.4,2.8,0.9,5.5,1.4,8.9
		C539.2,631.6,530.4,622.4,525.8,609.4z M568.1,696.6c-1.4-2.4-2.5-4.9-3.8-7.3c0.1-0.2,0.3-0.4,0.5-0.6c3.5,1.3,7.1,2.6,10.6,3.9
		c0.1-0.2,0.3-0.5,0.4-0.7c-9.5-9.4-19.1-18.8-29.9-27.2c1.2,0.4,2.3,0.7,3.4,1.1c1.1,0.4,2.3,0.8,3.4,1.3c1.2,0.5,2.3,1.3,3.9,2.2
		c-0.3-2.8-2.5-3.9-3.3-5.7c-0.9-2-2.1-3.7-3.1-5.6c-1-2-1.9-4-2.7-6.1c-0.8-2-1.5-4-2.2-6c-0.8-1.9-1.5-3.9-2.2-5.8
		c0.3-0.1,0.5-0.2,0.7-0.3c1,1.8,2.1,3.5,3,5.3c6.3,12.1,14.3,22.9,24.5,32.1c3.4,3.1,7.4,5.6,11.4,8.2c-0.5-2.7-3.1-3.9-4-6.1
		c-0.9-2.2-3.1-3.8-2.9-6.9c7.8,6,16.1,10.6,24.8,14.4c8.6,3.7,17.4,6.7,26.9,7.2c0,0.2-0.1,0.5-0.1,0.8c-0.6,0.2-1.3,0.6-2,0.6
		c-3.2-0.1-6.5-0.3-9.7-0.5c-1.3-0.1-2.5-0.2-3.9,0.1c6.9,3.4,13.9,6.2,21.5,7.1c-6.5,2.6-33.3-0.2-48.7-10.5
		c3.1,5.3,6.1,9.9,6.9,15.7c-3.4-0.2-5.4-2.6-7.9-3.8c-2.6-1.2-5.1-2.8-7.7-4.2c-0.1,0.2-0.3,0.6-0.2,0.8
		c3.1,5.4,6.8,10.4,12.8,12.8c2.4,1,4.9,1.6,7.4,2.1c4.9,1,9.9,1.6,14.8,2.7c4.9,1.1,9.2,3.3,12.4,7.5c1.4,1.8,3.1,3.6,4.9,5
		c1.5,1.2,3.4,1.9,5.2,2.8c0.4,0.2,0.7,0.4,1.8,1c-3,0.4-5.2,0.9-7.6,1.1c-16.5,0.1-31.4-4.1-42.7-17.1
		C578.8,711.2,572.8,704.4,568.1,696.6z M606.6,762.1c-5.3-5.2-11.2-8.2-17.3-10.8c1.6-2.9,3.1-5.8,4.7-8.8
		C597.9,743,605.7,755.1,606.6,762.1z M549,792.1c6.6-3.6,13.6-5.3,21.3-4.4c4.8,0.6,9,2.6,13.5,4c2.8,0.9,5.5,1.2,8.3,1
		c4-0.3,6.5-3,6.6-7v-2.3c2.6,2.5,3.6,5,4.1,7.8c0.7,4-1.2,6.9-4.3,9.2c-3.6,2.6-7.7,3.9-12.1,4.3c-9.1,0.9-18.1-0.2-27-2.2
		c-3.5-0.8-7-1.1-10.5,0.5c-2.6,1.2-4.4,3-5.4,5.8c2,2.1,4.7,2.2,7.3,2.8c9.1,2,18.3,1.3,27.4,1c6.5-0.3,12.9-1.7,18.9-4.2
		c2.3-1,4.4-2.5,7-4.1c-0.2,3.9-1.2,7.1-3.1,9.9c-3.8,5.5-9.3,8.3-15.7,9.4c-1.8,0.3-3.6,0.4-5.3,0.8c-4.4,0.9-8.7,0.5-13-0.3
		c-1-0.2-2-0.3-3.1,0c12.1,5.5,24.3,9.6,37.7,3.8c-0.7,3.1-4.3,6.5-9.1,8.7c-3.9,1.8-7.9,3-12.9,1.9c4.2,3.9,7.9,4.5,21.5,4.3
		c1,4.1-1.1,7.4-5.1,8c-5.1,0.8-9.6-1-13.6-3.7c-7-4.7-13.7-9.7-20.5-14.6c-8.4-6.1-16.6-12.6-26.5-16.2c-2.2-0.8-4.4-1.5-6.9-2.3
		C534,805.1,540.1,797.3,549,792.1z M523.7,897.5c-1.6-3.6-3-7.2-4.6-10.8c-0.6-1.3-1.4-2.5-2.3-3.6c-2.9-3.4-5.7-6.8-7.4-11.1
		c-0.9-2.3-2.6-4.2-3.6-6.4c-0.9-2-1.3-4.1-1.9-6.1c-0.5-1.7-0.8-3.4-1.4-5.1c-0.9-2.3-0.5-4.3,1.3-5.8c1.5-1.3,3.2-2.6,5-3.3
		c5.1-2,9.1-5.6,13.1-9.2c0.2-0.2,0.3-0.5,0.5-0.9c-1.8,0-3.6,0.5-5.1-0.3c-0.4-0.2-0.8-0.5-1.2-1l-0.2-0.2
		c2.2-5.3,6.3-8.8,11.4-11.1c0.8-0.3,2.1-0.3,2.9,0.1c0,0,0.1,0,0.1,0.1h0.1c0.8,0.4,1.5,0.8,2.3,1.2c0.4,0.2,0.7,0.4,1.1,0.6
		s0.7,0.4,1.1,0.6c0.3,0.2,0.6,0.4,0.9,0.5c1.2,0.7,2.3,1.4,3.5,2.2c3.4,2.3,6.5,4.9,9,8.2c1.7,2.2,3,4.7,4,7.3
		c0.4,1,0.6,2.1,0.6,3.1c0,0.3,0,0.6,0,0.9c0,0.2,0,0.4,0,0.6c-0.3,2.8-1.9,5.3-3.7,7.7c-1.6,2.1-3.8,3.8-5.8,5.5
		c-3.9,3.4-7.7,6.8-9.5,11.9c-0.4,1.1-0.6,2.1-0.8,3.1c0,0.2,0,0.4-0.1,0.6c0,0.3,0,0.6,0,0.9c0,0.2,0,0.3,0,0.5
		c0.3,2.2,1.5,4.1,3.9,5.6c1.6-2.3,2.1-4.8,1.8-7.5c-0.1-1.5,0.1-2.5,1.6-3.3c7.5-4.2,13.5-10.1,18.9-16.8c0.3-0.2,0.5-0.5,0.7-0.8
		c0,0.1,0.1,0.1,0.1,0.2l0.1-0.1c0.2,0.3,0.3,0.7,0.3,1.1c0,0.1,0,0.3,0.1,0.4c0,0.3,0,0.5,0,0.8c-0.1,2-1,4.6-2.6,7.2
		c-0.1,0.2-0.2,0.4-0.3,0.6c-0.1,0.2-0.2,0.4-0.4,0.6c-0.2,0.2-0.3,0.5-0.5,0.7c-0.3,0.4-0.6,0.9-0.9,1.3c-0.2,0.2-0.4,0.5-0.5,0.7
		c-0.2,0.3-0.4,0.6-0.6,0.8c-0.4,0.5-0.8,0.9-1.1,1.4c-0.4,0.5-0.8,1-1.3,1.4l-1.4,1.4c-0.5,0.5-0.9,0.9-1.4,1.3
		c-0.5,0.5-1.1,0.9-1.6,1.4c-0.3,0.3-0.7,0.5-1,0.8s-0.7,0.5-1,0.7s-0.6,0.5-0.9,0.7c0.8,0.6,1.6,1.2,2.4,1.8
		c0.2,0.1,0.4,0.3,0.6,0.5s0.4,0.3,0.6,0.5c0.2,0.2,0.4,0.3,0.6,0.5s0.4,0.3,0.5,0.5c5.9,6.5,10.8,13.7,15.6,21
		c0.1,0.2,0.2,0.3,0.3,0.5s0.2,0.3,0.2,0.5c0.1,0.2,0.2,0.4,0.2,0.7c0,0.2,0.1,0.3,0.1,0.5v0.9c0,0.1,0,0.2,0,0.3v0.1
		c0,0.3-0.1,0.6-0.3,0.8c0,0.1-0.1,0.1-0.1,0.2l-0.2,0.3c-0.1,0.2-0.2,0.4-0.4,0.5c-1.8,2.2-3.7,4.5-6.1,6.1
		c-3.3,2.3-7,2.2-10.3-0.3c-1.6-1.2-3.1-2.6-4.4-4.1c-5.2-6.1-9.7-12.8-13.5-19.9c-0.1-0.2-0.2-0.3-0.3-0.4c0.1,0.2,0.2,0.4,0.3,0.5
		c-0.3-0.5-0.6-0.9-1.3-2c0,0.4,0,0.9,0,1.3c0,0.3,0,0.5,0.1,0.8c0,0.3,0.1,0.6,0.1,0.9c0.1,0.5,0.1,1,0.2,1.5
		c0,0.3,0.1,0.5,0.2,0.8c0.2,0.8,0.3,1.6,0.6,2.4c0,0,0,0,0,0.1c0.1,0.4,0.2,0.8,0.3,1.2s0.2,0.8,0.3,1.2c0.3,0.8,0.5,1.6,0.8,2.5
		c0.2,0.4,0.3,0.9,0.5,1.3c0.3,0.8,0.6,1.6,1,2.5c1.8,4.4,4.1,9.3,6.9,14.6l0,0v0.1c-0.3,0.1-0.5,0.1-0.7,0.1s-0.4-0.1-0.6-0.3l0,0
		c-0.2-0.1-0.3-0.2-0.5-0.4c-0.3-0.3-0.5-0.6-0.8-0.9C532.1,912.3,527.3,905.3,523.7,897.5z M565.2,908.8c-1.8,2.2-3.7,4.5-6.1,6.1
		C561.4,913.3,563.3,911,565.2,908.8z M538,932.6c-2.5,0.1-3.5-0.8-3.4-2.9c0.2-1.7,1.2-2.3,2.7-2.5c8.8-1.4,17-4.5,24.7-8.9
		c3.1-1.8,6.3-3.5,9-5.8c2.6-2.2,4.6-5,6.9-7.6c0.4-0.5,0.8-1,1.4-1.7c2.6,2.4,3,4.7,1.2,7.3c-0.6,1.2-1.4,2.3-2.4,3.2
		c-5.3,4.6-10.3,9.5-16.8,12.5C553.9,929.6,546.3,932.3,538,932.6z M553.3,950c11.8-9.2,22.4-19.3,30.2-32.2
		c0.9,9.6-3.9,16.5-9.6,22.8c-3,3.3-6.4,6.2-9.9,9.6c3.1,0.2,6,0.6,8.8,0.5c4-0.1,8,0.1,11.9-1.4c1.7-0.7,2.8,0.1,2.9,1.9
		c0.1,1.4-0.5,2.6-1.9,3.2c-1.6,0.7-3.3,1.4-5,1.7c-5.4,0.9-10.6,2.7-16.2,2.2C559.1,957.8,556,954.4,553.3,950z M575.2,1017.8
		c-2.9-4.4-6.3-7.6-10.7-10c0.3-1.1,0.5-2.2,0.8-3.2c4,1.2,9.8,5.8,11.7,9.3C576.5,1015.1,575.9,1016.3,575.2,1017.8z M580.1,1008.8
		c-3-4.9-7.2-8.1-11.3-11.5c5.4,0.7,10.4,2.4,14.5,6.4C582.3,1005.3,581.3,1006.9,580.1,1008.8z M584.6,999.1
		c-4.2-2.5-8.2-4.9-12.4-7.4c0.4-1.5,0.8-3,1.2-4.6c5.7,1.4,11,2.8,14.7,8.1C586.9,996.5,585.7,997.8,584.6,999.1z M597.9,985.2
		c-1.2-2-2.4-4-3.7-6.2c-1.4-2-2.7-4.1-4.3-6.5c-5.5,2.7-10.9,5.3-16.3,7.9c-0.1-0.2-0.1-0.3-0.2-0.4c5.8-5.9,11.6-11.9,17.7-18.1
		c0.5,0.8,1,1.5,1.4,2.2c1.3,2.5,2.5,5,3.8,7.5c0.2,0.4,0.5,0.8,0.6,1.2c0.5,4,1,8.1,1.5,12.1C598.2,985,598.1,985.1,597.9,985.2z
		 M830,977.1c-0.3,6.3-0.1,12.6-1.5,18.7c-0.8,3.7-2,7.3-3.2,10.9c-0.5,1.5-0.8,2.6,0,4.1c0.6,1,0.7,2.3,1.1,3.8
		c-1.6,0.3-2.9,0.9-3.9,1.2c-3.9-0.2-7.8-0.6-11.7-0.9c-2-0.2-3.9-0.3-5.9-0.5c-3.8-0.4-7.5-0.9-11.3-1.4c-1.4-0.2-2.9-0.4-4.3-0.6
		c-4.4-0.7-8.8-1.5-13.2-2.2c-1.7-0.3-3.2-0.1-4.7,1.1c-1.6,1.3-3.6,2.1-5.5,3c-1.4,0.7-2.9,1.2-4.3,1.9c-2.1,1.1-2.7,1.3-3.9-0.7
		c-2-3.3-5.4-4.9-8.2-7.2c-1.2-1.1-2.5-1.1-4-0.4c-3.8,1.9-7.6,3.7-11.3,5.7c-1.3,0.6-2.2,0.8-3.5,0.3c-2.5-1-5-0.7-7.4,0.6
		c-1,0.6-2.3,0.7-3.5,0.6c-8-0.4-15.9-1.1-23.8-1.4c-6-0.2-11.9-0.2-17.8,0c-2.8,0.1-5.7,0.9-8.5,1.4c-0.9,0.2-1.8,0.3-2.6,0.2
		c-1.8-0.3-3.5-0.8-5.2-1.2c-4.9-1.2-9.7-2.6-14.6-3.6c-5.4-1.2-10.8-1.2-16.2,0.6c-4.7,1.6-9.5,3-14.2,4.5
		c-0.9,0.3-1.8,0.8-2.8,1.2c-0.5-2-0.8-3.8-1.3-5.6c-1.1-4.4-2.3-8.8-3.5-13.2c-0.7-2.4-1.7-4.8-2.2-7.3c-1.6-7.8-3.9-15.4-7.4-22.4
		c-2.8-5.5-3.3-11.5-5-17.2c-1-3.4-2.1-6.8-3.2-10.2c-0.9-2.7-2-5.4-2.7-8.2c-0.4-1.7-0.1-3.5-0.1-5.3c-0.1-1.3-0.2-2.6-0.3-3.9
		c-0.2-1.7-0.5-3.3-0.7-5c-0.6-6.4-2.1-12.7-6.6-17.4c-5.6-5.8-9.3-12.9-14.9-18.5c-1.5-1.5-3.1-2.9-4.6-4.4c-0.6-0.5-1.1-1.1-1.9-2
		c8.7-3.4,17.3-6.6,23.1-14.2c5.3,2.9,10.4,5.6,15.6,8.4c7.1,3.8,14.2,7.2,21.9,9.6c3.5,1,6.9,2.3,10.6,2.7c2.8,0.2,5.3,0,7.6-1.8
		c1.3-1,2.6-1.2,4.1,0.1c7.4,6.4,16.3,7,25.4,6c2.1-0.2,4.5-0.2,6.3-1.8c0.8-0.8,1.9-1.4,2.7-2.3c1.5-1.8,2.7-2.5,4.5-1.6
		c5.6,2.9,11.6,2.6,17.6,2.6c4.4,0,8.4-1.5,12.5-2.3c1.1-0.2,2.2-0.4,3.1-0.6c1.6,3.6,2.8,7.1,4.5,10.3
		c5.4,10.4,13.3,18.3,23.4,24.3c5.8,3.4,12,5.7,18.5,7.4c3.1,0.9,6.3,1.5,9.5,1.7c1.6,0.1,2.7,0.8,3.6,2.1
		c3.4,4.9,7.7,8.4,13.6,10.1c3.9,1.1,7.8,2.7,11.5,4.3c2.4,1,4.6,2.3,6.6,3.8c3.4,2.6,6.7,5,10.8,6.5c2.4,0.9,4.4,3.2,6.2,5.3
		C827.9,962.6,830.3,969.3,830,977.1z M829.1,936.3c-2.8,1.6-5.8,2.9-8.7,4.2c-0.9,0.4-2,0.6-3.3,0.7c4.5-4.6,6.7-10.1,6.9-17.1
		c3.4,1.9,5.9,3.8,7,7C831.8,933.2,831.1,935.2,829.1,936.3z M845.4,954.2c1.7-1.6,2.4-3.3,1.7-5.7c-0.6-2-0.7-4.1-0.4-6.5
		c0.7,0.6,1.5,1.1,2.1,1.8c2.2,2.6,2.5,8.6,0.4,11.3c-1.1,1.4-2.5,2.6-3.7,3.9c-1.3,1.3-2.7,0.6-4.9,0.1
		C842.5,957.1,843.8,955.5,845.4,954.2z M852.4,965.1c0.3,0.2,0.7,0.3,1,0.6c3,3,2.9,3.2-0.8,5.4c-2.8,1.6-5.5,3.4-8.5,5.2
		C843.2,972.6,846.2,968.7,852.4,965.1z M851.7,984.6c1.6,1.8,3.1,3.6,4.6,5.4c-0.1,0.2-0.3,0.4-0.4,0.6l-3.9-1.5
		c-2.1-0.8-4.2-1.5-6.2-2.5c-1.9-0.9-2.3-2.2-0.9-3.7c1-1.1,2.4-2,3.8-2.5c2.8-1,5.7-1.7,8.8-2.6c0.7,0.9,1.4,1.9,2.3,2.9
		C857.6,983.2,854.3,982.9,851.7,984.6z"/>
	<path class="st1" d="M519.1,872c-1.1-2.7-1.9-5.4-3.3-7.9c-2-3.8-0.7-7.2,1-10.5c1.8-3.7,4.5-6.9,7.6-9.7c1.7-1.6,3.4-3.1,5.3-4.4
		c-1.8,3.3-3.9,6.6-5.3,10.1c-1.4,3.6-2.3,7.4-3.1,11.2c-0.7,3.7-1,7.6-1.5,11.4C519.6,872.1,519.3,872.1,519.1,872z"/>
	<path class="st1" d="M540.5,552.2c-2,4.4-5.3,6.3-8.9,7.9c-0.1,0-0.1,0.1-0.2,0.1c-1,0.5-2.2,0.7-3.3,1c-3.1,0.8-3.9,0.1-4.8-3.7
		c1.2-0.3,2.4-0.6,3.6-0.9c1.6-0.4,3.3-0.8,4.9-1.3C534.5,554.4,537.2,553.3,540.5,552.2z"/>
	<path class="st1" d="M724.6,554.5c3.2-6,7.8-10.3,14.1-12.7c1.1-0.4,2.4-0.4,3.6-0.5c3.8-0.2,7.3-0.9,10-4c0.2-0.2,0.6-0.3,0.9-0.4
		c0.1,0,0.2,0,0.8,0.1c-0.2,0.8-0.3,1.6-0.7,2.3c-2,4.1-5.5,6.3-9.8,7.5c-2.4,0.7-4.8,1.1-7.1,1.7
		C731.9,549.6,727.8,551.1,724.6,554.5z"/>
	<path class="st1" d="M318.5,403.7V26.4h-80L3.5,419.7v72.8h216.7V586h98.3v-93.5h56v-88.7L318.5,403.7L318.5,403.7z M220.2,403.7
		h-112l111.9-187.9L220.2,403.7L220.2,403.7z"/>
	<path class="st1" d="M1199.5,403.7V26.4h-79.9l-235,393.3v72.8h216.7V586h98.3v-93.5h56v-88.7L1199.5,403.7L1199.5,403.7z
		 M1101.2,403.7H989.3l111.9-187.9V403.7z"/>
</g>
</svg>
