<svg height="511pt" viewBox="1 0 511.999 511" width="511pt" xmlns="http://www.w3.org/2000/svg"><path d="m495.332031 257.347656c-.375-.378906-.769531-.738281-1.175781-1.085937l-134.53125-114.550781c-19.023438-16.199219-43.234375-25.105469-68.210938-25.105469-.121093 0-.242187 0-.363281 0-27.964843.097656-54.257812 11.039062-74.035156 30.816406l-18.144531 18.144531c-7.652344 7.652344-20.210938 7.777344-28 .277344-3.738282-3.59375-5.824219-8.554688-5.875-13.957031-.054688-5.671875 2.1875-11.199219 6.148437-15.164063.152344-.152344.304688-.308594.453125-.464844l39.347656-41.996093c30.429688-32.476563 72.78125-51.789063 117.109376-53.621094l151.289062 123.351563c8.558594 6.980468 21.160156 5.699218 28.136719-2.859376 6.980469-8.5625 5.699219-21.160156-2.859375-28.140624l-156.988282-127.996094c-3.570312-2.90625-8.03125-4.496094-12.636718-4.496094-37.628906 0-74.414063 10.253906-106.417969 29.035156-32.285156-19.015625-68.933594-29.035156-106.535156-29.035156-5.304688 0-10.390625 2.105469-14.140625 5.851562l-102.039063 101.996094c-7.8125 7.8125-7.816406 20.472656-.007812 28.285156 3.90625 3.910157 9.023437 5.863282 14.144531 5.863282 5.117188 0 10.234375-1.953125 14.136719-5.855469l95.996093-95.949219c21.769532 1.027344 43.007813 6.230469 62.703126 15.261719-3.816407 3.507813-7.515626 7.15625-11.078126 10.957031l-39.152343 41.789063c-11.347657 11.488281-17.761719 27.347656-17.605469 43.570312.152344 16.230469 6.59375 31.289063 18.132812 42.394531 11.375 10.945313 26.34375 16.890626 42.136719 16.753907 15.820313-.140625 30.695313-6.378907 41.882813-17.570313l18.148437-18.144531c12.253907-12.257813 28.554688-19.039063 45.886719-19.101563h.226562c15.480469 0 30.488282 5.523438 42.28125 15.5625l133.804688 113.933594c6.171875 6.65625 6.023438 17.101563-.453125 23.574219-3.179687 3.183594-7.449219 4.933594-12.019531 4.933594-4.570313 0-8.839844-1.75-12.019532-4.933594l-4.101562-4.105469c-7.8125-7.808594-20.476562-7.8125-28.285156 0-7.808594 7.808594-7.8125 20.472656 0 28.285156l4.105468 4.101563c1.207032 1.210937 2.46875 2.351563 3.765626 3.433594.574218.773437 1.1875 1.523437 1.886718 2.222656 6.628906 6.628906 6.628906 17.414063 0 24.042969-6.625 6.628906-17.410156 6.628906-24.039062 0-.050782-.050782-.105469-.105469-.15625-.15625l-6.628906-6.582032c-7.8125-7.808593-20.472657-7.808593-28.28125.003907-7.8125 7.808593-7.8125 20.472656 0 28.28125l4.566406 4.566406s.003906.003906.003906.003906c3.460938 3.460938 5.550781 8.394531 5.726562 13.53125.09375 2.800781-.335937 8.082031-4.292968 12.039063-6.257813 6.261718-17.09375 5.613281-24.148438-1.441406-.375-.375-.761718-.734376-1.167968-1.078126l-3-2.558593c-8.167969-6.964844-20.382813-6.234375-27.664063 1.652343-7.285156 7.886719-7.042969 20.117188.546875 27.710938 3.335938 3.335938 5.203125 7.703125 5.257812 12.292969.050782 4.449219-1.632812 8.609375-4.738281 11.714843-6.628906 6.628907-17.546875 6.492188-24.40625-.363281l-2.828125-2.804687c8.167969-20.824219 3.863282-45.457032-12.941406-62.261719v-.003906c-7.523438-7.519531-16.691406-12.789063-26.625-15.429688 2.46875-17.179687-2.894531-35.277343-16.082031-48.46875-9.882813-9.882812-22.523438-15.355469-35.46875-16.449219-.976563-12.867187-6.476563-25.492187-16.53125-35.546874-9.941407-9.941407-22.671875-15.421876-35.695313-16.46875-1.046875-13.023438-6.527344-25.753907-16.46875-35.695313-22.175781-22.175781-58.234375-22.222656-80.46875-.140625l-27.949218 26.984375c-.082032.082031-.167969.164063-.25.246094-10.734376 10.734375-16.648438 25.050781-16.648438 40.304687 0 15.25 5.914062 29.566406 16.648438 40.300782 8.496093 8.5 19.035156 13.734374 30.046874 15.734374-.515624 15.238282 5.015626 30.644532 16.621094 42.25 10.351563 10.351563 24.164063 16.007813 39.011719 16.007813.28125 0 .566406-.003906.847656-.007813 1.617188 11.886719 6.960938 23.335938 16.054688 32.425782 11.058593 11.058594 25.597656 16.582031 40.175781 16.582031 1.226562 0 2.449219-.054687 3.675781-.132813 2.117188 11.640626 7.671875 22.347657 16.167969 30.84375 11.308594 11.304688 26.15625 16.957032 41.011719 16.957032 14.5 0 29-5.410156 40.203125-16.191406 11.152344 10.78125 25.589844 16.191406 40.003906 16.191406 14.578125 0 29.121094-5.523438 40.175781-16.578125 8.847657-8.851563 14.371094-20.109375 15.96875-32.316407 14.238281-.023437 28.296875-5.328124 38.945313-15.980468 9.355468-9.355469 14.851562-21.644532 15.847656-35.121094 14.105469-.734375 27.238281-6.546875 37.257812-16.566406 11.605469-11.605469 17.136719-27.015625 16.621094-42.257813 11.335938-2.039062 21.757813-7.433593 30.046875-15.722656 22.222657-22.222656 22.222657-58.382813 0-80.605469zm-426.109375 55.960938c-.082031.082031-.167968.164062-.25.246094-3.179687 3.183593-7.449218 4.933593-12.019531 4.933593s-8.839844-1.75-12.019531-4.933593c-3.183594-3.183594-4.933594-7.449219-4.933594-12.019532 0-4.523437 1.714844-8.746094 4.832031-11.917968l27.910157-26.949219c.085937-.082031.167968-.164063.25-.246094 3.183593-3.179687 7.453124-4.933594 12.023437-4.933594 4.566406 0 8.835937 1.753907 12.019531 4.933594 3.179688 3.183594 4.933594 7.453125 4.933594 12.023437 0 3.796876-1.222656 7.378907-3.460938 10.3125-.523437.480469-1.046874.964844-1.554687 1.472657l-20.515625 20.113281zm45.949219 57.4375c-6.996094 6.457031-17.539063 6.824218-23.570313.792968-6.609374-6.609374-6.628906-17.355468-.058593-23.988281l12.808593-12.558593 20.714844-19.996094c.085938-.082032.167969-.164063.25-.246094.539063-.539062 1.050782-1.085938 1.558594-1.640625 6.660156-5.085937 16.238281-4.605469 22.324219 1.480469 6.585937 6.585937 6.625 16.117187.105469 22.695312zm56.753906 48.847656c-.023437.023438-.050781.050781-.074219.074219-6.792968 6.792969-17.710937 6.925781-24.339843.296875-6.617188-6.617188-6.492188-17.511719.269531-24.308594l29.300781-28.996094c.027344-.023437.050781-.050781.074219-.074218 3.183594-3.183594 7.453125-4.933594 12.023438-4.933594 4.566406 0 8.835937 1.75 12.019531 4.933594 6.617187 6.617187 6.628906 17.378906.03125 24.011718zm71.980469 36.347656c-.085938.082032-.171875.167969-.253906.257813l-10.769532 11.160156c-7.023437 6.914063-18.367187 6.878906-25.347656-.101563-3.449218-3.449218-5.375-8.074218-5.425781-13.019531-.050781-4.84375 1.734375-9.320312 5.023437-12.613281l12-12c3.203126-3.203125 7.359376-4.789062 11.609376-4.789062 4.648437 0 9.410156 1.898437 13.160156 5.648437 7.019531 7.019531 7.019531 18.4375.003906 25.457031zm0 0"/></svg>