<?xml version="1.0" encoding="iso-8859-1"?>
<!-- Generator: Adobe Illustrator 19.0.0, SVG Export Plug-In . SVG Version: 6.00 Build 0)  -->
<svg version="1.1" id="Capa_1" xmlns="http://www.w3.org/2000/svg" xmlns:xlink="http://www.w3.org/1999/xlink" x="0px" y="0px"
	 viewBox="0 0 512 512" style="enable-background:new 0 0 512 512;" xml:space="preserve">
<g>
	<g>
		<path d="M480,115.2H32c-17.645,0-32,14.355-32,32v294.4c0,17.645,14.355,32,32,32h448c17.645,0,32-14.355,32-32V147.2
			C512,129.555,497.645,115.2,480,115.2z M473.6,435.2H38.4V153.6h435.2V435.2z"/>
	</g>
</g>
<g>
	<g>
		<path d="M313.6,38.4H192c-24.704,0-44.8,20.096-44.8,44.8v371.2h38.4V83.2c0-3.469,2.931-6.4,6.4-6.4h121.6
			c3.469,0,6.4,2.931,6.4,6.4v371.2h38.4V83.2C358.4,58.496,338.298,38.4,313.6,38.4z"/>
	</g>
</g>
<g>
</g>
<g>
</g>
<g>
</g>
<g>
</g>
<g>
</g>
<g>
</g>
<g>
</g>
<g>
</g>
<g>
</g>
<g>
</g>
<g>
</g>
<g>
</g>
<g>
</g>
<g>
</g>
<g>
</g>
</svg>
