<?xml version="1.0" encoding="iso-8859-1"?>
<!-- Generator: Adobe Illustrator 19.0.0, SVG Export Plug-In . SVG Version: 6.00 Build 0)  -->
<svg version="1.1" id="Capa_1" xmlns="http://www.w3.org/2000/svg" xmlns:xlink="http://www.w3.org/1999/xlink" x="0px" y="0px"
	 viewBox="0 0 512 512" style="enable-background:new 0 0 512 512;" xml:space="preserve">
<g>
	<g>
		<path d="M256,156.769c-89.814,0-162.884,73.069-162.884,162.883S166.186,482.536,256,482.536s162.884-73.069,162.884-162.883
			S345.814,156.769,256,156.769z M256,449.181c-71.424,0-129.529-58.103-129.529-129.528S184.576,190.124,256,190.124
			c71.419,0,129.529,58.103,129.529,129.528S327.424,449.181,256,449.181z"/>
	</g>
</g>
<g>
	<g>
		<path d="M256.556,40.026c-58.549,0-106.18,47.631-106.18,106.18c0,20.625,5.714,40.454,16.527,57.354l28.09-17.973
			c-7.371-11.519-11.268-25.133-11.268-39.376c0-40.159,32.666-72.825,72.825-72.825c40.154,0,72.825,32.671,72.825,72.825
			c0,14.071-3.785,27.135-11.268,38.82l28.102,17.973c10.968-17.139,16.527-36.251,16.527-56.798
			C362.736,87.657,315.105,40.026,256.556,40.026z"/>
	</g>
</g>
<g>
	<g>
		<rect x="239.32" y="174.56" width="33.35" height="291.86"/>
	</g>
</g>
<g>
	<g>
		<path d="M453.907,168.998c-9.212,0-16.678,7.466-16.678,16.678v58.927h-46.697c-9.212,0-16.678,7.466-16.678,16.678
			c0,9.212,7.466,16.678,16.678,16.678h63.375c9.217,0,16.677-7.466,16.678-16.678v-75.605
			C470.585,176.464,463.119,168.998,453.907,168.998z"/>
	</g>
</g>
<g>
	<g>
		<path d="M482.815,273.51c-9.212,0-16.678,7.466-16.678,16.678v41.138h-63.931c-9.212,0-16.678,7.466-16.678,16.678
			c0,9.212,7.466,16.678,16.678,16.678h80.608c9.212,0,16.678-7.466,16.679-16.679v-57.815
			C499.493,280.976,492.027,273.51,482.815,273.51z"/>
	</g>
</g>
<g>
	<g>
		<path d="M449.458,403.595h-86.723c-9.212,0-16.678,7.466-16.678,16.678c0,9.212,7.466,16.678,16.678,16.678h70.046v58.371
			c0,9.212,7.466,16.678,16.678,16.678c9.212,0,16.678-7.466,16.677-16.678v-75.049C466.136,411.061,458.67,403.595,449.458,403.595
			z"/>
	</g>
</g>
<g>
	<g>
		<path d="M121.468,244.603H74.771v-58.927c0-9.212-7.466-16.678-16.678-16.678c-9.212,0-16.678,7.466-16.678,16.678v75.605
			c0,9.212,7.466,16.678,16.678,16.678h63.375c9.212,0,16.678-7.466,16.678-16.678C138.146,252.069,130.68,244.603,121.468,244.603z
			"/>
	</g>
</g>
<g>
	<g>
		<path d="M109.795,331.327H45.864v-41.138c0-9.212-7.466-16.678-16.678-16.678c-9.212,0-16.678,7.466-16.678,16.678v57.815
			c0,9.212,7.466,16.678,16.678,16.678h80.608c9.211,0,16.677-7.466,16.679-16.677C126.473,338.793,119.007,331.327,109.795,331.327
			z"/>
	</g>
</g>
<g>
	<g>
		<path d="M149.264,403.595H62.541c-9.212,0-16.678,7.466-16.678,16.678v75.049c0,9.212,7.466,16.678,16.678,16.678
			c9.211,0,16.677-7.466,16.677-16.678v-58.371h70.046c9.212,0,16.678-7.466,16.678-16.678
			C165.942,411.061,158.476,403.595,149.264,403.595z"/>
	</g>
</g>
<g>
	<g>
		<path d="M231.1,52.695L183.292,4.887c-6.51-6.515-17.072-6.515-23.582,0c-6.515,6.51-6.515,17.072,0,23.582l47.808,47.808
			c3.252,3.258,7.522,4.887,11.791,4.887c4.27,0,8.539-1.629,11.791-4.887C237.615,69.767,237.615,59.205,231.1,52.695z"/>
	</g>
</g>
<g>
	<g>
		<path d="M352.291,4.886c-6.515-6.515-17.067-6.515-23.582,0l-48.921,48.921c-6.516,6.51-5.968,14.929,0.547,21.439
			c3.258,3.257,9.618,6.181,13.887,6.181c4.27,0,5.89-0.78,9.148-4.038l48.921-48.921C358.806,21.958,358.806,11.396,352.291,4.886z
			"/>
	</g>
</g>
<g>
</g>
<g>
</g>
<g>
</g>
<g>
</g>
<g>
</g>
<g>
</g>
<g>
</g>
<g>
</g>
<g>
</g>
<g>
</g>
<g>
</g>
<g>
</g>
<g>
</g>
<g>
</g>
<g>
</g>
</svg>
