<?xml version="1.0" encoding="iso-8859-1"?>
<!-- Generator: Adobe Illustrator 19.0.0, SVG Export Plug-In . SVG Version: 6.00 Build 0)  -->
<svg version="1.1" id="Layer_1" xmlns="http://www.w3.org/2000/svg" xmlns:xlink="http://www.w3.org/1999/xlink" x="0px" y="0px"
	 viewBox="0 0 512 512" style="enable-background:new 0 0 512 512;" xml:space="preserve">
<g>
	<g>
		<path d="M469.333,192h-42.667c-11.782,0-21.333,9.551-21.333,21.333c0,11.782,9.551,21.333,21.333,21.333v64
			c0,11.694-9.388,21.163-21.044,21.319c-1.609-22.521-20.002-42.652-45.695-42.652h-82.594V256h49.527
			c31.803,0,56.646-27.459,53.461-59.097L365.475,48.395C362.753,20.928,339.624,0,312.013,0H199.991
			c-27.612,0-50.74,20.928-53.464,48.414L131.66,196.915C128.51,228.557,153.35,256,185.143,256h49.523v21.333h-82.227
			c-25.686,0-44.085,20.142-45.693,42.667h-0.08c-11.791,0-21.333-9.542-21.333-21.333v-64c11.782,0,21.333-9.551,21.333-21.333
			c0-11.782-9.551-21.333-21.333-21.333H42.667c-11.782,0-21.333,9.551-21.333,21.333c0,11.782,9.551,21.333,21.333,21.333v64
			c0,35.355,28.645,64,64,64h17.217l0.659,0.986C133.013,376.36,147.29,384,162.573,384h72.094v26.575l-133.861,38.246
			c-0.084,0.024-0.166,0.053-0.25,0.078c-0.162,0.048-0.322,0.099-0.482,0.151c-0.524,0.17-1.038,0.357-1.54,0.564
			c-0.124,0.051-0.247,0.105-0.37,0.159c-0.541,0.234-1.069,0.487-1.581,0.762c-0.065,0.035-0.129,0.072-0.194,0.107
			c-0.56,0.307-1.104,0.637-1.628,0.989c-0.017,0.012-0.034,0.024-0.052,0.036c-1.13,0.764-2.174,1.628-3.123,2.578
			c-0.004,0.004-0.007,0.007-0.01,0.011c-0.471,0.472-0.919,0.965-1.342,1.477c-0.026,0.032-0.051,0.064-0.077,0.096
			c-0.397,0.486-0.774,0.988-1.126,1.506c-0.049,0.072-0.095,0.146-0.143,0.218c-0.323,0.488-0.629,0.987-0.911,1.5
			c-0.059,0.108-0.114,0.218-0.171,0.327c-0.262,0.495-0.507,0.999-0.729,1.514c-0.053,0.123-0.101,0.248-0.152,0.372
			c-0.214,0.523-0.411,1.054-0.584,1.595c-0.034,0.108-0.065,0.218-0.098,0.327c-0.174,0.577-0.326,1.162-0.451,1.755
			c-0.015,0.071-0.028,0.143-0.042,0.214c-0.13,0.646-0.23,1.299-0.299,1.959c-0.003,0.027-0.005,0.054-0.008,0.081
			c-0.071,0.7-0.107,1.406-0.107,2.117c0,0.007-0.001,0.013-0.001,0.02v21.333c0,11.782,9.551,21.333,21.333,21.333
			c11.782,0,21.333-9.551,21.333-21.333v-5.242l106.667-30.476v35.718c0,11.782,9.551,21.333,21.333,21.333
			s21.333-9.551,21.333-21.333v-35.718L384,485.425v5.242c0,11.782,9.551,21.333,21.333,21.333c11.782,0,21.333-9.551,21.333-21.333
			v-21.333c0-0.007-0.001-0.013-0.001-0.02c0-0.711-0.036-1.417-0.107-2.117c-0.003-0.027-0.005-0.054-0.008-0.081
			c-0.069-0.66-0.169-1.313-0.299-1.959c-0.014-0.071-0.027-0.143-0.042-0.214c-0.125-0.592-0.277-1.177-0.451-1.754
			c-0.033-0.11-0.064-0.22-0.099-0.329c-0.172-0.54-0.369-1.07-0.583-1.593c-0.051-0.125-0.099-0.25-0.152-0.373
			c-0.222-0.514-0.467-1.017-0.728-1.512c-0.058-0.109-0.113-0.22-0.173-0.329c-0.282-0.512-0.588-1.011-0.911-1.499
			c-0.048-0.073-0.094-0.147-0.143-0.218c-0.352-0.518-0.729-1.019-1.126-1.506c-0.026-0.032-0.051-0.065-0.077-0.096
			c-0.423-0.512-0.871-1.005-1.342-1.477c-0.004-0.003-0.007-0.007-0.01-0.011c-0.949-0.95-1.993-1.814-3.123-2.578
			c-0.017-0.012-0.034-0.024-0.052-0.036c-0.524-0.352-1.068-0.681-1.628-0.989c-0.065-0.036-0.13-0.073-0.195-0.108
			c-0.513-0.274-1.04-0.527-1.581-0.762c-0.123-0.054-0.246-0.107-0.37-0.159c-0.502-0.206-1.016-0.394-1.54-0.564
			c-0.16-0.052-0.321-0.103-0.482-0.151c-0.084-0.025-0.165-0.054-0.25-0.078l-133.861-38.246V384h72.461
			c15.27,0,29.532-7.627,38.034-20.32l0.675-1.013h16.83c35.355,0,64-28.645,64-64v-64c11.782,0,21.333-9.551,21.333-21.333
			C490.667,201.551,481.115,192,469.333,192z M174.116,201.153l14.868-148.511c0.562-5.67,5.321-9.976,11.007-9.976h112.021
			c5.687,0,10.446,4.306,11.005,9.954l14.85,148.541c0.657,6.522-4.454,12.171-11.007,12.171H185.143
			C178.588,213.333,173.467,207.675,174.116,201.153z M349.794,341.333H162.573c-1.018,0-1.972-0.511-2.538-1.359l-10.162-15.222
			c-1.341-2.015,0.124-4.752,2.567-4.752h207.488c2.453,0,3.914,2.729,2.552,4.775l-2.944,4.42
			c-0.115,0.166-0.226,0.335-0.336,0.505l-6.849,10.281C351.791,340.814,350.819,341.333,349.794,341.333z"/>
	</g>
</g>
<g>
</g>
<g>
</g>
<g>
</g>
<g>
</g>
<g>
</g>
<g>
</g>
<g>
</g>
<g>
</g>
<g>
</g>
<g>
</g>
<g>
</g>
<g>
</g>
<g>
</g>
<g>
</g>
<g>
</g>
</svg>
