<?xml version="1.0" encoding="iso-8859-1"?>
<!-- Generator: Adobe Illustrator 19.0.0, SVG Export Plug-In . SVG Version: 6.00 Build 0)  -->
<svg version="1.1" id="Capa_1" xmlns="http://www.w3.org/2000/svg" xmlns:xlink="http://www.w3.org/1999/xlink" x="0px" y="0px"
	 viewBox="0 0 512.001 512.001" style="enable-background:new 0 0 512.001 512.001;" xml:space="preserve">
<g>
	<g>
		<path d="M506.143,213.177L314.088,21.122c-7.805-7.805-20.475-7.81-28.285,0L93.748,213.177c-7.806,7.807-7.808,20.475,0,28.284
			l0.506,0.506L5.858,330.363c-7.811,7.811-7.811,20.474,0,28.284l132.229,132.229c3.751,3.751,8.838,5.858,14.143,5.858h61.061
			c5.305,0,10.392-2.107,14.143-5.858l57.865-57.865l0.506,0.506c7.805,7.805,20.475,7.81,28.285,0l192.055-192.055
			C513.953,233.651,513.953,220.988,506.143,213.177z M205.005,456.734h-44.492L48.285,344.505l74.253-74.253l134.475,134.474
			L205.005,456.734z M299.946,391.09l-0.501-0.501c-0.002-0.002-0.003-0.003-0.005-0.005L136.681,227.825
			c-0.003-0.003-0.007-0.006-0.01-0.009l-0.497-0.497L299.946,63.548l163.771,163.771L299.946,391.09z"/>
	</g>
</g>
<g>
</g>
<g>
</g>
<g>
</g>
<g>
</g>
<g>
</g>
<g>
</g>
<g>
</g>
<g>
</g>
<g>
</g>
<g>
</g>
<g>
</g>
<g>
</g>
<g>
</g>
<g>
</g>
<g>
</g>
</svg>
