<svg id="Capa_1" enableBackground="new 0 0 512 512" height="512" viewBox="0 0 512 512" width="512" xmlns="http://www.w3.org/2000/svg"><g><path d="m452 120h-58v-20c0-33.084-26.916-60-60-60h-38c-15.355 0-29.376 5.805-40 15.327-10.624-9.522-24.645-15.327-40-15.327h-38c-15.355 0-29.376 5.805-40 15.327-10.624-9.522-24.645-15.327-40-15.327h-38c-33.084 0-60 26.916-60 60v312c0 33.084 26.916 60 60 60h392c33.084 0 60-26.916 60-60v-232c0-33.084-26.916-60-60-60zm-176-20c0-11.028 8.972-20 20-20h38c11.028 0 20 8.972 20 20v20h-78zm-98-20h38c11.028 0 20 8.972 20 20v20h-58c-11.028 0-20-8.972-20-20s8.972-20 20-20zm294 332c0 11.028-8.972 20-20 20h-392c-11.028 0-20-8.972-20-20v-312c0-11.028 8.972-20 20-20h38c11.028 0 20 8.972 20 20 0 33.084 26.916 60 60 60h274c11.028 0 20 8.972 20 20z"/></g></svg>