<svg height="512pt" viewBox="0 -17 512 512" width="512pt" xmlns="http://www.w3.org/2000/svg"><path d="m440.039062 377.789062 71.960938 71.960938-28.269531 28.269531-71.957031-71.960937-71.960938 71.960937-28.269531-28.269531 71.960937-71.960938-71.960937-71.957031 28.269531-28.269531 71.960938 71.960938 71.957031-71.960938 28.269531 28.269531zm-380.074218 24.023438h242.976562l-39.941406 39.941406h-203.035156c-33.0625 0-59.964844-26.863281-59.964844-59.929687v-321.894531c0-33.066407 26.902344-59.929688 59.964844-59.929688h154.175781l30.691406 46c2.914063 4.367188 7.875 6.96875 13.28125 6.96875h.042969l193.59375.007812h.007812c16.011719 0 31.070313 6.234376 42.394532 17.558594 11.328125 11.324219 17.5625 26.382813 17.5625 42.402344v136.070312l-39.976563-39.976562v-96.09375c0-5.339844-2.078125-10.359375-5.855469-14.132812-3.773437-3.773438-7.136718-5.855469-14.132812-5.855469-6.992188 0-193.546875-.003907-193.546875-.003907-.046875 0-.09375 0-.136719 0-.070312 0-.140625-.007812-.210937-.007812v.007812c-4.824219 0-10.183594 2.980469-13.023438 7.246094l-.160156.234375-31.269531 45.492188-153.429688.007812c-5.34375 0-10.363281 2.078125-14.140625 5.855469-3.773437 3.773438-5.855469 8.792969-5.855469 14.132812v215.910157c0 11.023437 8.96875 19.988281 19.988282 19.988281zm-19.988282-292.460938c6.335938-2.234374 13.074219-3.402343 19.988282-3.402343h.011718l132.394532-.007813 19.285156-28.058594c1.121094-1.667968 2.34375-3.257812 3.628906-4.785156-1.316406-1.5625-2.566406-3.199218-3.714844-4.921875l-18.824218-28.234375h-132.78125c-11.019532 0-19.988282 8.964844-19.988282 19.988282zm0 0"/></svg>