<?xml version="1.0" encoding="iso-8859-1"?>
<!-- Generator: Adobe Illustrator 19.0.0, SVG Export Plug-In . SVG Version: 6.00 Build 0)  -->
<svg version="1.1" id="Layer_1" xmlns="http://www.w3.org/2000/svg" xmlns:xlink="http://www.w3.org/1999/xlink" x="0px" y="0px"
	 viewBox="0 0 512.18 512.18" style="enable-background:new 0 0 512.18 512.18;" xml:space="preserve">
<g>
	<g>
		<path d="M511.825,170.191c-0.14-1.786-0.298-3.155-0.44-4.095C504.22,84.955,444.691,20.73,367.434,20.73
			c-44.758,0-85.66,21.18-112.442,55.516C228.835,41.679,189.491,20.73,144.97,20.73C67.976,20.73,8.584,84.52,0.937,166.557
			c-0.147,0.956-0.295,2.12-0.43,3.489C-0.8,183.3,0.287,200.862,5.338,222.26c10.732,45.463,35.828,86.871,71.224,118.958
			l164.828,144.92c8.028,7.059,20.042,7.085,28.101,0.062l166.037-144.683c39.134-40.728,62.393-77.366,71.616-119.584
			C511.771,200.731,512.848,183.284,511.825,170.191z M465.46,212.833c-7.254,33.204-26.552,63.603-59.352,97.843L255.545,441.771
			l-150.569-132.38c-28.881-26.184-49.406-60.051-58.113-96.933c-3.953-16.747-4.747-29.585-3.895-38.225
			c0.075-0.764,0.393-3.072,0.393-3.072C48.849,109.384,91.478,63.397,144.97,63.397c39.823,0,73.704,24.287,90.17,63.294
			c7.338,17.382,31.97,17.382,39.308,0c16.136-38.225,52.419-63.294,92.986-63.294c53.494,0,96.121,45.99,101.609,107.786
			c0.147,1.242,0.187,1.586,0.245,2.333C469.993,182.541,469.174,195.811,465.46,212.833z"/>
	</g>
</g>
<g>
</g>
<g>
</g>
<g>
</g>
<g>
</g>
<g>
</g>
<g>
</g>
<g>
</g>
<g>
</g>
<g>
</g>
<g>
</g>
<g>
</g>
<g>
</g>
<g>
</g>
<g>
</g>
<g>
</g>
</svg>
