<?xml version="1.0" encoding="iso-8859-1"?>
<!-- Generator: Adobe Illustrator 19.0.0, SVG Export Plug-In . SVG Version: 6.00 Build 0)  -->
<svg version="1.1" id="Layer_1" xmlns="http://www.w3.org/2000/svg" xmlns:xlink="http://www.w3.org/1999/xlink" x="0px" y="0px"
	 viewBox="0 0 512.001 512.001" style="enable-background:new 0 0 512.001 512.001;" xml:space="preserve">
<g>
	<g>
		<g>
			<path d="M512.001,149.401v-0.067c0-0.145-0.019-0.285-0.022-0.429c-0.011-0.553-0.03-1.106-0.084-1.658
				c-0.027-0.273-0.077-0.539-0.114-0.809c-0.057-0.422-0.11-0.843-0.193-1.262c-0.063-0.318-0.15-0.627-0.227-0.94
				c-0.089-0.362-0.17-0.725-0.279-1.084c-0.101-0.334-0.225-0.656-0.342-0.982c-0.117-0.328-0.225-0.658-0.359-0.981
				c-0.143-0.345-0.309-0.676-0.469-1.012c-0.139-0.292-0.268-0.587-0.421-0.875c-0.2-0.375-0.426-0.734-0.648-1.095
				c-0.143-0.233-0.273-0.472-0.426-0.701c-0.306-0.458-0.639-0.896-0.979-1.328c-0.091-0.116-0.167-0.239-0.261-0.354
				c-0.007-0.008-0.015-0.015-0.022-0.024c-0.446-0.543-0.918-1.065-1.414-1.561c-0.267-0.268-0.554-0.506-0.833-0.757
				c-0.235-0.212-0.46-0.434-0.705-0.635c-0.338-0.278-0.693-0.526-1.044-0.781c-0.21-0.152-0.411-0.315-0.626-0.46
				c-0.339-0.227-0.69-0.425-1.039-0.631c-0.252-0.149-0.497-0.308-0.755-0.447c-0.309-0.166-0.628-0.306-0.944-0.455
				c-0.317-0.151-0.629-0.31-0.954-0.445c-0.27-0.112-0.546-0.2-0.82-0.3c-0.381-0.14-0.759-0.287-1.151-0.406
				c-0.247-0.075-0.5-0.127-0.749-0.193c-0.42-0.111-0.838-0.229-1.268-0.314c-0.313-0.063-0.631-0.096-0.946-0.144
				c-0.368-0.056-0.731-0.127-1.105-0.164c-0.699-0.07-1.401-0.105-2.104-0.106c-0.011,0-0.021-0.002-0.032-0.002h-21.333V85.334
				c0-11.782-9.551-21.333-21.333-21.333h-21.333V21.334c0-11.782-9.551-21.333-21.333-21.333H106.667
				c-11.782,0-21.333,9.551-21.333,21.333v42.667H64.001c-11.782,0-21.333,9.551-21.333,21.333v42.667H21.334
				c-0.011,0-0.021,0.002-0.032,0.002c-0.703,0.001-1.405,0.036-2.104,0.106c-0.374,0.037-0.737,0.108-1.105,0.164
				c-0.316,0.048-0.633,0.082-0.946,0.144c-0.43,0.086-0.847,0.203-1.268,0.314c-0.25,0.066-0.502,0.118-0.749,0.193
				c-0.391,0.119-0.769,0.266-1.151,0.406c-0.273,0.1-0.55,0.188-0.82,0.3c-0.326,0.135-0.638,0.294-0.955,0.445
				c-0.315,0.149-0.634,0.289-0.943,0.454c-0.259,0.139-0.504,0.298-0.757,0.448c-0.348,0.205-0.7,0.404-1.038,0.63
				c-0.216,0.145-0.418,0.309-0.628,0.461c-0.351,0.254-0.705,0.502-1.042,0.779c-0.247,0.203-0.475,0.428-0.713,0.642
				c-0.276,0.249-0.56,0.484-0.825,0.75c-0.497,0.497-0.969,1.018-1.415,1.562c-0.007,0.008-0.014,0.015-0.021,0.023
				c-0.092,0.113-0.167,0.234-0.257,0.348c-0.341,0.434-0.676,0.874-0.984,1.334c-0.152,0.228-0.281,0.465-0.423,0.696
				c-0.223,0.363-0.449,0.723-0.651,1.099c-0.153,0.286-0.281,0.58-0.42,0.871c-0.161,0.337-0.328,0.669-0.471,1.016
				c-0.133,0.322-0.241,0.651-0.358,0.977c-0.117,0.328-0.242,0.651-0.343,0.986c-0.108,0.357-0.189,0.719-0.278,1.08
				c-0.077,0.314-0.165,0.624-0.228,0.944c-0.082,0.417-0.134,0.836-0.192,1.256c-0.037,0.272-0.088,0.539-0.115,0.815
				c-0.053,0.549-0.072,1.098-0.083,1.648c-0.003,0.147-0.022,0.29-0.022,0.438v0.069c0,0.006,0,0.012,0,0.018v341.247
				c0,11.782,9.551,21.333,21.333,21.333h469.333c11.782,0,21.333-9.551,21.333-21.333V149.422
				C512.001,149.415,512.001,149.408,512.001,149.401z M128.001,42.667h256v21.333h-256V42.667z M85.334,106.667h21.333h298.667
				h21.333v21.333H85.334V106.667z M430.904,170.667L256.001,313.77L81.097,170.667H430.904z M42.667,469.334V194.353
				l199.824,163.493c7.859,6.43,19.16,6.43,27.018,0l199.824-163.493v274.982H42.667z"/>
			<path d="M405.334,384.001h-64c-11.782,0-21.333,9.551-21.333,21.333c0,11.782,9.551,21.333,21.333,21.333h64
				c11.782,0,21.333-9.551,21.333-21.333C426.667,393.552,417.116,384.001,405.334,384.001z"/>
		</g>
	</g>
</g>
<g>
</g>
<g>
</g>
<g>
</g>
<g>
</g>
<g>
</g>
<g>
</g>
<g>
</g>
<g>
</g>
<g>
</g>
<g>
</g>
<g>
</g>
<g>
</g>
<g>
</g>
<g>
</g>
<g>
</g>
</svg>
