<?xml version="1.0" encoding="iso-8859-1"?>
<!-- Generator: Adobe Illustrator 19.0.0, SVG Export Plug-In . SVG Version: 6.00 Build 0)  -->
<svg version="1.1" id="Layer_1" xmlns="http://www.w3.org/2000/svg" xmlns:xlink="http://www.w3.org/1999/xlink" x="0px" y="0px"
	 viewBox="0 0 512.039 512.039" style="enable-background:new 0 0 512.039 512.039;" xml:space="preserve">
<g transform="translate(-1)">
	<g>
		<g>
			<path d="M512.606,315.853c-0.018-0.089-0.036-0.178-0.055-0.266c-0.129-0.599-0.278-1.198-0.462-1.797
				c-0.049-0.161-0.109-0.316-0.161-0.475c-0.087-0.262-0.169-0.525-0.267-0.786l-64-170.667
				c-3.122-8.326-11.082-13.843-19.975-13.843h-64c-11.782,0-21.333,9.551-21.333,21.333c0,11.782,9.551,21.333,21.333,21.333
				h49.216l48,128h-97.216c-11.782,0-21.333,9.551-21.333,21.333v42.667H171.686v-42.667c0-11.782-9.551-21.333-21.333-21.333
				H53.137l48-128h49.216c11.782,0,21.333-9.551,21.333-21.333c0-11.782-9.551-21.333-21.333-21.333h-64
				c-8.893,0-16.853,5.516-19.975,13.843l-64,170.667c-0.098,0.261-0.179,0.522-0.266,0.784c-0.053,0.16-0.113,0.316-0.162,0.478
				c-0.184,0.598-0.332,1.197-0.462,1.796c-0.019,0.089-0.037,0.178-0.055,0.268c-0.332,1.639-0.466,3.273-0.413,4.879v169.954
				c0,11.782,9.551,21.333,21.333,21.333h469.333c11.782,0,21.333-9.551,21.333-21.333V320.733
				C513.072,319.127,512.939,317.493,512.606,315.853z M470.353,469.353H43.686v-128h85.333v42.667
				c0,11.782,9.551,21.333,21.333,21.333h213.333c11.782,0,21.333-9.551,21.333-21.333v-42.667h85.333V469.353z"/>
			<path d="M208.104,100.438l27.582-27.582v204.497c0,11.782,9.551,21.333,21.333,21.333c11.782,0,21.333-9.551,21.333-21.333
				V72.856l27.582,27.582c8.331,8.331,21.839,8.331,30.17,0c8.331-8.331,8.331-21.839,0-30.17l-64-64
				c-0.004-0.004-0.008-0.006-0.011-0.01c-0.494-0.493-1.012-0.96-1.552-1.403c-0.247-0.203-0.507-0.379-0.761-0.569
				c-0.303-0.227-0.6-0.462-0.916-0.673c-0.304-0.203-0.619-0.379-0.931-0.565c-0.286-0.171-0.565-0.35-0.859-0.508
				c-0.318-0.17-0.644-0.314-0.969-0.467c-0.307-0.145-0.609-0.298-0.923-0.429c-0.315-0.13-0.637-0.236-0.957-0.35
				c-0.337-0.121-0.669-0.25-1.013-0.354c-0.32-0.097-0.646-0.168-0.969-0.249c-0.351-0.089-0.698-0.187-1.055-0.258
				c-0.375-0.074-0.753-0.119-1.13-0.173c-0.311-0.044-0.617-0.104-0.933-0.135c-1.4-0.138-2.811-0.138-4.211,0
				c-0.315,0.031-0.621,0.09-0.933,0.135c-0.377,0.054-0.756,0.098-1.13,0.173c-0.358,0.071-0.704,0.169-1.055,0.258
				c-0.324,0.081-0.649,0.152-0.969,0.249c-0.344,0.104-0.677,0.233-1.013,0.354c-0.32,0.115-0.642,0.22-0.957,0.35
				c-0.315,0.13-0.616,0.284-0.923,0.429c-0.324,0.153-0.651,0.297-0.969,0.467c-0.294,0.158-0.573,0.337-0.859,0.508
				c-0.312,0.186-0.627,0.362-0.931,0.565c-0.316,0.211-0.612,0.446-0.916,0.673c-0.254,0.19-0.514,0.366-0.761,0.569
				c-0.54,0.443-1.059,0.91-1.552,1.403c-0.004,0.004-0.008,0.006-0.011,0.01l-64,64c-8.331,8.331-8.331,21.839,0,30.17
				S199.773,108.769,208.104,100.438z"/>
		</g>
	</g>
</g>
<g>
</g>
<g>
</g>
<g>
</g>
<g>
</g>
<g>
</g>
<g>
</g>
<g>
</g>
<g>
</g>
<g>
</g>
<g>
</g>
<g>
</g>
<g>
</g>
<g>
</g>
<g>
</g>
<g>
</g>
</svg>
