<?xml version="1.0" encoding="iso-8859-1"?>
<!-- Generator: Adobe Illustrator 19.0.0, SVG Export Plug-In . SVG Version: 6.00 Build 0)  -->
<svg version="1.1" id="Layer_1" xmlns="http://www.w3.org/2000/svg" xmlns:xlink="http://www.w3.org/1999/xlink" x="0px" y="0px"
	 viewBox="0 0 512 512" style="enable-background:new 0 0 512 512;" xml:space="preserve">
<g>
	<g>
		<path d="M490.667,234.649H469.33c-0.035-23.549-19.114-42.629-42.663-42.665v-21.308l13.022-0.008
			c28.148,0,50.973-22.837,50.973-50.987V51.03c0-28.166-22.842-51.008-51.008-51.008l-68.658,0.043
			c-28.158,0.004-50.979,22.839-50.979,50.987v68.651c0,28.182,22.837,51.008,51.008,51.008L384,170.702v21.281
			c-23.551,0.034-42.633,19.115-42.667,42.665h-21.332c-0.035-23.571-19.15-42.667-42.729-42.667h-42.539
			c-23.579,0-42.694,19.095-42.729,42.667h-21.362c-0.035-23.549-19.114-42.629-42.663-42.665v-21.308l13.022-0.008
			c28.148,0,50.973-22.837,50.973-50.987V51.03c0-28.166-22.842-51.008-51.008-51.008L72.308,0.065
			C44.151,0.069,21.329,22.904,21.329,51.052v68.651c0,28.182,22.837,51.008,51.008,51.008l12.975-0.008v21.281
			c-23.551,0.034-42.633,19.115-42.667,42.665H21.333C9.551,234.649,0,244.2,0,255.982s9.551,21.333,21.333,21.333h21.311
			c0.035,23.571,19.15,42.667,42.729,42.667h42.539c23.579,0,42.694-19.095,42.729-42.667h21.362
			c0.035,23.549,19.114,42.629,42.663,42.665v21.344l-13.025,0.008c-28.158,0.004-50.979,22.839-50.979,50.987v68.651
			c0,28.182,22.837,51.008,51.008,51.008l68.664-0.043c28.148,0,50.973-22.837,50.973-50.987v-68.651
			c0-28.166-22.842-51.008-51.008-51.008l-12.966,0.008V319.98c23.551-0.034,42.633-19.115,42.667-42.665h21.332
			c0.035,23.571,19.15,42.667,42.729,42.667h42.539c23.579,0,42.694-19.095,42.729-42.667h21.337
			c11.782,0,21.333-9.551,21.333-21.333S502.449,234.649,490.667,234.649z M371.012,128.044c-4.598,0-8.328-3.728-8.328-8.341
			V51.052c0-4.59,3.728-8.32,8.32-8.32l68.664-0.043c4.589,0,8.328,3.739,8.328,8.341v68.651c0,4.59-3.728,8.32-8.32,8.32
			l-33.549,0.021c-0.265-0.01-0.526-0.04-0.793-0.04c-0.275,0-0.541,0.031-0.813,0.041L371.012,128.044z M72.324,128.044
			c-4.598,0-8.328-3.728-8.328-8.341V51.052c0-4.59,3.728-8.32,8.32-8.32l68.664-0.043c4.589,0,8.328,3.739,8.328,8.341v68.651
			c0,4.59-3.728,8.32-8.32,8.32l-33.549,0.021c-0.265-0.01-0.526-0.04-0.793-0.04c-0.275,0-0.541,0.031-0.813,0.041L72.324,128.044z
			 M85.374,277.315c-0.018,0-0.034-10.605-0.046-21.233c0-0.034,0.005-0.066,0.005-0.1c0-0.035-0.005-0.069-0.005-0.104
			c-0.011-10.605-0.018-21.165-0.018-21.165c0-0.037,42.603-0.064,42.603-0.064c0.037,0,0.064,42.603,0.064,42.603
			C127.977,277.288,85.374,277.315,85.374,277.315z M290.313,383.956c4.589,0,8.328,3.739,8.328,8.341v68.651
			c0,4.59-3.728,8.32-8.32,8.32l-68.664,0.043c-4.598,0-8.328-3.728-8.328-8.341v-68.651c0-4.59,3.728-8.32,8.32-8.32l34.268-0.021
			c0.028,0,0.055,0.004,0.083,0.004c0.029,0,0.057-0.004,0.086-0.004L290.313,383.956z M234.733,277.315
			c-0.037,0-0.064-42.603-0.064-42.603c0-0.037,42.603-0.064,42.603-0.064c0.037,0,0.064,42.603,0.064,42.603
			C277.335,277.288,234.733,277.315,234.733,277.315z M384.062,277.315c-0.037,0-0.064-42.603-0.064-42.603
			c0-0.037,42.603-0.064,42.603-0.064c0.037,0,0.064,42.603,0.064,42.603C426.665,277.288,384.062,277.315,384.062,277.315z"/>
	</g>
</g>
<g>
</g>
<g>
</g>
<g>
</g>
<g>
</g>
<g>
</g>
<g>
</g>
<g>
</g>
<g>
</g>
<g>
</g>
<g>
</g>
<g>
</g>
<g>
</g>
<g>
</g>
<g>
</g>
<g>
</g>
</svg>
