<?xml version="1.0" encoding="iso-8859-1"?>
<!-- Generator: Adobe Illustrator 19.0.0, SVG Export Plug-In . SVG Version: 6.00 Build 0)  -->
<svg version="1.1" id="Capa_1" xmlns="http://www.w3.org/2000/svg" xmlns:xlink="http://www.w3.org/1999/xlink" x="0px" y="0px"
	 viewBox="0 0 512 512" style="enable-background:new 0 0 512 512;" xml:space="preserve">
<g>
	<g>
		<path d="M506.143,168.057L343.944,5.857c-7.811-7.809-20.475-7.809-28.285,0c-7.81,7.811-7.81,20.475,0,28.285l6.133,6.133
			L185.089,176.977l-99.841,23.04c-7.084,1.636-12.724,6.986-14.728,13.975c-2.004,6.989-0.058,14.515,5.083,19.656l87.23,87.23
			L5.858,477.859c-7.81,7.811-7.81,20.474,0,28.284c7.81,7.81,20.474,7.81,28.285-0.001l156.975-156.98l87.235,87.235
			c5.147,5.147,12.673,7.085,19.656,5.082c6.988-2.004,12.339-7.643,13.975-14.728l23.04-99.841l136.701-136.702l6.133,6.133
			c7.812,7.811,20.474,7.809,28.285,0C513.952,188.532,513.952,175.868,506.143,168.057z M281.121,382.596
			c-1.692-1.692-150.028-150.028-151.717-151.717l59.467-13.724l105.974,105.974L281.121,382.596z M316.826,288.541l-93.366-93.366
			L350.075,68.56l93.365,93.365L316.826,288.541z"/>
	</g>
</g>
<g>
</g>
<g>
</g>
<g>
</g>
<g>
</g>
<g>
</g>
<g>
</g>
<g>
</g>
<g>
</g>
<g>
</g>
<g>
</g>
<g>
</g>
<g>
</g>
<g>
</g>
<g>
</g>
<g>
</g>
</svg>
