<?xml version="1.0" encoding="iso-8859-1"?>
<!-- Generator: Adobe Illustrator 19.0.0, SVG Export Plug-In . SVG Version: 6.00 Build 0)  -->
<svg version="1.1" id="Capa_1" xmlns="http://www.w3.org/2000/svg" xmlns:xlink="http://www.w3.org/1999/xlink" x="0px" y="0px"
	 viewBox="0 0 512 512" style="enable-background:new 0 0 512 512;" xml:space="preserve">
<g>
	<g>
		<g>
			<path d="M60,170h50c33.084,0,60-26.916,60-60V60c0-33.084-26.916-60-60-60H60C26.916,0,0,26.916,0,60v50
				C0,143.084,26.916,170,60,170z M40,60c0-11.028,8.972-20,20-20h50c11.028,0,20,8.972,20,20v50c0,11.028-8.972,20-20,20H60
				c-11.028,0-20-8.972-20-20V60z"/>
			<rect x="400" y="355" width="40" height="40"/>
			<rect x="472" y="355" width="40" height="80"/>
			<rect x="360" y="395" width="40" height="40"/>
			<polygon points="280,512 280,472 319,472 319,512 359,512 359,472 320,472 320,432 240,432 240,512 			"/>
			<polygon points="440,512 440,475 472,475 472,435 400,435 400,512 			"/>
			<rect x="65" y="65" width="40" height="40"/>
			<rect x="65" y="407" width="40" height="40"/>
			<rect x="200" y="356" width="40" height="76"/>
			<rect x="320" y="277" width="40" height="40"/>
			<path d="M110,342H60c-33.084,0-60,26.916-60,60v50c0,33.084,26.916,60,60,60h50c33.084,0,60-26.916,60-60v-50
				C170,368.916,143.084,342,110,342z M130,452c0,11.028-8.972,20-20,20H60c-11.028,0-20-8.972-20-20v-50c0-11.028,8.972-20,20-20
				h50c11.028,0,20,8.972,20,20V452z"/>
			<polygon points="240,117 240,157 200,157 200,197 280,197 280,117 			"/>
			<rect x="240" width="40" height="40"/>
			<rect x="280" y="77" width="40" height="40"/>
			<path d="M472,197h-73v40h-39v40h40v39h112v-80h-40V197z M472,276h-72v-39h72V276z"/>
			<rect x="280" y="197" width="40" height="80"/>
			<path d="M452,0h-50c-33.084,0-60,26.916-60,60v50c0,33.084,26.916,60,60,60h50c33.084,0,60-26.916,60-60V60
				C512,26.916,485.084,0,452,0z M472,110c0,11.028-8.972,20-20,20h-50c-11.028,0-20-8.972-20-20V60c0-11.028,8.972-20,20-20h50
				c11.028,0,20,8.972,20,20V110z"/>
			<rect x="407" y="65" width="40" height="40"/>
			<rect x="40" y="197" width="40" height="40"/>
			<rect y="237" width="40" height="80"/>
			<polygon points="80,277 119,277 119,317 159,317 159,277 120,277 120,237 80,237 			"/>
			<rect x="200" y="40" width="40" height="77"/>
			<polygon points="240,317 240,356 280,356 280,395 360,395 360,355 280,355 280,316 240,316 240,237 200,237 200,317 			"/>
			<rect x="120" y="197" width="80" height="40"/>
		</g>
	</g>
</g>
<g>
</g>
<g>
</g>
<g>
</g>
<g>
</g>
<g>
</g>
<g>
</g>
<g>
</g>
<g>
</g>
<g>
</g>
<g>
</g>
<g>
</g>
<g>
</g>
<g>
</g>
<g>
</g>
<g>
</g>
</svg>
