<?xml version="1.0" encoding="iso-8859-1"?>
<!-- Generator: Adobe Illustrator 19.0.0, SVG Export Plug-In . SVG Version: 6.00 Build 0)  -->
<svg version="1.1" id="Layer_1" xmlns="http://www.w3.org/2000/svg" xmlns:xlink="http://www.w3.org/1999/xlink" x="0px" y="0px"
	 viewBox="0 0 512.002 512.002" style="enable-background:new 0 0 512.002 512.002;" xml:space="preserve">
<g>
	<g>
		<g>
			<path d="M505.753,112.915L399.086,6.248C395.085,2.248,389.659,0,384.001,0H21.334C9.552,0,0.001,9.551,0.001,21.333v469.333
				C0.001,502.449,9.552,512,21.334,512H127.96c0.014,0,0.027,0.002,0.041,0.002h256c0.014,0,0.027-0.002,0.041-0.002h106.626
				c11.782,0,21.333-9.551,21.333-21.333V128C512.001,122.342,509.754,116.916,505.753,112.915z M341.334,42.669v106.667H170.668
				V42.669H341.334z M362.668,469.333H149.334V320.002h213.333V469.333z M469.334,469.333h-64V298.669
				c0-11.782-9.551-21.333-21.333-21.333h-256c-11.782,0-21.333,9.551-21.333,21.333v170.665h-64V42.667h85.333v128.002
				c0,11.782,9.551,21.333,21.333,21.333h213.333c11.782,0,21.333-9.551,21.333-21.333V51.503l85.333,85.333V469.333z"/>
			<path d="M213.334,384.002h85.333c11.782,0,21.333-9.551,21.333-21.333s-9.551-21.333-21.333-21.333h-85.333
				c-11.782,0-21.333,9.551-21.333,21.333S201.552,384.002,213.334,384.002z"/>
			<path d="M192.001,448.002h128c11.782,0,21.333-9.551,21.333-21.333s-9.551-21.333-21.333-21.333h-128
				c-11.782,0-21.333,9.551-21.333,21.333S180.219,448.002,192.001,448.002z"/>
			<path d="M298.668,128.002c11.782,0,21.333-9.551,21.333-21.333V85.335c0-11.782-9.551-21.333-21.333-21.333
				c-11.782,0-21.333,9.551-21.333,21.333v21.333C277.334,118.451,286.886,128.002,298.668,128.002z"/>
			<path d="M213.334,128.002c11.782,0,21.333-9.551,21.333-21.333V85.335c0-11.782-9.551-21.333-21.333-21.333
				c-11.782,0-21.333,9.551-21.333,21.333v21.333C192.001,118.451,201.552,128.002,213.334,128.002z"/>
		</g>
	</g>
</g>
<g>
</g>
<g>
</g>
<g>
</g>
<g>
</g>
<g>
</g>
<g>
</g>
<g>
</g>
<g>
</g>
<g>
</g>
<g>
</g>
<g>
</g>
<g>
</g>
<g>
</g>
<g>
</g>
<g>
</g>
</svg>
