<?xml version="1.0" encoding="iso-8859-1"?>
<!-- Generator: Adobe Illustrator 19.0.0, SVG Export Plug-In . SVG Version: 6.00 Build 0)  -->
<svg version="1.1" id="Capa_1" xmlns="http://www.w3.org/2000/svg" xmlns:xlink="http://www.w3.org/1999/xlink" x="0px" y="0px"
	 viewBox="0 0 512 512" style="enable-background:new 0 0 512 512;" xml:space="preserve">
<g>
	<g>
		<g>
			<path d="M472.323,196.338H444.98c-2.971-9.452-6.597-18.482-10.837-27.025l19.768-19.768c7.338-7.333,29.66-29.654,1.738-57.583
				l-28.959-28.959c-3.4-3.4-13.889-13.559-28.148-13.57c-13.402,0.151-23.37,8.966-29.434,15.308l-18.378,18.372
				c-11.161-5.989-22.791-10.999-34.786-14.978V41.701c0-10.315,0-41.701-39.385-41.701h-41.122
				c-26.498,0-39.385,13.64-39.385,41.701v24.992c-12.082,3.817-23.776,8.856-34.977,15.076l-18.181-18.181
				c-6.84-6.84-16.287-14.758-28.716-15.285c-13.09-0.481-22.791,7.466-28.872,13.547L56.346,90.811
				c-27.917,27.923-5.595,50.244,1.743,57.583l19.93,19.93c-4.379,8.966-8.028,17.943-10.923,26.863H39.677
				c-26.504,0-39.385,13.64-39.385,41.701v36.489c0,28.062,12.881,41.701,39.385,41.701h27.534
				c3.863,12.534,9.047,24.662,15.499,36.251l-19.988,20.387c-19.687,19.681-20.272,39.055-1.738,57.583l28.959,28.959
				c25.038,25.021,44.858,10.993,57.583-1.738l22.084-22.084c8.555,4.245,17.584,7.865,27.025,10.842v25.021
				c0,28.061,12.881,41.701,39.385,41.701h41.122c26.498,0,39.385-13.64,39.379-41.707v-25.021
				c9.447-2.977,18.47-6.597,27.025-10.842l22.664,22.664c19.675,19.681,39.049,20.266,57.583,1.738l28.959-28.959
				c5.977-5.983,13.912-15.401,13.779-28.108c-0.139-13.229-9.076-23.306-15.516-29.475l-21.082-21.088
				c6.232-11.201,11.271-22.895,15.076-34.977h27.314c26.498,0,39.385-13.634,39.385-41.696v-36.489
				C511.708,227.724,511.708,196.338,472.323,196.338z M476.956,274.54c0,3.388-0.214,5.479-0.423,6.724
				c-0.909,0.116-2.265,0.22-4.211,0.22H431.78c-8.068,0-15.07,5.549-16.912,13.397c-4.112,17.462-11.294,34.108-21.366,49.48
				c-4.506,6.886-3.568,15.985,2.253,21.806l30.957,30.963c2.386,2.282,3.713,3.875,4.437,4.877c-0.573,0.753-1.494,1.83-2.96,3.301
				l-28.959,28.959c-1.419,1.413-2.462,2.294-3.174,2.826c-1.031-0.695-2.74-2.033-5.271-4.564l-31.855-31.855
				c-5.641-5.635-14.393-6.724-21.227-2.612c-12.644,7.587-26.99,13.35-42.622,17.121c-7.807,1.877-13.304,8.862-13.304,16.889
				v38.226c0,3.388-0.214,5.485-0.423,6.73c-0.909,0.116-2.265,0.22-4.211,0.22h-41.122c-1.935,0-3.284-0.099-4.188-0.214
				c-0.214-1.245-0.446-3.359-0.446-6.736v-38.232c0-8.028-5.497-15.013-13.304-16.889c-15.632-3.771-29.973-9.528-42.622-17.121
				c-6.84-4.118-15.592-3.023-21.227,2.612l-31.276,31.276c-2.473,2.473-4.164,3.863-5.23,4.639c-0.747-0.585-1.807-1.5-3.215-2.902
				l-28.959-28.959c-1.413-1.419-2.294-2.462-2.826-3.174c0.712-1.043,2.085-2.792,4.686-5.392l29.538-30.118
				c5.722-5.832,6.609-14.856,2.131-21.69c-9.725-14.833-16.762-30.876-20.938-47.69c-0.544-9.111-8.103-16.333-17.347-16.333
				H39.677c-1.934,0-3.284-0.098-4.188-0.214c-0.214-1.245-0.446-3.359-0.446-6.736v-36.489c0-3.388,0.214-5.485,0.423-6.742
				c0.909-0.116,2.265-0.22,4.211-0.22H80.22c8.028,0,15.007-5.497,16.889-13.298c3.388-14.034,9.238-28.531,17.387-43.08
				c3.799-6.788,2.624-15.273-2.879-20.775l-28.959-28.959c-2.531-2.537-3.881-4.222-4.581-5.242
				c0.539-0.718,1.419-1.772,2.844-3.203l28.959-28.959c1.419-1.413,2.461-2.294,3.174-2.826c1.031,0.701,2.74,2.044,5.271,4.57
				l27.801,27.801c5.821,5.821,14.926,6.753,21.806,2.253c15.366-10.066,32.012-17.26,49.48-21.366
				c7.848-1.848,13.397-8.85,13.397-16.912V41.701c0-3.388,0.214-5.485,0.423-6.724c0.909-0.122,2.265-0.226,4.211-0.226h41.122
				c1.958,0,3.319,0.11,4.228,0.226c0.203,1.245,0.405,3.342,0.405,6.724v39.39c0,7.883,5.311,14.775,12.927,16.796
				c17.729,4.691,34.653,11.995,50.308,21.714c6.846,4.245,15.748,3.232,21.447-2.479l28.073-28.079
				c2.334-2.433,3.921-3.713,4.871-4.361c0.718,0.51,1.801,1.402,3.301,2.896l28.959,28.959c1.425,1.431,2.305,2.485,2.844,3.209
				c-0.701,1.014-2.044,2.699-4.581,5.236l-28.959,28.959c-5.635,5.641-6.713,14.393-2.612,21.227
				c7.582,12.632,13.344,26.979,17.121,42.628c1.882,7.802,8.862,13.298,16.889,13.298h40.543c1.952,0,3.313,0.11,4.222,0.232
				c0.203,1.245,0.405,3.342,0.405,6.724V274.54z"/>
			<path d="M256.872,168.543c-48.229,0-87.457,39.228-87.457,87.457c0,48.229,39.234,87.457,87.457,87.457
				s87.463-39.234,87.463-87.457C344.334,207.777,305.1,168.543,256.872,168.543z M256.872,308.706
				c-29.064,0-52.706-23.648-52.706-52.706s23.642-52.706,52.706-52.706c29.069,0,52.712,23.642,52.712,52.706
				C309.583,285.063,285.941,308.706,256.872,308.706z"/>
		</g>
	</g>
</g>
<g>
</g>
<g>
</g>
<g>
</g>
<g>
</g>
<g>
</g>
<g>
</g>
<g>
</g>
<g>
</g>
<g>
</g>
<g>
</g>
<g>
</g>
<g>
</g>
<g>
</g>
<g>
</g>
<g>
</g>
</svg>
