<?xml version="1.0" encoding="iso-8859-1"?>
<!-- Generator: Adobe Illustrator 19.0.0, SVG Export Plug-In . SVG Version: 6.00 Build 0)  -->
<svg version="1.1" id="Capa_1" xmlns="http://www.w3.org/2000/svg" xmlns:xlink="http://www.w3.org/1999/xlink" x="0px" y="0px"
	 viewBox="0 0 500.016 500.016" style="enable-background:new 0 0 500.016 500.016;" xml:space="preserve">
<g>
	<g>
		<path d="M450.512,198.543h49.504v-32h-43.392l-33.92-13.44l41.312-41.312c23.492-23.561,23.492-61.687,0-85.248
			c-23.851-22.78-61.397-22.78-85.248,0l-60.64,60.64l-245.92,32.8l-65.76,185.28c-8.756,25.805,3.855,53.998,28.928,64.672
			L22.704,382.59L0,490.559l108.016-22.72l20.8-20.72c8.273,4.783,17.644,7.341,27.2,7.424h154.896l128-48h61.104v-32H433.12
			l-128,48H156.016c-13.255,0-24-10.745-24-24s10.745-24,24-24H282.64l80.4-80.384l-42.096-39.296l77.104-77.12L450.512,198.543z
			 M401.392,49.166c11.192-10.687,28.808-10.687,40,0c11.026,11.054,11.026,28.946,0,40l-22.064,22.064l-40-40L401.392,49.166z
			 M36.688,315.663h0.016l59.2-166.56l184.912-24.672l-58.048,58.112h-63.12l-40.784,24.08l-42.64,120.944
			c-0.372,0.991-0.827,1.949-1.36,2.864l-10.048,10.032c-2.629,1.305-5.513,2.015-8.448,2.08
			c-11.399,0.003-20.643-9.235-20.646-20.634C35.722,319.789,36.047,317.683,36.688,315.663z M190.768,214.543l-62.976,62.976
			l17.376-49.28l23.216-13.696H190.768z M269.392,342.543h-36.128l65.04-65.04l18.688,17.424L269.392,342.543z M188.016,342.543h-32
			c-30.928,0-56,25.072-56,56c0.027,8.926,2.223,17.712,6.4,25.6l-14.4,14.4L41.36,449.199l10.656-50.656l32-32
			c6.969-4.294,12.832-10.163,17.12-17.136L356.704,93.855l40,40L188.016,342.543z"/>
	</g>
</g>
<g>
</g>
<g>
</g>
<g>
</g>
<g>
</g>
<g>
</g>
<g>
</g>
<g>
</g>
<g>
</g>
<g>
</g>
<g>
</g>
<g>
</g>
<g>
</g>
<g>
</g>
<g>
</g>
<g>
</g>
</svg>
