<?xml version="1.0" encoding="iso-8859-1"?>
<!-- Generator: Adobe Illustrator 19.0.0, SVG Export Plug-In . SVG Version: 6.00 Build 0)  -->
<svg version="1.1" id="Layer_1" xmlns="http://www.w3.org/2000/svg" xmlns:xlink="http://www.w3.org/1999/xlink" x="0px" y="0px"
	 viewBox="0 0 512.062 512.062" style="enable-background:new 0 0 512.062 512.062;" xml:space="preserve">
<g>
	<g>
		<path d="M493.516,170.854l-148.833-19.839L275.114,11.797c-7.86-15.729-30.306-15.729-38.167,0l-69.569,139.217L18.545,170.854
			c-17.92,2.389-24.932,24.589-11.635,36.837l107.39,98.922L85.628,487.324c-2.966,18.692,18.069,31.703,33.469,20.703
			l136.934-97.81l136.934,97.81c15.401,11,36.435-2.011,33.47-20.703l-28.673-180.711l107.39-98.922
			C518.448,195.442,511.437,173.242,493.516,170.854z M360.447,282.976c-5.252,4.838-7.735,11.982-6.616,19.034l22.481,141.688
			L268.431,366.64c-7.418-5.298-17.382-5.298-24.799,0L135.75,443.698l22.481-141.688c1.119-7.052-1.364-14.196-6.616-19.034
			l-82.333-75.841l114.944-15.322c7.011-0.935,13.103-5.283,16.265-11.61l55.541-111.145l55.541,111.145
			c3.162,6.327,9.254,10.676,16.265,11.61l114.944,15.322L360.447,282.976z"/>
	</g>
</g>
<g>
</g>
<g>
</g>
<g>
</g>
<g>
</g>
<g>
</g>
<g>
</g>
<g>
</g>
<g>
</g>
<g>
</g>
<g>
</g>
<g>
</g>
<g>
</g>
<g>
</g>
<g>
</g>
<g>
</g>
</svg>
