<?xml version="1.0" encoding="iso-8859-1"?>
<!-- Generator: Adobe Illustrator 19.0.0, SVG Export Plug-In . SVG Version: 6.00 Build 0)  -->
<svg version="1.1" id="Capa_1" xmlns="http://www.w3.org/2000/svg" xmlns:xlink="http://www.w3.org/1999/xlink" x="0px" y="0px"
	 viewBox="0 0 512 512" style="enable-background:new 0 0 512 512;" xml:space="preserve">
<g>
	<g>
		<path d="M394.708,146.07c-3.382-5.612-9.449-9.038-16.002-9.038h-64.511l28.446-113.811c1.401-5.581,0.143-11.498-3.401-16.033
			C335.703,2.653,330.272,0,324.516,0H180.01c-9.057,0-16.805,6.49-18.393,15.404l-46.715,261.606
			c-0.972,5.444,0.517,11.037,4.067,15.279c3.55,4.236,8.795,6.69,14.326,6.69h59.353L181.904,492.28
			c-0.486,8.77,5.201,16.693,13.666,19.041c1.657,0.461,3.339,0.679,4.995,0.679c6.795,0,13.23-3.719,16.525-9.96l178.141-337.602
			C398.283,158.651,398.09,151.682,394.708,146.07z M223.96,408.921l7.094-127.595c0.286-5.132-1.551-10.147-5.083-13.878
			c-3.525-3.725-8.434-5.843-13.572-5.843h-56.787l40.044-224.234h104.923l-28.447,113.811c-1.401,5.581-0.143,11.498,3.401,16.033
			c3.538,4.535,8.969,7.188,14.725,7.188h57.46L223.96,408.921z"/>
	</g>
</g>
<g>
</g>
<g>
</g>
<g>
</g>
<g>
</g>
<g>
</g>
<g>
</g>
<g>
</g>
<g>
</g>
<g>
</g>
<g>
</g>
<g>
</g>
<g>
</g>
<g>
</g>
<g>
</g>
<g>
</g>
</svg>
