<?xml version="1.0" encoding="iso-8859-1"?>
<!-- Generator: Adobe Illustrator 19.0.0, SVG Export Plug-In . SVG Version: 6.00 Build 0)  -->
<svg version="1.1" id="Capa_1" xmlns="http://www.w3.org/2000/svg" xmlns:xlink="http://www.w3.org/1999/xlink" x="0px" y="0px"
	 viewBox="0 0 512 512" style="enable-background:new 0 0 512 512;" xml:space="preserve">
<g>
	<g>
		<polygon points="512,338.954 483.732,310.686 411.772,382.646 339.812,310.686 311.543,338.954 383.503,410.914 311.543,482.874 
			339.812,511.142 411.772,439.182 483.732,511.142 512,482.874 440.04,410.914 		"/>
	</g>
</g>
<g>
	<g>
		<path d="M255.858,0.142c-81.562,0-147.918,66.356-147.918,147.918c0,50.52,25.465,95.198,64.226,121.894
			c-36.19,12.488-69.36,33.118-97.227,60.984C26.614,379.265,0,443.516,0,511.858h39.978c0-119.037,96.843-215.88,215.88-215.88
			c81.562,0,147.918-66.355,147.918-147.918C403.776,66.498,337.42,0.142,255.858,0.142z M255.858,256
			c-59.518,0-107.94-48.421-107.94-107.94S196.34,40.12,255.858,40.12c59.518,0,107.94,48.421,107.94,107.94
			S315.376,256,255.858,256z"/>
	</g>
</g>
<g>
</g>
<g>
</g>
<g>
</g>
<g>
</g>
<g>
</g>
<g>
</g>
<g>
</g>
<g>
</g>
<g>
</g>
<g>
</g>
<g>
</g>
<g>
</g>
<g>
</g>
<g>
</g>
<g>
</g>
</svg>
