<?xml version="1.0" encoding="iso-8859-1"?>
<!-- Generator: Adobe Illustrator 19.0.0, SVG Export Plug-In . SVG Version: 6.00 Build 0)  -->
<svg version="1.1" id="Capa_1" xmlns="http://www.w3.org/2000/svg" xmlns:xlink="http://www.w3.org/1999/xlink" x="0px" y="0px"
	 viewBox="0 0 512 512" style="enable-background:new 0 0 512 512;" xml:space="preserve">
<g>
	<g>
		<g>
			<circle cx="100" cy="280" r="20"/>
			<path d="M492,337c11.046,0,20-8.954,20-20v-89c0-7.215-3.886-13.871-10.169-17.417c-6.284-3.546-13.99-3.435-20.167,0.294
				l-80.666,48.69c-0.152-28.217-14.999-53.006-37.25-67.135C386.577,172.262,401,142.786,401,110C401,49.346,351.654,0,291,0
				c-60.481,0-109.713,49.065-109.993,109.482C172.229,68.126,135.433,37,91.5,37C41.047,37,0,78.047,0,128.5
				c0,27.207,11.94,51.673,30.85,68.448C12.094,211.601,0,234.408,0,260v172c0,44.112,35.888,80,80,80h241c44.112,0,80-35.888,80-80
				v-0.84l80.778,48.03c6.182,3.676,13.86,3.748,20.11,0.194C508.139,475.829,512,469.191,512,462v-45c0-11.046-8.954-20-20-20
				c-11.046,0-20,8.954-20,20v9.84l-80.778-48.03c-6.182-3.677-13.86-3.748-20.11-0.194C364.861,382.171,361,388.809,361,396v36
				c0,22.056-17.944,40-40,40H80c-22.056,0-40-17.944-40-40V260c0-22.056,17.944-40,40-40h241c22.056,0,40,17.944,40,40v35
				c0,7.215,3.886,13.87,10.169,17.417c6.283,3.546,13.989,3.435,20.167-0.295L472,263.433V317C472,328.046,480.954,337,492,337z
				 M91.5,180C63.103,180,40,156.897,40,128.5C40,100.103,63.103,77,91.5,77c28.397,0,51.5,23.103,51.5,51.5
				C143,156.897,119.897,180,91.5,180z M167.09,180c9.638-14.102,15.439-31.023,15.881-49.251
				c3.539,18.461,11.7,35.299,23.238,49.251H167.09z M291,180c-38.598,0-70-31.402-70-70c0-38.598,31.402-70,70-70s70,31.402,70,70
				C361,148.598,329.598,180,291,180z"/>
		</g>
	</g>
</g>
<g>
</g>
<g>
</g>
<g>
</g>
<g>
</g>
<g>
</g>
<g>
</g>
<g>
</g>
<g>
</g>
<g>
</g>
<g>
</g>
<g>
</g>
<g>
</g>
<g>
</g>
<g>
</g>
<g>
</g>
</svg>
