<?xml version="1.0" encoding="iso-8859-1"?>
<!-- Generator: Adobe Illustrator 19.0.0, SVG Export Plug-In . SVG Version: 6.00 Build 0)  -->
<svg version="1.1" id="Layer_1" xmlns="http://www.w3.org/2000/svg" xmlns:xlink="http://www.w3.org/1999/xlink" x="0px" y="0px"
	 viewBox="0 0 512.068 512.068" style="enable-background:new 0 0 512.068 512.068;" xml:space="preserve">
<g transform="translate(0 -1)">
	<g>
		<path d="M505.786,7.283c-8.331-8.331-21.839-8.331-30.17,0l-48.915,48.915v-33.83c0-16.756-18.431-26.971-32.64-18.091
			L228.582,107.701H106.701c-11.782,0-21.333,9.551-21.333,21.333v256c0,3.616,0.907,7.018,2.495,10.002l-81.58,81.58
			c-8.331,8.331-8.331,21.839,0,30.17c8.331,8.331,21.839,8.331,30.17,0l100.418-100.418h91.712l165.478,103.424
			c14.209,8.881,32.64-1.335,32.64-18.091V116.537l79.085-79.085C514.117,29.121,514.117,15.614,505.786,7.283z M128.034,150.367
			h85.333c0,11.782,9.551,21.333,21.333,21.333c11.782,0,21.333-9.551,21.333-21.333v-9.509l128-80v38.006l-256,256V150.367z
			 M384.034,453.21l-128-80v-9.509c0-11.782-9.551-21.333-21.333-21.333c-11.782,0-21.333,9.551-21.333,21.333h-33.83
			l204.497-204.497V453.21z"/>
	</g>
</g>
<g>
</g>
<g>
</g>
<g>
</g>
<g>
</g>
<g>
</g>
<g>
</g>
<g>
</g>
<g>
</g>
<g>
</g>
<g>
</g>
<g>
</g>
<g>
</g>
<g>
</g>
<g>
</g>
<g>
</g>
</svg>
