<?xml version="1.0" encoding="iso-8859-1"?>
<!-- Generator: Adobe Illustrator 19.0.0, SVG Export Plug-In . SVG Version: 6.00 Build 0)  -->
<svg version="1.1" id="Capa_1" xmlns="http://www.w3.org/2000/svg" xmlns:xlink="http://www.w3.org/1999/xlink" x="0px" y="0px"
	 viewBox="0 0 512 512" style="enable-background:new 0 0 512 512;" xml:space="preserve">
<g>
	<g>
		<g>
			<path d="M60.031,84.934c3.842,3.529,8.69,5.271,13.525,5.271c5.403,0,10.791-2.177,14.734-6.47
				c7.473-8.134,6.936-20.786-1.198-28.259L33.531,6.272C25.396-1.201,12.745-0.665,5.272,7.47
				c-7.473,8.134-6.936,20.786,1.198,28.259L60.031,84.934z"/>
			<path d="M302,0C186.206,0,92,94.206,92,210c0,50.944,18.24,97.704,48.526,134.107L5.907,477.81
				c-7.837,7.784-7.881,20.447-0.097,28.284C9.72,510.03,14.859,512,20.001,512c5.095,0,10.192-1.936,14.093-5.81l134.801-133.884
				C205.152,402.094,251.523,420,302,420c36.026,0,71.575-9.283,102.804-26.846c9.628-5.415,13.043-17.608,7.628-27.236
				c-5.414-9.628-17.61-13.041-27.236-7.629C359.941,372.492,331.172,380,302,380c-93.738,0-170-76.262-170-170
				c0-17.987,2.817-35.325,8.018-51.609l81.732,74.956c11.299,10.363,26.088,15.917,41.599,15.65
				c15.711-0.274,30.407-6.468,41.381-17.442l50.451-50.451c3.849-3.85,8.962-6.075,14.027-6.104
				c0.034-0.001,0.067-0.001,0.101-0.001c5.006,0,10.075,2.142,13.937,5.888l80.809,80.486c-3.591,11.359-8.353,22.34-14.272,32.718
				c-5.473,9.594-2.132,21.808,7.463,27.282c9.594,5.472,21.81,2.131,27.282-7.464c9.027-15.824,15.912-32.765,20.534-50.329
				c0.866-2.02,1.388-4.148,1.558-6.303C510.177,241.838,512,225.971,512,210C512,94.206,417.794,0,302,0z M471.955,212.786
				l-60.561-60.317c-0.045-0.045-0.091-0.09-0.136-0.135C399.811,141.148,384.929,135,369.32,135c-0.114,0-0.229,0.001-0.343,0.001
				c-15.737,0.09-30.681,6.419-42.081,17.818l-50.451,50.451c-3.605,3.605-8.503,5.641-13.794,5.733
				c-5.228,0.098-10.156-1.733-13.866-5.136l-91.126-83.573C187.705,72.125,241.167,40,302,40c93.738,0,170,76.262,170,170
				C472,210.93,471.97,211.857,471.955,212.786z"/>
		</g>
	</g>
</g>
<g>
</g>
<g>
</g>
<g>
</g>
<g>
</g>
<g>
</g>
<g>
</g>
<g>
</g>
<g>
</g>
<g>
</g>
<g>
</g>
<g>
</g>
<g>
</g>
<g>
</g>
<g>
</g>
<g>
</g>
</svg>
