<?xml version="1.0" encoding="iso-8859-1"?>
<!-- Generator: Adobe Illustrator 19.0.0, SVG Export Plug-In . SVG Version: 6.00 Build 0)  -->
<svg version="1.1" id="Capa_1" xmlns="http://www.w3.org/2000/svg" xmlns:xlink="http://www.w3.org/1999/xlink" x="0px" y="0px"
	 viewBox="0 0 512 512" style="enable-background:new 0 0 512 512;" xml:space="preserve">
<g>
	<g>
		<path d="M448.155,81.821h-30.993V18.596C417.162,8.325,408.838,0,398.567,0H104.755C71.947,0,45.249,26.697,45.249,59.506v392.988
			c0,32.809,26.697,59.506,59.506,59.506h343.4c10.271,0,18.596-8.325,18.596-18.596V100.416
			C466.751,90.145,458.426,81.821,448.155,81.821z M104.755,37.191h275.216v44.63H104.755c-12.719,0-22.315-9.595-22.315-22.315
			C82.441,47.406,92.656,37.191,104.755,37.191z M429.559,474.809H104.755c-12.1,0-22.315-10.221-22.315-22.315v-337.66
			c6.862,2.703,14.387,4.178,22.315,4.178h324.804V474.809z"/>
	</g>
</g>
<g>
	<g>
		<path d="M236.165,101.036v153.662l-20.158-12.143c-5.901-3.558-13.296-3.558-19.197,0l-20.151,12.143V101.036h-37.191v186.576
			c0,6.707,3.614,12.893,9.453,16.197c5.839,3.298,13.005,3.198,18.744-0.267l38.747-23.35l38.753,23.344
			c2.944,1.779,6.267,2.672,9.595,2.672c3.149,0,6.304-0.8,9.149-2.405c5.839-3.298,9.447-9.484,9.447-16.191V101.036H236.165z"/>
	</g>
</g>
<g>
</g>
<g>
</g>
<g>
</g>
<g>
</g>
<g>
</g>
<g>
</g>
<g>
</g>
<g>
</g>
<g>
</g>
<g>
</g>
<g>
</g>
<g>
</g>
<g>
</g>
<g>
</g>
<g>
</g>
</svg>
