<?xml version="1.0" encoding="iso-8859-1"?>
<!-- Generator: Adobe Illustrator 19.0.0, SVG Export Plug-In . SVG Version: 6.00 Build 0)  -->
<svg version="1.1" id="Capa_1" xmlns="http://www.w3.org/2000/svg" xmlns:xlink="http://www.w3.org/1999/xlink" x="0px" y="0px"
	 viewBox="0 0 512 512" style="enable-background:new 0 0 512 512;" xml:space="preserve">
<g>
	<g>
		<path d="M474.988,49.349H37.012c-17.007,0-30.843,13.836-30.843,30.843v400.964C6.169,498.164,20.005,512,37.012,512h437.976
			c17.007,0,30.843-13.836,30.843-30.843V80.193C505.831,63.186,491.995,49.349,474.988,49.349z M468.819,474.988H43.181V86.361
			h425.639V474.988z"/>
	</g>
</g>
<g>
	<g>
		<rect x="24.675" y="172.723" width="462.651" height="37.012"/>
	</g>
</g>
<g>
	<g>
		<path d="M135.711,0c-10.221,0-18.506,8.285-18.506,18.506v98.699c0,10.221,8.285,18.506,18.506,18.506s18.506-8.285,18.506-18.506
			V18.506C154.217,8.285,145.932,0,135.711,0z"/>
	</g>
</g>
<g>
	<g>
		<path d="M382.458,0c-10.221,0-18.506,8.285-18.506,18.506v98.699c0,10.221,8.285,18.506,18.506,18.506s18.506-8.285,18.506-18.506
			V18.506C400.964,8.285,392.679,0,382.458,0z"/>
	</g>
</g>
<g>
	<g>
		<path d="M326.94,370.12H191.229c-10.221,0-18.506,8.285-18.506,18.506c0,10.221,8.285,18.506,18.506,18.506H326.94
			c10.221,0,18.506-8.285,18.506-18.506C345.446,378.405,337.161,370.12,326.94,370.12z"/>
	</g>
</g>
<g>
	<g>
		<path d="M326.94,283.759H191.229c-10.221,0-18.506,8.285-18.506,18.506s8.285,18.506,18.506,18.506H326.94
			c10.221,0,18.506-8.284,18.506-18.506S337.161,283.759,326.94,283.759z"/>
	</g>
</g>
<g>
</g>
<g>
</g>
<g>
</g>
<g>
</g>
<g>
</g>
<g>
</g>
<g>
</g>
<g>
</g>
<g>
</g>
<g>
</g>
<g>
</g>
<g>
</g>
<g>
</g>
<g>
</g>
<g>
</g>
</svg>
