<?xml version="1.0" encoding="iso-8859-1"?>
<!-- Generator: Adobe Illustrator 19.0.0, SVG Export Plug-In . SVG Version: 6.00 Build 0)  -->
<svg version="1.1" id="Capa_1" xmlns="http://www.w3.org/2000/svg" xmlns:xlink="http://www.w3.org/1999/xlink" x="0px" y="0px"
	 viewBox="0 0 512 512" style="enable-background:new 0 0 512 512;" xml:space="preserve">
<g>
	<g>
		<path d="M493.13,58.496h-77.995v37.739h59.125v369.848H37.74V96.236h59.125V58.496H18.87C8.447,58.496,0,66.944,0,77.366v407.587
			c0,10.422,8.447,18.87,18.87,18.87h474.26c10.429,0,18.87-8.447,18.87-18.87V77.366C512,66.944,503.553,58.496,493.13,58.496z"/>
	</g>
</g>
<g>
	<g>
		<rect x="157.876" y="59.139" transform="matrix(1 -0.0063 0.0063 1 -0.4864 1.6163)" width="196.879" height="37.74"/>
	</g>
</g>
<g>
	<g>
		<rect x="20.757" y="184.924" width="470.487" height="37.74"/>
	</g>
</g>
<g>
	<g>
		<path d="M157.877,8.177H96.865c-10.422,0-18.87,8.447-18.87,18.87v100.639c0,10.422,8.447,18.87,18.87,18.87h61.012
			c10.422,0,18.87-8.447,18.87-18.87V27.047C176.747,16.624,168.3,8.177,157.877,8.177z M139.007,108.816h-23.273V45.916h23.273
			V108.816z"/>
	</g>
</g>
<g>
	<g>
		<path d="M415.764,8.177h-61.012c-10.422,0-18.87,8.447-18.87,18.87v100.639c0,10.422,8.447,18.87,18.87,18.87h61.012
			c10.422,0,18.87-8.447,18.87-18.87V27.047C434.634,16.624,426.187,8.177,415.764,8.177z M396.894,108.816h-23.273V45.916h23.273
			V108.816z"/>
	</g>
</g>
<g>
	<g>
		<path d="M380.333,254.283c-7.202-7.535-19.153-7.793-26.676-0.598L223.582,378.056l-64.943-64.95
			c-7.372-7.366-19.323-7.378-26.688,0c-7.366,7.365-7.366,19.31,0,26.682l77.995,77.995c3.686,3.68,8.51,5.529,13.347,5.529
			c4.692,0,9.391-1.736,13.033-5.233l143.41-137.12C387.271,273.763,387.541,261.812,380.333,254.283z"/>
	</g>
</g>
<g>
</g>
<g>
</g>
<g>
</g>
<g>
</g>
<g>
</g>
<g>
</g>
<g>
</g>
<g>
</g>
<g>
</g>
<g>
</g>
<g>
</g>
<g>
</g>
<g>
</g>
<g>
</g>
<g>
</g>
</svg>
