<?xml version="1.0" encoding="iso-8859-1"?>
<!-- Generator: Adobe Illustrator 19.0.0, SVG Export Plug-In . SVG Version: 6.00 Build 0)  -->
<svg version="1.1" id="Capa_1" xmlns="http://www.w3.org/2000/svg" xmlns:xlink="http://www.w3.org/1999/xlink" x="0px" y="0px"
	 viewBox="0 0 512 512" style="enable-background:new 0 0 512 512;" xml:space="preserve">
<g>
	<g>
		<path d="M301.894,36.571h-91.07c-11.882,0-21.513,9.63-21.513,21.513v395.115c0,11.882,9.63,21.513,21.513,21.513h91.07
			c11.882,0,21.513-9.63,21.513-21.513V58.084C323.406,46.202,313.776,36.571,301.894,36.571z M280.381,431.686h-48.045V79.597
			h48.045V431.686z"/>
	</g>
</g>
<g>
	<g>
		<path d="M112.583,215.126h-91.07C9.63,215.126,0,224.757,0,236.639v217.277c0,11.882,9.63,21.513,21.513,21.513h91.07
			c11.882,0,21.513-9.623,21.513-21.513V236.639C134.095,224.757,124.465,215.126,112.583,215.126z M91.07,432.403H43.025V258.151
			H91.07V432.403z"/>
	</g>
</g>
<g>
	<g>
		<path d="M490.487,164.213h-91.07c-11.882,0-21.513,9.63-21.513,21.513v268.191c0,11.882,9.63,21.513,21.513,21.513h91.07
			c11.889,0,21.513-9.623,21.513-21.513V185.725C512,173.843,502.37,164.213,490.487,164.213z M468.975,432.403H420.93V207.238
			h48.045V432.403z"/>
	</g>
</g>
<g>
</g>
<g>
</g>
<g>
</g>
<g>
</g>
<g>
</g>
<g>
</g>
<g>
</g>
<g>
</g>
<g>
</g>
<g>
</g>
<g>
</g>
<g>
</g>
<g>
</g>
<g>
</g>
<g>
</g>
</svg>
