<?xml version="1.0" encoding="iso-8859-1"?>
<!-- Generator: Adobe Illustrator 19.0.0, SVG Export Plug-In . SVG Version: 6.00 Build 0)  -->
<svg version="1.1" id="Capa_1" xmlns="http://www.w3.org/2000/svg" xmlns:xlink="http://www.w3.org/1999/xlink" x="0px" y="0px"
	 viewBox="0 0 512 512" style="enable-background:new 0 0 512 512;" xml:space="preserve">
<g>
	<g>
		<path d="M418.909,273.612h-181.15V92.462c0-10.422-8.447-18.87-18.87-18.87c-58.578,0-113.577,22.738-154.984,64.138
			C22.694,179.665,0,234.627,0,292.482c0,120.697,98.192,218.889,218.889,218.889c58.578,0,113.577-22.738,154.984-64.138
			c41.212-41.935,63.906-96.896,63.906-154.751C437.779,282.059,429.331,273.612,418.909,273.612z M347.072,420.664
			c-34.161,34.161-79.681,52.967-128.182,52.967c-99.89,0-181.15-81.266-181.15-181.15c0-47.898,18.851-93.462,52.967-128.176
			c29.688-29.688,67.963-47.785,109.313-52.011v180.188c0,10.422,8.447,18.87,18.87,18.87h180.169
			C394.781,352.248,376.672,390.535,347.072,420.664z"/>
	</g>
</g>
<g>
	<g>
		<path d="M447.862,64.535C405.927,23.323,350.965,0.629,293.111,0.629c-10.422,0-18.87,8.447-18.87,18.87v200.02
			c0,10.422,8.447,18.87,18.87,18.87h200.02c10.429,0,18.87-8.447,18.87-18.87C512,161.664,489.306,106.709,447.862,64.535z
			 M311.987,200.649V39.356c40.897,4.271,79.171,22.367,109.193,51.867c29.701,30.223,47.829,68.529,52.106,109.426H311.987z"/>
	</g>
</g>
<g>
</g>
<g>
</g>
<g>
</g>
<g>
</g>
<g>
</g>
<g>
</g>
<g>
</g>
<g>
</g>
<g>
</g>
<g>
</g>
<g>
</g>
<g>
</g>
<g>
</g>
<g>
</g>
<g>
</g>
</svg>
