<?xml version="1.0" encoding="iso-8859-1"?>
<!-- Generator: Adobe Illustrator 16.0.0, SVG Export Plug-In . SVG Version: 6.00 Build 0)  -->
<!DOCTYPE svg PUBLIC "-//W3C//DTD SVG 1.1//EN" "http://www.w3.org/Graphics/SVG/1.1/DTD/svg11.dtd">
<svg version="1.1" id="Capa_1" xmlns="http://www.w3.org/2000/svg" xmlns:xlink="http://www.w3.org/1999/xlink" x="0px" y="0px"
	 width="600.112px" height="600.113px" viewBox="0 0 600.112 600.113" style="enable-background:new 0 0 600.112 600.113;"
	 xml:space="preserve">
<g>
	<g>
		<g>
			<path d="M21.92,446.988c-11.83,0-21.42,9.59-21.42,21.42s9.59,21.42,21.42,21.42h30.642v47.597
				c0,32.058,26.082,58.14,58.14,58.14h430.77c32.059,0,58.141-26.082,58.141-58.14V62.688c0-32.059-26.082-58.14-58.141-58.14
				h-430.77c-32.059,0-58.14,26.082-58.14,58.14v47.596H21.92c-11.83,0-21.42,9.59-21.42,21.42s9.59,21.42,21.42,21.42h30.642
				v125.512H21.92c-11.83,0-21.42,9.59-21.42,21.42s9.59,21.42,21.42,21.42h30.642v125.512H21.92z M556.772,62.688v474.736
				c0,8.45-6.85,15.3-15.3,15.3H207.398V47.388h334.073C549.922,47.388,556.772,54.238,556.772,62.688z M95.402,321.476h24.444
				c11.83,0,21.42-9.59,21.42-21.42s-9.59-21.42-21.42-21.42H95.402V153.125h24.444c11.83,0,21.42-9.59,21.42-21.42
				s-9.59-21.42-21.42-21.42H95.402V62.688c0-8.45,6.85-15.3,15.3-15.3h53.856v505.336h-53.856c-8.45,0-15.3-6.85-15.3-15.3v-47.597
				h24.444c11.83,0,21.42-9.59,21.42-21.42c0-11.829-9.59-21.42-21.42-21.42H95.402V321.476L95.402,321.476z"/>
			<path d="M541.472,596.064h-430.77c-32.334,0-58.64-26.306-58.64-58.64v-47.097H21.92c-12.087,0-21.92-9.833-21.92-21.92
				s9.833-21.92,21.92-21.92h30.142V321.976H21.92c-12.087,0-21.92-9.833-21.92-21.92s9.833-21.92,21.92-21.92h30.142V153.625H21.92
				c-12.087,0-21.92-9.833-21.92-21.92c0-12.086,9.833-21.92,21.92-21.92h30.142V62.688c0-32.334,26.306-58.64,58.64-58.64h430.77
				c32.335,0,58.641,26.306,58.641,58.64v474.736C600.112,569.758,573.807,596.064,541.472,596.064z M21.92,447.488
				c-11.535,0-20.92,9.385-20.92,20.92s9.385,20.92,20.92,20.92h31.142v48.097c0,31.782,25.857,57.64,57.64,57.64h430.77
				c31.783,0,57.641-25.857,57.641-57.64V62.688c0-31.783-25.857-57.64-57.641-57.64h-430.77c-31.783,0-57.64,25.857-57.64,57.64
				v48.096H21.92c-11.535,0-20.92,9.385-20.92,20.92s9.385,20.92,20.92,20.92h31.142v126.512H21.92
				c-11.535,0-20.92,9.385-20.92,20.92s9.385,20.92,20.92,20.92h31.142v126.512H21.92z M541.473,553.224H206.898V46.888h334.573
				c8.713,0,15.801,7.088,15.801,15.8v474.736C557.272,546.136,550.185,553.224,541.473,553.224z M207.898,552.224h333.574
				c8.161,0,14.8-6.639,14.8-14.8V62.688c0-8.161-6.64-14.8-14.801-14.8H207.898V552.224z M165.058,553.224h-54.356
				c-8.712,0-15.8-7.088-15.8-15.8v-48.097h24.944c11.535,0,20.92-9.385,20.92-20.92s-9.385-20.92-20.92-20.92H94.902V320.976
				h24.944c11.535,0,20.92-9.385,20.92-20.92s-9.385-20.92-20.92-20.92H94.902V152.625h24.944c11.535,0,20.92-9.385,20.92-20.92
				s-9.385-20.92-20.92-20.92H94.902V62.688c0-8.712,7.088-15.8,15.8-15.8h54.356V553.224z M95.902,490.328v47.097
				c0,8.161,6.639,14.8,14.8,14.8h53.356V47.888h-53.356c-8.161,0-14.8,6.639-14.8,14.8v47.096h23.944
				c12.087,0,21.92,9.833,21.92,21.92c0,12.087-9.833,21.92-21.92,21.92H95.902v124.512h23.944c12.087,0,21.92,9.833,21.92,21.92
				s-9.833,21.92-21.92,21.92H95.902v124.512h23.944c12.087,0,21.92,9.833,21.92,21.92s-9.833,21.92-21.92,21.92H95.902z"/>
		</g>
		<g>
			<path d="M333.215,427.839c8.676,3.147,18.144-2.06,20.147-11.068l2.681-12.056c1.656-7.446-2.439-14.936-9.569-17.646
				c-15.44-5.869-29.231-15.853-39.684-28.897c-13.621-16.997-20.666-37.536-20.374-59.395c0.33-24.688,10.136-47.777,27.613-65.014
				c17.477-17.238,40.705-26.73,65.404-26.73c51.293,0,93.022,41.731,93.022,93.024c0,5.37-0.459,10.75-1.365,15.988
				c-0.765,4.424-3.565,6.903-5.167,7.988c-1.615,1.093-4.987,2.787-9.432,1.843l-14.089-2.991
				c2.896-7.514,4.489-15.67,4.489-24.192c0-37.198-30.263-67.46-67.46-67.46c-37.198,0-67.461,30.263-67.461,67.46
				c0,37.197,30.263,67.46,67.461,67.46c10.448,0,20.351-2.388,29.187-6.646l38.975,8.275c14.789,3.142,29.829,0.202,42.347-8.274
				c12.497-8.462,20.796-21.305,23.365-36.164c1.32-7.641,1.991-15.477,1.991-23.286c0-36.291-14.133-70.409-39.793-96.071
				c-25.661-25.662-59.779-39.793-96.07-39.794c-0.002,0,0.001,0,0.001,0c-36.029,0-69.943,13.876-95.486,39.069
				c-25.55,25.2-39.886,58.918-40.367,94.944c-0.421,31.456,10.155,62.266,29.779,86.756
				C289.035,404.523,309.879,419.373,333.215,427.839z M379.432,323.312c-13.575,0-24.62-11.045-24.62-24.62
				s11.045-24.621,24.62-24.621c13.576,0,24.62,11.045,24.62,24.621S393.008,323.312,379.432,323.312z"/>
			<path d="M338.429,429.262C338.428,429.262,338.429,429.262,338.429,429.262c-1.831-0.001-3.643-0.321-5.385-0.953
				c-23.604-8.563-44.377-23.445-60.074-43.036c-19.696-24.58-30.311-55.505-29.889-87.076c0.483-36.158,14.872-70,40.516-95.293
				c25.638-25.287,59.674-39.213,95.837-39.213c36.424,0,70.668,14.185,96.423,39.94c25.756,25.757,39.939,60.001,39.939,96.424
				c0,7.834-0.673,15.697-1.998,23.371c-2.593,14.993-10.966,27.953-23.578,36.493c-9.262,6.271-19.991,9.587-31.029,9.587
				c-3.898,0-7.835-0.416-11.701-1.237l-38.809-8.24c-9.174,4.395-19.014,6.622-29.249,6.622c-37.474,0-67.961-30.486-67.961-67.96
				s30.487-67.96,67.961-67.96s67.96,30.487,67.96,67.96c0,8.19-1.451,16.203-4.314,23.824l13.518,2.87
				c0.828,0.176,1.664,0.266,2.484,0.266c3.097-0.001,5.441-1.274,6.563-2.033c1.536-1.04,4.222-3.419,4.955-7.659
				c0.9-5.208,1.357-10.559,1.357-15.903c0-51.018-41.506-92.523-92.522-92.524c-24.568,0-47.671,9.442-65.053,26.586
				c-17.382,17.144-27.136,40.109-27.464,64.665c-0.291,21.742,6.716,42.17,20.264,59.075
				c10.355,12.925,24.004,22.863,39.471,28.742c7.443,2.831,11.599,10.494,9.88,18.223l-2.681,12.056
				C352.255,424.054,345.769,429.262,338.429,429.262z M379.435,164.691c-35.898,0-69.685,13.824-95.135,38.925
				c-25.456,25.107-39.739,58.701-40.218,94.595c-0.419,31.339,10.117,62.037,29.669,86.437
				c15.582,19.447,36.204,34.22,59.635,42.722c1.632,0.592,3.328,0.892,5.042,0.893c6.876,0,12.951-4.879,14.446-11.6l2.681-12.056
				c1.61-7.239-2.283-14.419-9.259-17.07c-15.633-5.942-29.429-15.989-39.896-29.053c-13.694-17.088-20.777-37.737-20.483-59.714
				c0.332-24.821,10.191-48.034,27.761-65.363c17.57-17.33,40.923-26.875,65.756-26.875c51.568,0,93.522,41.955,93.522,93.524
				c0,5.401-0.462,10.81-1.372,16.073c-0.797,4.605-3.712,7.188-5.38,8.317c-1.217,0.823-3.761,2.204-7.124,2.205
				c-0.89,0-1.796-0.097-2.691-0.287l-14.663-3.113l0.211-0.547c2.957-7.67,4.456-15.749,4.456-24.013
				c0-36.922-30.038-66.96-66.96-66.96c-36.923,0-66.961,30.039-66.961,66.96s30.038,66.96,66.961,66.96
				c10.141,0,19.888-2.22,28.97-6.597l0.153-0.074l0.167,0.035l38.975,8.275c3.799,0.807,7.666,1.216,11.494,1.216
				c10.837,0,21.373-3.256,30.469-9.415c12.385-8.386,20.607-21.112,23.152-35.835c1.316-7.618,1.984-15.424,1.984-23.201
				c0-36.156-14.08-70.149-39.646-95.717C449.584,178.772,415.592,164.692,379.435,164.691z M379.432,323.812
				c-13.852,0-25.12-11.269-25.12-25.12s11.269-25.121,25.12-25.121s25.12,11.269,25.12,25.121S393.283,323.812,379.432,323.812z
				 M379.432,274.571c-13.3,0-24.12,10.82-24.12,24.121c0,13.3,10.82,24.12,24.12,24.12s24.12-10.82,24.12-24.12
				C403.552,285.392,392.731,274.571,379.432,274.571z"/>
		</g>
	</g>
</g>
<g>
</g>
<g>
</g>
<g>
</g>
<g>
</g>
<g>
</g>
<g>
</g>
<g>
</g>
<g>
</g>
<g>
</g>
<g>
</g>
<g>
</g>
<g>
</g>
<g>
</g>
<g>
</g>
<g>
</g>
</svg>
