<?xml version="1.0" encoding="iso-8859-1"?>
<!-- Generator: Adobe Illustrator 19.0.0, SVG Export Plug-In . SVG Version: 6.00 Build 0)  -->
<svg version="1.1" id="Capa_1" xmlns="http://www.w3.org/2000/svg" xmlns:xlink="http://www.w3.org/1999/xlink" x="0px" y="0px"
	 viewBox="0 0 512 512" style="enable-background:new 0 0 512 512;" xml:space="preserve">
<g>
	<g>
		<path d="M448.39,147.322L297.99,5.242C294.419,1.875,289.709,0,284.8,0h-208C66.195,0,57.6,8.595,57.6,19.2v473.6
			c0,10.605,8.595,19.2,19.2,19.2h358.4c10.605,0,19.2-8.595,19.2-19.2V161.28C454.4,156,452.224,150.95,448.39,147.322z M416,473.6
			H96V38.4h181.165L416,169.555V473.6z"/>
	</g>
</g>
<g>
	<g>
		<path d="M345.6,313.6H160c-10.605,0-19.2,8.595-19.2,19.2S149.395,352,160,352h185.6c10.605,0,19.2-8.595,19.2-19.2
			S356.205,313.6,345.6,313.6z"/>
	</g>
</g>
<g>
	<g>
		<path d="M268.8,236.8H160c-10.605,0-19.2,8.595-19.2,19.2s8.595,19.2,19.2,19.2h108.8c10.605,0,19.2-8.595,19.2-19.2
			S279.405,236.8,268.8,236.8z"/>
	</g>
</g>
<g>
	<g>
		<path d="M345.6,390.4H160c-10.605,0-19.2,8.595-19.2,19.2c0,10.605,8.595,19.2,19.2,19.2h185.6c10.605,0,19.2-8.595,19.2-19.2
			S356.205,390.4,345.6,390.4z"/>
	</g>
</g>
<g>
	<g>
		<path d="M300.8,147.2v-128h-38.4v147.2c0,10.605,8.595,19.2,19.2,19.2h153.6v-38.4H300.8z"/>
	</g>
</g>
<g>
</g>
<g>
</g>
<g>
</g>
<g>
</g>
<g>
</g>
<g>
</g>
<g>
</g>
<g>
</g>
<g>
</g>
<g>
</g>
<g>
</g>
<g>
</g>
<g>
</g>
<g>
</g>
<g>
</g>
</svg>
