<?xml version="1.0" encoding="iso-8859-1"?>
<!-- Generator: Adobe Illustrator 19.0.0, SVG Export Plug-In . SVG Version: 6.00 Build 0)  -->
<svg version="1.1" id="Layer_1" xmlns="http://www.w3.org/2000/svg" xmlns:xlink="http://www.w3.org/1999/xlink" x="0px" y="0px"
	 viewBox="0 0 512 512" style="enable-background:new 0 0 512 512;" xml:space="preserve">
<g>
	<g>
		<path d="M366.955,192l77.444-116.166c9.451-14.177-0.712-33.167-17.75-33.167h-320V21.333C106.649,9.551,97.097,0,85.315,0
			C73.533,0,63.982,9.551,63.982,21.333V64v256v170.667c0,11.782,9.551,21.333,21.333,21.333c11.782,0,21.333-9.551,21.333-21.333
			V341.333h320c17.039,0,27.202-18.99,17.75-33.167L366.955,192z M106.649,298.667V85.333h280.138l-63.222,94.833
			c-4.777,7.166-4.777,16.501,0,23.667l63.222,94.833H106.649z"/>
	</g>
</g>
<g>
</g>
<g>
</g>
<g>
</g>
<g>
</g>
<g>
</g>
<g>
</g>
<g>
</g>
<g>
</g>
<g>
</g>
<g>
</g>
<g>
</g>
<g>
</g>
<g>
</g>
<g>
</g>
<g>
</g>
</svg>
