<?xml version="1.0" encoding="iso-8859-1"?>
<!-- Generator: Adobe Illustrator 19.0.0, SVG Export Plug-In . SVG Version: 6.00 Build 0)  -->
<svg version="1.1" id="Capa_1" xmlns="http://www.w3.org/2000/svg" xmlns:xlink="http://www.w3.org/1999/xlink" x="0px" y="0px"
	 viewBox="0 0 512 512" style="enable-background:new 0 0 512 512;" xml:space="preserve">
<g>
	<g>
		<path d="M422.4,0H89.6C64.896,0,44.8,20.096,44.8,44.8v422.4c0,24.698,20.096,44.8,44.8,44.8h332.8
			c24.698,0,44.8-20.102,44.8-44.8V44.8C467.2,20.096,447.098,0,422.4,0z M428.8,467.2c0,3.469-2.931,6.4-6.4,6.4H89.6
			c-3.469,0-6.4-2.931-6.4-6.4V44.8c0-3.469,2.931-6.4,6.4-6.4h332.8c3.469,0,6.4,2.931,6.4,6.4V467.2z"/>
	</g>
</g>
<g>
	<g>
		<path d="M313.6,217.6H192c-10.605,0-19.2,8.595-19.2,19.2S181.395,256,192,256h121.6c10.605,0,19.2-8.595,19.2-19.2
			S324.205,217.6,313.6,217.6z"/>
	</g>
</g>
<g>
	<g>
		<path d="M358.4,294.4H153.6c-10.605,0-19.2,8.595-19.2,19.2c0,10.605,8.595,19.2,19.2,19.2h204.8c10.605,0,19.2-8.595,19.2-19.2
			C377.6,302.995,369.005,294.4,358.4,294.4z"/>
	</g>
</g>
<g>
	<g>
		<path d="M358.4,371.2H153.6c-10.605,0-19.2,8.595-19.2,19.2c0,10.605,8.595,19.2,19.2,19.2h204.8c10.605,0,19.2-8.595,19.2-19.2
			C377.6,379.795,369.005,371.2,358.4,371.2z"/>
	</g>
</g>
<g>
	<g>
		<path d="M313.6,19.2v64H198.4v-64H160v83.2c0,10.605,8.595,19.2,19.2,19.2h153.6c10.605,0,19.2-8.595,19.2-19.2V19.2H313.6z"/>
	</g>
</g>
<g>
</g>
<g>
</g>
<g>
</g>
<g>
</g>
<g>
</g>
<g>
</g>
<g>
</g>
<g>
</g>
<g>
</g>
<g>
</g>
<g>
</g>
<g>
</g>
<g>
</g>
<g>
</g>
<g>
</g>
</svg>
