<?xml version="1.0" encoding="iso-8859-1"?>
<!-- Generator: Adobe Illustrator 19.0.0, SVG Export Plug-In . SVG Version: 6.00 Build 0)  -->
<svg version="1.1" id="Capa_1" xmlns="http://www.w3.org/2000/svg" xmlns:xlink="http://www.w3.org/1999/xlink" x="0px" y="0px"
	 viewBox="0 0 512 512" style="enable-background:new 0 0 512 512;" xml:space="preserve">
<g>
	<g>
		<path d="M492.848,118.105H353.676v38.304h120.02v199.182h-29.367c-10.578,0-19.152,8.574-19.152,19.152v32.425l-67.409-48.021
			c-3.249-2.317-7.131-3.556-11.115-3.556H219.611v-57.456h-38.304v76.608c0,10.578,8.574,19.152,19.152,19.152h140.072
			l92.684,66.03c3.307,2.356,7.201,3.556,11.115,3.556c2.994,0,6.007-0.702,8.772-2.126c6.378-3.288,10.38-9.857,10.38-17.026
			v-50.434h29.367c10.578,0,19.152-8.574,19.152-19.152V137.257C512,126.679,503.426,118.105,492.848,118.105z"/>
	</g>
</g>
<g>
	<g>
		<path d="M353.676,48.519H19.152C8.574,48.519,0,57.092,0,67.671v230.464c0,10.578,8.574,19.152,19.152,19.152h43.411v64.479
			c0,7.61,4.501,14.492,11.466,17.543c2.471,1.079,5.082,1.609,7.68,1.609c4.724,0,9.385-1.743,12.992-5.075l85.15-78.556h173.825
			c10.578,0,19.152-8.574,19.152-19.152V67.671C372.828,57.092,364.254,48.519,353.676,48.519z M334.524,278.983H172.369
			c-4.814,0-9.448,1.813-12.985,5.075l-58.516,53.983v-39.907c0-10.578-8.574-19.152-19.152-19.152H38.304V86.823h296.219V278.983z"
			/>
	</g>
</g>
<g>
</g>
<g>
</g>
<g>
</g>
<g>
</g>
<g>
</g>
<g>
</g>
<g>
</g>
<g>
</g>
<g>
</g>
<g>
</g>
<g>
</g>
<g>
</g>
<g>
</g>
<g>
</g>
<g>
</g>
</svg>
