<?xml version="1.0" encoding="iso-8859-1"?>
<!-- Generator: Adobe Illustrator 19.0.0, SVG Export Plug-In . SVG Version: 6.00 Build 0)  -->
<svg version="1.1" id="Capa_1" xmlns="http://www.w3.org/2000/svg" xmlns:xlink="http://www.w3.org/1999/xlink" x="0px" y="0px"
	 viewBox="0 0 511.999 511.999" style="enable-background:new 0 0 511.999 511.999;" xml:space="preserve">
<g>
	<g>
		<path d="M510.793,113.814c-2.612-6.676-9.05-11.064-16.213-11.064H372.096v34.83h78.018l-47.687,44.117H286.183v34.83h123.064
			c4.383,0,8.609-1.654,11.825-4.632l85.332-78.947C511.663,128.082,513.405,120.484,510.793,113.814z"/>
	</g>
</g>
<g>
	<g>
		<path d="M211.88,137.579v-34.83H102.747c-4.383,0-8.609,1.654-11.825,4.632L5.59,186.329c-5.259,4.865-7.001,12.463-4.389,19.133
			c2.612,6.676,9.044,11.064,16.213,11.064h116.679v-34.83H61.886l47.682-44.117H211.88z"/>
	</g>
</g>
<g>
	<g>
		<path d="M130.611,249.04H17.415C7.796,249.04,0,256.836,0,266.454s7.796,17.415,17.415,17.415h113.196
			c9.619,0,17.415-7.796,17.415-17.415S140.23,249.04,130.611,249.04z"/>
	</g>
</g>
<g>
	<g>
		<path d="M508.256,188.326c-5.962-7.558-16.904-8.847-24.462-2.885l-80.59,63.599h-115.28c-9.619,0-17.415,7.796-17.415,17.415
			s7.796,17.415,17.415,17.415h121.323c3.918,0,7.715-1.324,10.791-3.744l85.332-67.343
			C512.923,206.826,514.212,195.878,508.256,188.326z"/>
	</g>
</g>
<g>
	<g>
		<path d="M130.611,316.951H17.415C7.796,316.951,0,324.747,0,334.366c0,9.619,7.796,17.415,17.415,17.415h113.196
			c9.619,0,17.415-7.796,17.415-17.415C148.026,324.747,140.23,316.951,130.611,316.951z"/>
	</g>
</g>
<g>
	<g>
		<path d="M508.703,262.652c-5.619-7.802-16.492-9.567-24.311-3.942l-80.77,58.241H289.085c-9.619,0-17.415,7.796-17.415,17.415
			c0,9.619,7.796,17.415,17.415,17.415h120.162c3.657,0,7.221-1.149,10.182-3.286l85.332-61.532
			C512.563,281.338,514.322,270.454,508.703,262.652z"/>
	</g>
</g>
<g>
	<g>
		<path d="M509.156,336.45c-5.259-8.051-16.056-10.327-24.102-5.056l-80.99,52.894H17.415C7.796,384.288,0,392.084,0,401.703
			c0,9.619,7.796,17.415,17.415,17.415h391.832c3.384,0,6.687-0.981,9.52-2.833l85.332-55.733
			C512.151,355.293,514.415,344.507,509.156,336.45z"/>
	</g>
</g>
<g>
	<g>
		<path d="M394.108,103.922c-2.618-6.664-9.05-11.041-16.207-11.041H225.812c-4.4,0-8.638,1.666-11.859,4.667l-91.718,85.332
			c-3.541,3.291-5.555,7.912-5.555,12.748v200.27h34.83V203.215l81.153-75.505h100.953l-59.297,55.17
			c-3.535,3.291-5.549,7.912-5.549,12.748v200.27h34.83V203.215l86.168-80.172C395.002,118.173,396.726,110.586,394.108,103.922z"/>
	</g>
</g>
<g>
</g>
<g>
</g>
<g>
</g>
<g>
</g>
<g>
</g>
<g>
</g>
<g>
</g>
<g>
</g>
<g>
</g>
<g>
</g>
<g>
</g>
<g>
</g>
<g>
</g>
<g>
</g>
<g>
</g>
</svg>
