<?xml version="1.0" encoding="iso-8859-1"?>
<!-- Generator: Adobe Illustrator 19.0.0, SVG Export Plug-In . SVG Version: 6.00 Build 0)  -->
<svg version="1.1" id="Capa_1" xmlns="http://www.w3.org/2000/svg" xmlns:xlink="http://www.w3.org/1999/xlink" x="0px" y="0px"
	 viewBox="0 0 512 512" style="enable-background:new 0 0 512 512;" xml:space="preserve">
<g>
	<g>
		<path d="M420.332,77.135H16.769C7.507,77.135,0,84.642,0,93.904v251.528c0,9.262,7.507,16.769,16.769,16.769h403.563
			c9.262,0,16.769-7.507,16.769-16.769V93.904C437.1,84.642,429.594,77.135,420.332,77.135z M403.563,328.664H33.537V110.672
			h370.026V328.664z"/>
	</g>
</g>
<g>
	<g>
		<path d="M218.55,139.179c-44.381,0-80.489,36.108-80.489,80.489s36.108,80.489,80.489,80.489s80.489-36.108,80.489-80.489
			S262.931,139.179,218.55,139.179z M218.55,266.62c-25.891,0-46.952-21.061-46.952-46.952c0-25.891,21.061-46.952,46.952-46.952
			c25.891,0,46.952,21.067,46.952,46.952S244.441,266.62,218.55,266.62z"/>
	</g>
</g>
<g>
	<g>
		<path d="M63.721,93.904c0,25.891-21.061,46.952-46.952,46.952v33.537c44.381,0,80.489-36.108,80.489-80.489H63.721z"/>
	</g>
</g>
<g>
	<g>
		<path d="M373.38,93.904h-33.537c0,44.381,36.108,80.489,80.489,80.489v-33.537C394.447,140.856,373.38,119.795,373.38,93.904z"/>
	</g>
</g>
<g>
	<g>
		<path d="M16.769,266.626v33.537c25.891,0,46.952,21.056,46.952,46.946h33.537C97.258,302.728,61.149,266.62,16.769,266.626z"/>
	</g>
</g>
<g>
	<g>
		<path d="M339.843,347.109h33.537c0-25.891,21.061-46.952,46.952-46.946v-33.537C375.951,266.626,339.843,302.734,339.843,347.109z
			"/>
	</g>
</g>
<g>
	<g>
		<path d="M495.231,149.799h-74.9v33.537h58.131v217.991H108.437v-55.895H74.9v72.664c0,9.262,7.507,16.769,16.769,16.769h403.563
			c9.262,0,16.769-7.507,16.769-16.769V166.568C512,157.306,504.493,149.799,495.231,149.799z"/>
	</g>
</g>
<g>
	<g>
		<g>
			<path d="M448.279,166.568h-33.537c0,44.379,36.105,80.486,80.484,80.489V213.52C469.341,213.52,448.279,192.458,448.279,166.568z
				"/>
			<polygon points="495.231,247.057 495.226,247.057 495.226,247.057 			"/>
		</g>
	</g>
</g>
<g>
	<g>
		<path d="M91.668,339.289v33.537c25.891,0,46.952,21.056,46.952,46.946h33.537C172.157,375.392,136.049,339.284,91.668,339.289z"/>
	</g>
</g>
<g>
	<g>
		<path d="M414.742,419.773h33.537c0-25.891,21.061-46.952,46.952-46.952v-33.537C450.851,339.284,414.742,375.392,414.742,419.773z
			"/>
	</g>
</g>
<g>
</g>
<g>
</g>
<g>
</g>
<g>
</g>
<g>
</g>
<g>
</g>
<g>
</g>
<g>
</g>
<g>
</g>
<g>
</g>
<g>
</g>
<g>
</g>
<g>
</g>
<g>
</g>
<g>
</g>
</svg>
