<?xml version="1.0" encoding="iso-8859-1"?>
<!-- Generator: Adobe Illustrator 19.0.0, SVG Export Plug-In . SVG Version: 6.00 Build 0)  -->
<svg version="1.1" id="Capa_1" xmlns="http://www.w3.org/2000/svg" xmlns:xlink="http://www.w3.org/1999/xlink" x="0px" y="0px"
	 viewBox="0 0 512 512" style="enable-background:new 0 0 512 512;" xml:space="preserve">
<g>
	<g>
		<path d="M297.851,53.659l-48.73-48.735C245.967,1.77,241.693,0,237.234,0c-4.453,0-8.728,1.77-11.881,4.924l-87.948,87.947
			l23.763,23.763l76.066-76.061l25.001,25.012l-76.133,76.621l23.841,23.69l87.948-88.508
			C304.416,70.817,304.399,60.208,297.851,53.659z"/>
	</g>
</g>
<g>
	<g>
		<path d="M189.177,114.158c-19.427-19.432-45.43-30.132-73.22-30.132s-53.794,10.699-73.22,30.132
			c-6.565,6.56-6.565,17.203,0,23.763l122.678,122.678c3.148,3.154,7.428,4.918,11.881,4.918c0.022,0,0.045,0,0.073,0.006
			c4.481-0.017,8.767-1.826,11.909-5.019C229.263,219.846,229.218,154.199,189.177,114.158z M175.749,223.403l-95.924-95.919
			c26.894-16.228,62.415-12.738,85.589,10.436C188.37,160.882,191.81,196.353,175.749,223.403z"/>
	</g>
</g>
<g>
	<g>
		<path d="M352.63,419.011H179.536c-9.282,0-16.805,7.523-16.805,16.805v59.379c0,9.282,7.523,16.805,16.805,16.805H352.63
			c9.282,0,16.805-7.518,16.805-16.805v-59.379C369.436,426.534,361.912,419.011,352.63,419.011z M335.825,478.389H196.341h0
			v-25.768h139.484V478.389z"/>
	</g>
</g>
<g>
	<g>
		<path d="M403.046,176.455c-39.229,0-71.142,31.913-71.142,71.142s31.913,71.142,71.142,71.142
			c39.229,0,71.142-31.913,71.142-71.142S442.275,176.455,403.046,176.455z M403.046,285.129c-20.693,0-37.532-16.839-37.532-37.532
			s16.839-37.532,37.532-37.532c20.698,0,37.532,16.839,37.532,37.532S423.739,285.129,403.046,285.129z"/>
	</g>
</g>
<g>
	<g>
		
			<rect x="236.791" y="351.777" transform="matrix(0.6855 -0.7281 0.7281 0.6855 -164.8453 355.5563)" width="184.671" height="33.611"/>
	</g>
</g>
<g>
	<g>
		
			<rect x="285.687" y="80.871" transform="matrix(0.5732 -0.8194 0.8194 0.5732 -2.4266 316.3727)" width="33.61" height="159.289"/>
	</g>
</g>
<g>
</g>
<g>
</g>
<g>
</g>
<g>
</g>
<g>
</g>
<g>
</g>
<g>
</g>
<g>
</g>
<g>
</g>
<g>
</g>
<g>
</g>
<g>
</g>
<g>
</g>
<g>
</g>
<g>
</g>
</svg>
