<?xml version="1.0" encoding="iso-8859-1"?>
<!-- Generator: Adobe Illustrator 19.0.0, SVG Export Plug-In . SVG Version: 6.00 Build 0)  -->
<svg version="1.1" id="Capa_1" xmlns="http://www.w3.org/2000/svg" xmlns:xlink="http://www.w3.org/1999/xlink" x="0px" y="0px"
	 viewBox="0 0 512 512" style="enable-background:new 0 0 512 512;" xml:space="preserve">
<g>
	<g>
		<path d="M223.418,150.691c-69.62,0-126.255,56.64-126.255,126.255c0,69.62,56.64,126.255,126.255,126.255
			s126.255-56.64,126.255-126.255C349.673,207.325,293.039,150.691,223.418,150.691z M223.418,368.291
			c-50.368,0-91.345-40.977-91.345-91.345S173.05,185.6,223.418,185.6c50.368,0,91.345,40.977,91.345,91.345
			C314.764,327.313,273.786,368.291,223.418,368.291z"/>
	</g>
</g>
<g>
	<g>
		<path d="M430.545,192h-52.364c-9.641,0-17.455,7.814-17.455,17.455c0,9.641,7.814,17.455,17.455,17.455h52.364
			c9.641,0,17.455-7.814,17.455-17.455C448,199.814,440.186,192,430.545,192z"/>
	</g>
</g>
<g>
	<g>
		<path d="M482.909,98.909H341.516l-29.824-49.705c-3.153-5.26-8.832-8.477-14.964-8.477H157.091c-6.132,0-11.811,3.217-14.97,8.477
			l-29.824,49.705H29.091C13.05,98.909,0,111.959,0,128v314.182c0,16.041,13.05,29.091,29.091,29.091h453.818
			c16.041,0,29.091-13.05,29.091-29.091V128C512,111.959,498.95,98.909,482.909,98.909z M477.091,436.364H34.909V133.818h87.273
			c6.132,0,11.811-3.217,14.97-8.477l29.824-49.705h119.872l29.824,49.705c3.154,5.26,8.832,8.477,14.964,8.477h145.455V436.364z"/>
	</g>
</g>
<g>
</g>
<g>
</g>
<g>
</g>
<g>
</g>
<g>
</g>
<g>
</g>
<g>
</g>
<g>
</g>
<g>
</g>
<g>
</g>
<g>
</g>
<g>
</g>
<g>
</g>
<g>
</g>
<g>
</g>
</svg>
