<?xml version="1.0" encoding="iso-8859-1"?>
<!-- Generator: Adobe Illustrator 19.0.0, SVG Export Plug-In . SVG Version: 6.00 Build 0)  -->
<svg version="1.1" id="Capa_1" xmlns="http://www.w3.org/2000/svg" xmlns:xlink="http://www.w3.org/1999/xlink" x="0px" y="0px"
	 viewBox="0 0 512 512" style="enable-background:new 0 0 512 512;" xml:space="preserve">
<g>
	<g>
		<path d="M493.714,36.571H18.286C8.186,36.571,0,44.757,0,54.857v402.286c0,10.1,8.186,18.286,18.286,18.286h475.429
			c10.1,0,18.286-8.186,18.286-18.286V54.857C512,44.757,503.814,36.571,493.714,36.571z M475.429,438.857H36.571V73.143h438.857
			V438.857z"/>
	</g>
</g>
<g>
	<g>
		<path d="M217.783,176.817c-5.76-7.089-15.86-8.85-23.68-4.108L8.198,285.47l18.962,31.275l172.276-104.503l205.72,253.379
			l28.398-23.046L217.783,176.817z"/>
	</g>
</g>
<g>
	<g>
		<path d="M379.508,174.513c-7.107-6.15-17.725-5.918-24.546,0.561l-95.086,90.209l25.167,26.539l83.066-78.811l114.249,98.877
			l23.93-27.66L379.508,174.513z"/>
	</g>
</g>
<g>
</g>
<g>
</g>
<g>
</g>
<g>
</g>
<g>
</g>
<g>
</g>
<g>
</g>
<g>
</g>
<g>
</g>
<g>
</g>
<g>
</g>
<g>
</g>
<g>
</g>
<g>
</g>
<g>
</g>
</svg>
