<?xml version="1.0" encoding="iso-8859-1"?>
<!-- Generator: Adobe Illustrator 19.0.0, SVG Export Plug-In . SVG Version: 6.00 Build 0)  -->
<svg version="1.1" id="Layer_1" xmlns="http://www.w3.org/2000/svg" xmlns:xlink="http://www.w3.org/1999/xlink" x="0px" y="0px"
	 viewBox="0 0 512 512" style="enable-background:new 0 0 512 512;" xml:space="preserve">
<g>
	<g>
		<path d="M405.333,64h-225.83l27.582-27.582c8.331-8.331,8.331-21.839,0-30.17c-8.331-8.331-21.839-8.331-30.17,0l-64,64
			c-0.004,0.004-0.007,0.008-0.011,0.012c-0.492,0.493-0.959,1.012-1.402,1.551c-0.203,0.247-0.379,0.507-0.568,0.76
			c-0.227,0.304-0.463,0.601-0.674,0.917c-0.203,0.303-0.379,0.618-0.565,0.93c-0.171,0.286-0.35,0.565-0.508,0.86
			c-0.17,0.318-0.314,0.645-0.467,0.969c-0.145,0.307-0.298,0.609-0.428,0.923c-0.13,0.315-0.235,0.636-0.35,0.956
			c-0.121,0.337-0.25,0.67-0.355,1.015c-0.097,0.32-0.168,0.645-0.249,0.968c-0.089,0.351-0.187,0.698-0.258,1.056
			c-0.074,0.375-0.118,0.753-0.172,1.13c-0.044,0.311-0.104,0.618-0.135,0.933c-0.138,1.4-0.138,2.811,0,4.211
			c0.031,0.315,0.09,0.621,0.135,0.932c0.054,0.378,0.098,0.756,0.173,1.13c0.071,0.358,0.169,0.704,0.258,1.055
			c0.081,0.324,0.152,0.649,0.249,0.969c0.104,0.344,0.233,0.677,0.354,1.013c0.115,0.32,0.22,0.642,0.35,0.957
			c0.13,0.314,0.283,0.616,0.428,0.922c0.153,0.325,0.297,0.652,0.467,0.97c0.157,0.294,0.337,0.573,0.507,0.859
			c0.186,0.312,0.362,0.627,0.565,0.931c0.211,0.315,0.446,0.612,0.673,0.915c0.19,0.254,0.367,0.515,0.57,0.762
			c0.443,0.539,0.909,1.058,1.402,1.551c0.004,0.004,0.007,0.008,0.011,0.012l64,64c8.331,8.331,21.839,8.331,30.17,0
			s8.331-21.839,0-30.17l-27.582-27.582h225.83c35.343,0,64,28.657,64,64s-28.657,64-64,64H106.667
			C47.759,234.667,0,282.426,0,341.333S47.759,448,106.667,448h225.83l-27.582,27.582c-8.331,8.331-8.331,21.839,0,30.17
			c8.331,8.331,21.839,8.331,30.17,0l64-64c0.004-0.004,0.006-0.008,0.01-0.011c0.493-0.494,0.96-1.012,1.403-1.552
			c0.203-0.247,0.379-0.507,0.569-0.761c0.227-0.303,0.462-0.6,0.673-0.915c0.203-0.304,0.379-0.619,0.565-0.93
			c0.171-0.286,0.35-0.565,0.508-0.86c0.17-0.317,0.313-0.643,0.466-0.967c0.145-0.308,0.299-0.61,0.43-0.925
			c0.13-0.314,0.235-0.635,0.349-0.953c0.122-0.338,0.251-0.672,0.356-1.018c0.096-0.318,0.167-0.642,0.248-0.964
			c0.089-0.353,0.188-0.701,0.259-1.061c0.074-0.372,0.117-0.748,0.171-1.122c0.045-0.314,0.105-0.622,0.136-0.941
			c0.138-1.4,0.138-2.81,0-4.21c-0.031-0.318-0.091-0.627-0.136-0.941c-0.054-0.375-0.097-0.75-0.171-1.122
			c-0.071-0.359-0.17-0.708-0.259-1.061c-0.081-0.322-0.152-0.645-0.248-0.964c-0.105-0.346-0.234-0.68-0.356-1.018
			c-0.114-0.318-0.219-0.639-0.349-0.953c-0.131-0.315-0.284-0.618-0.43-0.925c-0.153-0.324-0.296-0.65-0.466-0.967
			c-0.158-0.294-0.337-0.574-0.508-0.86c-0.186-0.311-0.362-0.627-0.565-0.93c-0.211-0.315-0.446-0.612-0.673-0.915
			c-0.19-0.254-0.366-0.514-0.569-0.761c-0.443-0.54-0.91-1.059-1.403-1.552c-0.004-0.004-0.006-0.008-0.01-0.011l-64-64
			c-8.331-8.331-21.839-8.331-30.17,0c-8.331,8.331-8.331,21.839,0,30.17l27.582,27.582h-225.83c-35.343,0-64-28.657-64-64
			c0-35.343,28.657-64,64-64h298.667c58.907,0,106.667-47.759,106.667-106.667S464.241,64,405.333,64z"/>
	</g>
</g>
<g>
</g>
<g>
</g>
<g>
</g>
<g>
</g>
<g>
</g>
<g>
</g>
<g>
</g>
<g>
</g>
<g>
</g>
<g>
</g>
<g>
</g>
<g>
</g>
<g>
</g>
<g>
</g>
<g>
</g>
</svg>
