<?xml version="1.0" encoding="iso-8859-1"?>
<!-- Generator: Adobe Illustrator 19.0.0, SVG Export Plug-In . SVG Version: 6.00 Build 0)  -->
<svg version="1.1" id="Layer_1" xmlns="http://www.w3.org/2000/svg" xmlns:xlink="http://www.w3.org/1999/xlink" x="0px" y="0px"
	 viewBox="0 0 512 512" style="enable-background:new 0 0 512 512;" xml:space="preserve">
<g>
	<g>
		<path d="M469.376,160C492.913,160,512,140.913,512,117.376V53.291c0-23.537-19.087-42.624-42.624-42.624H42.624
			C19.087,10.667,0,29.754,0,53.291v64.085C0,140.913,19.087,160,42.624,160h0.047v21.333h-0.047
			C19.087,181.333,0,200.421,0,223.957v64.085c0,23.537,19.087,42.624,42.624,42.624h0.047V352h-0.047
			C19.087,352,0,371.087,0,394.624v64.085c0,23.537,19.087,42.624,42.624,42.624h426.752c23.537,0,42.624-19.087,42.624-42.624
			v-64.085C512,371.087,492.913,352,469.376,352h-0.038v-21.333h0.038c23.537,0,42.624-19.087,42.624-42.624v-64.085
			c0-23.537-19.087-42.624-42.624-42.624h-0.038V160H469.376z M42.667,53.333h426.667v64h-21.329h-384H42.667V53.333z M42.667,224
			h21.338h384h21.329v64h-21.329h-384H42.667V224z M469.333,458.667H42.667v-64h21.338h384h21.329V458.667z M426.671,352H85.338
			v-21.333h341.333V352z M426.671,181.333H85.338V160h341.333V181.333z"/>
	</g>
</g>
<g>
</g>
<g>
</g>
<g>
</g>
<g>
</g>
<g>
</g>
<g>
</g>
<g>
</g>
<g>
</g>
<g>
</g>
<g>
</g>
<g>
</g>
<g>
</g>
<g>
</g>
<g>
</g>
<g>
</g>
</svg>
