<?xml version="1.0" encoding="iso-8859-1"?>
<!-- Generator: Adobe Illustrator 19.0.0, SVG Export Plug-In . SVG Version: 6.00 Build 0)  -->
<svg version="1.1" id="Layer_1" xmlns="http://www.w3.org/2000/svg" xmlns:xlink="http://www.w3.org/1999/xlink" x="0px" y="0px"
	 viewBox="0 0 512 512" style="enable-background:new 0 0 512 512;" xml:space="preserve">
<g>
	<g>
		<g>
			<path d="M452.184,64.414l-13.12-2.624C378.866,49.751,320.505,29.724,265.538,2.251c-6.004-3.001-13.071-3.001-19.075,0
				C191.478,29.733,133.136,49.754,72.938,61.79l-13.121,2.624c-9.972,1.994-17.149,10.75-17.149,20.919v78.549
				c0,91.952,36.531,180.151,101.544,245.165l96.704,96.704c8.331,8.331,21.839,8.331,30.17,0l96.704-96.704
				c65.014-65.014,101.544-153.213,101.544-245.165V85.333C469.333,75.164,462.156,66.409,452.184,64.414z M426.667,163.883
				c0,80.636-32.036,157.983-89.048,214.995L256,460.497l-81.619-81.619c-57.012-57.012-89.048-134.359-89.048-214.995v-61.072
				C144.359,90.665,201.669,71.279,256,45.097c54.318,26.174,111.642,45.564,170.667,57.714V163.883z"/>
			<path d="M247.495,95.938c-33.748,14.68-68.448,26.946-103.823,36.692c-9.255,2.55-15.667,10.967-15.667,20.567v10.688
				c0,69.793,27.213,135.486,76.567,184.816l36.344,36.365c13.437,13.445,36.423,3.929,36.423-15.081V115.501
				C277.338,100.136,261.584,89.809,247.495,95.938z M234.671,318.462c-40.041-40.057-62.588-92.78-63.936-149.201
				c21.588-6.415,42.919-13.723,63.936-21.903V318.462z"/>
		</g>
	</g>
</g>
<g>
</g>
<g>
</g>
<g>
</g>
<g>
</g>
<g>
</g>
<g>
</g>
<g>
</g>
<g>
</g>
<g>
</g>
<g>
</g>
<g>
</g>
<g>
</g>
<g>
</g>
<g>
</g>
<g>
</g>
</svg>
