<svg id="Capa_1" enableBackground="new 0 0 512.002 512.002" height="512" viewBox="0 0 512.002 512.002" width="512" xmlns="http://www.w3.org/2000/svg"><g><path d="m356.248 285.388-231.822-62.117c-8.003-2.146-16.227 2.604-18.371 10.606s2.604 16.227 10.606 18.371l231.822 62.117c1.301.349 2.606.515 3.892.515 6.623 0 12.684-4.42 14.479-11.122 2.144-8.001-2.604-16.226-10.606-18.37z"/><path d="m371.776 227.432-231.822-62.117c-8.006-2.146-16.228 2.604-18.371 10.606-2.144 8.002 2.604 16.227 10.606 18.371l231.822 62.117c1.301.349 2.606.515 3.892.515 6.623 0 12.684-4.42 14.479-11.122 2.145-8.001-2.604-16.226-10.606-18.37z"/><path d="m340.718 343.343-231.822-62.117c-8.004-2.146-16.227 2.604-18.371 10.606s2.604 16.227 10.606 18.371l231.822 62.117c1.301.349 2.606.515 3.892.515 6.623 0 12.684-4.42 14.479-11.122 2.145-8-2.604-16.225-10.606-18.37z"/><path d="m247.915 380.593-154.548-41.411c-8.005-2.146-16.228 2.605-18.371 10.606-2.144 8.002 2.604 16.227 10.606 18.371l154.548 41.411c1.301.349 2.606.515 3.892.515 6.623 0 12.684-4.42 14.479-11.122 2.145-8-2.604-16.225-10.606-18.37z"/><path d="m511.772 431.883-55.567-315.139c-1.438-8.159-9.22-13.605-17.376-12.167l-131.151 23.125-49.585-13.286-7.608-31.689c12.336-8.033 20.515-21.938 20.515-37.726 0-24.813-20.187-45-45-45s-45 20.187-45 45c0 23.232 17.698 42.407 40.319 44.756l3.799 15.824-123.413-33.069c-8.005-2.145-16.228 2.605-18.371 10.606l-82.823 309.097c-1.03 3.843-.491 7.937 1.499 11.382 1.989 3.445 5.265 5.959 9.108 6.989l105.886 28.372 10.694 60.647c.69 3.918 2.91 7.401 6.168 9.683 2.539 1.778 5.546 2.713 8.604 2.713.867 0 1.739-.075 2.604-.228l146.966-25.914 66.811 17.902c1.277.342 2.582.511 3.882.511 2.61 0 5.201-.682 7.5-2.01 3.445-1.989 5.959-5.265 6.989-9.108l6.276-23.422 116.107-20.473c8.158-1.438 13.605-9.218 12.167-17.376zm-300.772-386.882c0-8.271 6.729-15 15-15s15 6.729 15 15-6.729 15-15 15-15-6.729-15-15zm218.265 91.725 4.359 24.724-57.38-15.375zm-274.628 342.898-5.66-32.099 74.496 19.961zm-121.266-94.133 75.058-280.119 124.659 33.402 8.326 34.68c1.651 6.879 7.797 11.501 14.573 11.501 1.159 0 2.337-.135 3.514-.418 8.055-1.934 13.018-10.032 11.083-18.087l-4.524-18.841 161.122 43.173-75.057 280.119zm358.694 52.268 54.449-203.208 33.109 187.769z"/></g></svg>