<?xml version="1.0" encoding="iso-8859-1"?>
<!-- Generator: Adobe Illustrator 19.0.0, SVG Export Plug-In . SVG Version: 6.00 Build 0)  -->
<svg version="1.1" id="Layer_1" xmlns="http://www.w3.org/2000/svg" xmlns:xlink="http://www.w3.org/1999/xlink" x="0px" y="0px"
	 viewBox="0 0 512.068 512.068" style="enable-background:new 0 0 512.068 512.068;" xml:space="preserve">
<g transform="translate(0 -1)">
	<g>
		<g>
			<path d="M446.963,151.438c-8.331-8.331-21.839-8.331-30.17,0c-8.331,8.331-8.331,21.839,0,30.17
				c41.653,41.653,41.653,109.191,0,150.843c-8.331,8.331-8.331,21.839,0,30.17c8.331,8.331,21.839,8.331,30.17,0
				C505.278,304.306,505.278,209.753,446.963,151.438z"/>
			<path d="M330.062,4.277L164.584,107.701H42.702c-11.782,0-21.333,9.551-21.333,21.333v256c0,11.782,9.551,21.333,21.333,21.333
				h121.882l165.478,103.424c14.209,8.881,32.64-1.335,32.64-18.091V22.367C362.702,5.612,344.271-4.604,330.062,4.277z
				 M320.036,453.21l-128-80v-30.843c0-11.782-9.551-21.333-21.333-21.333c-11.782,0-21.333,9.551-21.333,21.333v21.333H64.036
				V150.367h85.333v21.333c0,11.782,9.551,21.333,21.333,21.333c11.782,0,21.333-9.551,21.333-21.333v-30.843l128-80V453.21z"/>
		</g>
	</g>
</g>
<g>
</g>
<g>
</g>
<g>
</g>
<g>
</g>
<g>
</g>
<g>
</g>
<g>
</g>
<g>
</g>
<g>
</g>
<g>
</g>
<g>
</g>
<g>
</g>
<g>
</g>
<g>
</g>
<g>
</g>
</svg>
